<?xml version='1.0' encoding='utf-8'?>
<svg xmlns="http://www.w3.org/2000/svg" version="1.1" id="Layer_1" x="0px" y="0px" viewBox="0 0 589.8 743.5" style="enable-background:new 0 0 589.8 743.5;"> <style type="text/css"> .st0{fill:#B5D2EE;} .st1{fill:#80C8EF;} .st2{fill:#F7ECEB;} .st3{fill:#85C441;} .st4{fill:#23B45D;} .st5{fill:#014C4C;} .st6{fill:#027C65;} .st7{fill:#09967C;} .st8{fill:#CFEBE8;} .st9{fill:#D5EFF6;} .st10{fill:#CECECE;} .st11{fill:#D8E3E9;} .st12{fill:#FFFFFF;} .st13{fill:#82301A;} .st14{fill:#987BB8;} .st15{fill:#8F3694;} .st16{fill:url(#SVGID_1_);} .st17{fill:#FAAB54;} .st18{fill:#67BF72;} .st19{fill:#B3D999;} .st20{fill:#1CB24B;} .st21{fill:#FFD65A;} .st22{fill:#C5C12F;} .st23{fill:#E2E21B;} .st24{fill:#FFD85D;} .st25{fill:#F47A3F;} .st26{fill:#FED9B2;} .st27{fill:#F8C09E;} .st28{fill:#FDD1AC;} .st29{fill:#C6509D;} .st30{fill:#E39EC5;} .st31{fill:#921E5E;} .st32{fill:#F5822B;} .st33{fill:#F9AD86;} .st34{fill:#FBB482;} .st35{fill:#ED2390;} .st36{fill:url(#SVGID_2_);} .st37{fill:#ED1B2E;} .st38{fill:#006F53;} .st39{fill:#4D260F;} .st40{fill:#FFD27C;} .st41{fill:url(#SVGID_3_);} .st42{fill:#9B5BA5;} .st43{fill:#006468;} .st44{fill:#007663;} .st45{fill:#00A082;} .st46{fill:#2B8D92;} .st47{fill:#229E9E;} .st48{fill:#B23D96;} .st49{fill:#72123D;} .st50{fill:url(#SVGID_4_);} .st51{fill:url(#SVGID_5_);} .st52{fill:#3175BB;} .st53{fill:#1598D5;} .st54{fill:#006BB6;} .st55{fill:#0064A1;} .st56{fill:url(#SVGID_6_);} .st57{fill:#B41E7F;} .st58{fill:url(#SVGID_7_);} .st59{fill:#9B247E;} .st60{fill:#B45C27;} .st61{fill:#CA4F9D;} .st62{fill:url(#SVGID_8_);} .st63{fill:#EF3E33;} .st64{fill:#EE334E;} .st65{fill:#00717B;} .st66{fill:#59AD40;} </style> <g> <path class="st0" d="M348,34.4c111.9,9.8,167.7-34.3,202,0c17.9,17.9,22.7,50,26,71.9c3.4,22.4,1.8,39.1,0,57.3 c-3.4,35.6-5.7,58.7-21.7,66.6c-4.3,2.1-14.9,5.8-34.3-2.7c-7.8,10.9-19.2,25.9-38,36.5c-35.8,20.1-75.9,12.2-115.3,20 c-4.5,0-10.5,0-15,0c-6,0-28.6-2.7-34.6-2.7c-105.2-32.3-199.9,40.4-290,115.7C18.6,355,9.6,294.8,9.1,222.2 C8.4,118.4,8,53.3,52,19.8C86.6-6.4,133.6-1.7,211,6.2C287.5,14,285.8,29,348,34.4z"/> <path class="st1" d="M243.6,246.2c75.8-9,154.2-1.5,220.2-31.5c44.1-9,130.9,2.6,111.3-40.8c-12.2-19.5-48.9-22.5-73.4-24 c-107.7,9-162.7-22.1-265.5-14.6c-7.4,0-12.2,0-19.6,0c-22,3-44.1,3-68.5,3c-51.4,4.5-156.6,25.5-129.7,70.5 c56.3,25.5,127.2-3,190.8,7.5C209.3,228.2,224,241.7,243.6,246.2z"/> <path class="st2" d="M241.7,224.8c-66.9-16.1-125.8,30.5-190.9,40.5c-47,1.1-49.5,140.4-7.5,149.2c35.9,18.6,73.6,16.6,113.4,20.1 c60.9-7.7,122.7-56.6,181.6-25.7c61.1,5.3,122.5,23.4,182.1,15.6c15.5-24.5,54.7-28.9,40.3-79.2c-33.9-57.1-80-66.3-123.4-90.7 c-57.8,2.8-116.9,21-169.7-19.7C262.5,231.7,244.3,225,241.7,224.8z"/> <g> <path class="st3" d="M525.4,44.3c-13.5,6.8,2,35.8-6,50.6c-1.3,6.8,1.3,11.1,1.7,17.3c-8.4-5.5-8.7,16.7-3.7,24.1 c1.3,6.8,6.7,17.3,0.7,24.1c-4,6.8,5,13-0.7,18.5c-2.7,10.5,3,22.2,7.1,29c-3,4.9-7.1-4.9-9.8,4.3c0.7,3.8,1.5,9.6,0.6,16.6 c-1.5,11.7-5.9,13.4-5.1,20.9c1.1,10.7,10.8,14.8,8.7,21.5c-1.2,3.6-5,5.6-8.1,6.8c-3.5,7.5-1.6,16,4.3,20.6 c6.6,5.2,15.1,3.1,15.9,2.9c1.2,2.4,5.2,9.5,13.9,13c6,2.4,11.3,1.8,15.1,1.3c13-1.7,21.9-9.1,25.8-13c-4.5-1.4-9-2.7-13.5-4.1 c-3.1-3.9-6.2-7.9-9.2-11.8c2.4,0.2,11.3,0.6,19.1-5.3c4-3,6.2-6.6,7.4-8.8c-7.3-5.7-14.7-11.5-22-17.2 c12.5-6.7,14.5-10.2,14-12.2c-0.6-2.2-4.1-2.5-9.2-5.9c-4.8-3.2-7.8-7-9.5-9.7c3.1-1.1,6.8-2.6,10.7-5c6.1-3.7,10.2-8,12.9-11.2 c-3.3-0.7-7.9-2-12.9-4.7c-5.4-2.9-8.9-6.1-9.8-7.1c-7.1-6.8-10-14.8-11.2-19.4c7.3,6.1,16.5,7.9,23.3,4.5 c7.3-3.7,11.4-13.3,8.8-16.4c-1.8-2.1-5.2,0.6-12.3-0.6c-11.6-1.9-18.8-11.9-19.6-13c-0.2-0.3-1.8-3.2-4.9-8.8 c-2.3-4.1-4.1-7.5-5.3-9.7c0.8,2,4.1,10,13.1,14.4c13.2,6.4,26.3-1.2,27.1-1.7c-5.3-3-10.6-6-15.9-9c-3.7-2.3-7.4-4.6-11.2-6.9 c3.5-1.6,7-3.1,10.5-4.7c-14.7-8.6-21.3-18.5-24.4-24.2c-3.2-6-4.5-11.4-7-21.8c-3-12.7-4.5-23.4-5.3-30.7 C528.1,49.2,526.8,46.7,525.4,44.3z"/> <path class="st4" d="M522.6,46.5c1,7.8,1.8,15.9,2.4,24.6c0.6,9,0.9,17.5,1,25.6c-1.6,5.2-3.3,10.3-4.9,15.5 c2.3,1.8,4.6,3.7,6.9,5.5c-0.2,0.1-5.2,1.8-6.2,6.5c-0.8,3.9,1.7,8.2,6,9.9c-1.4,2.5-3,6.3-3,10.9c0,4.9,1.9,5.6,2.3,10.9 c0.6,7.8-3,10.8-1,14.4c1,1.8,3.5,3.9,10.3,4.5c-3,3-6.5,7-9.7,12.2c-2.7,4.3-4.5,8.4-5.8,11.9c3.1,1.3,6.2,2.6,9.3,3.9 c-1.6,6-3.3,12-4.9,18c1.8,3.7,3.5,7.6,5.3,11.6c2.4,5.7,4.6,11.3,6.4,16.6c-10.3,4-12.4,7.2-12.4,9.4c0,2.7,3.3,3.6,6.3,7.8 c1,1.4,2.9,4.5,3.7,15.7c0.9,13,1.3,19.5-2,22.4c-6.6,6-20.6,0.3-21.5,0c-6.4-1.1-13.1-2.1-20.2-3c-6.4-0.8-12.6-1.3-18.5-1.8 c-4-3.2-7.9-6.5-11.9-9.7c6.4-1.7,12.8-3.4,19.3-5c2.3-3.5,4.5-7.1,6.8-10.6c-1,0.4-7.1,2.4-13.5-0.6c-7.5-3.5-9.1-10.9-9.2-11.8 c2.9-2.1,6.8-5.3,10.5-10c4.1-5.4,6.3-10.6,7.4-14.1c-4.3-2-8.6-3.9-12.9-5.9c5.2-5.1,10.5-10.1,15.7-15.2 c-4.2-4.4-8.4-8.7-12.6-13.1c4.3-2.7,10-7.1,15.2-13.7c4.7-6.1,9.2-14.4,7.3-16.1c-1.8-1.6-6.9,4.6-13.2,3.3 c-6-1.2-11.5-8.8-9.8-13.5c2.1-5.9,13.7-3,22.8-12.8c3.2-3.4,5.3-7.5,4.7-8c-0.6-0.5-3.5,3.1-7.5,4.3c-3.8,1-9.6,0.1-18.8-8.2 c6.2-3.8,12.3-7.6,18.5-11.4c4.5-5.9,9.3-13.4,13.6-22.4c7-14.9,9.8-28.6,10.9-38.6C517.9,59.8,520.2,53.2,522.6,46.5z"/> <path class="st5" d="M448.1,78.3c0.2,6.8,0,14.7-1.3,23.5c-1.8,12.8-5.2,23.5-8.6,31.8c8.7,6.5,11.1,15.1,8,19.4 c-0.4,0.6-2.3,3-7.7,3.5c2.1,5.4,10.3,13.8,1,19.2c-6.2,5.4,7.8,10.4-1,14.8c-4.1,8.4,4.6,17.7,10.8,23.2 c-4.6,3.9-10.8-4-14.9,3.4c-0.6,0.5-1.5,1.6-1.9,3.1c-1.6,6.9,12.6,13,11.2,18.2c-0.4,1.6-2.3,3.6-9.9,4.8 c-1.5,15.8,12.4,27.1,22.7,38.9c-0.8,3.3-0.9,6.3,0.7,7.5c2.9,2.1,9.6-2.7,10.3-1.7c0.4,0.6-1.2,2.7-7.3,8.2 c0,1.7,0.2,5.6,3.1,8.2c4.3,4,13.2,3.8,20.5-2c1.5,1.6,11.3,11.6,25.8,10.9c6.3-0.3,11.2-2.6,14-4.2c3.3-3.6,6.7-7.1,10-10.7 c-1.2,0.2-10.5,1.3-17-5.1c-3.1-3.1-4.3-6.5-4.7-8.4c4.1-0.6,8.2-1.2,12.3-1.8c3.1-3.3,6.2-6.7,9.2-10c-7.6-3.1-15.2-6.3-22.8-9.4 c1.9,0.2,5.2,0.3,8.6-1.2c8.4-3.7,9.6-13.4,9.7-14c-10-6.5-20-13-30-19.5c1.6,0.5,7.3,2,13.5-0.6c9.1-3.9,10.9-13.3,11.1-14.1 c-5.5-1.6-12.4-4.2-19.6-8.5c-10.4-6-17.5-13-22-18.2c1,1.1,6.6,6.8,15.8,7.2c10,0.4,16.3-5.7,17.3-6.7 c-7.2-4.9-14.7-10.5-22.4-16.8c-5.7-4.7-11-9.3-15.8-13.8c0.3,0.5,7.6,10.9,20.3,10.5c10.3-0.4,16.3-7.4,17.2-8.5 c-7.6-3.9-15.1-7.8-22.7-11.8c2.1-2.7,3.7-5.7,2.8-8.2c-1.6-4.4-9.2-3.1-18.6-8.5c-5.5-3.2-13.3-9.6-11.8-14.4 c0.7-2.5,3.8-3.9,6.2-4.7C462.8,100.6,455.4,89.4,448.1,78.3z"/> <path class="st5" d="M364.9,39.6c-1.9,0.6-0.7,7-1.1,17.4c-0.5,11.2-2.8,20.3-4.7,26.4c0.9,4.6,1.7,9.2,2.6,13.8 c-1.9,6.4-3.8,12.8-5.7,19.2c2.1,5.4,10.3,13.8,1,19.2c-8,5.5-9.1,7.9-8.6,9.1c1.1,2.5,10.1,0.9,10.5,2.8c0.2,0.9-1.6,2.1-2.9,2.9 c-4.1,8.4,4.6,17.7,10.8,23.1c-5.2-2.6-10.4-1.8-12,0.5c-1.6,2.5,0.2,8.3,6.4,11.3c-9.2-1-12,0.2-12.7,1.7 c-1.2,2.7,4.5,5.8,6.2,11.8c1.9,6.6-2.1,13.5-6.4,18.9c3.2,2,6.5,4.1,9.9,6.3c3.9,2.6,7.6,5.2,11,7.8c-3.9,2.9-7.8,5.9-11.7,8.8 c0.3,1.6,1.9,7.9,8,11.8c6.5,4.1,15.7,3.7,22.9-1.1c-7,8.1-10.3,15.9-8.1,18.2c2.3,2.4,11.2-0.2,21-7.3 c4.3,3.4,13.2,9.5,25.8,10.9c4.4,0.5,8.4,0.4,11.7,0c4.3-3.5,8.6-7.1,12.9-10.6c-4.7-1.6-9.4-3.1-14.1-4.7 c-0.7-2.8-1.4-5.5-2.1-8.3c8.8-2.1,18.1-5.1,18.1-8.8c0-2.3-3.7-3.6-7.3-6.1c-5-3.5-10.6-10-13.4-23.2c4.4-1.1,8.9-2.2,13.3-3.2 c-6.9-6.3-13.7-12.6-20.6-18.9c3.7,2.8,8.8,3.2,12.9,1.1c4.3-2.2,6.8-6.8,6.1-11.5c-10.3-4-17.8-9-23.1-13.3 c-6.6-5.4-13-12.4-11.7-14.2c1-1.3,5,1.4,11.5,0.8c4.9-0.4,8.7-2.5,11.2-4.3c-7-4.5-14.6-10-22.4-16.8c-5.5-4.8-10.4-9.5-14.6-14 c1.6,1.9,8,8.9,19.1,10.7c12.9,2.1,22.4-4.3,24.1-5.5c-32-14.4-47.1-24.9-45.5-31.5c0.6-2.3,3.2-4.2,7.9-5.6 c-6.2-6.3-12.3-12.6-18.5-18.8C371.1,43.4,366.7,39,364.9,39.6z"/> <path class="st6" d="M363.7,36.5c2.7,6.6,5.3,14,7.5,22.2c2.9,10.7,4.6,20.5,5.5,29.2c-3.3,3.2-6.6,6.4-10,9.6 c4.5-1.3,6.2-0.6,7,0.2c4.4,4.5-12.4,22.1-6.4,30.6c1.8,2.5,4.8,3,5.3,6.2c0.5,3.2-2.2,4.2-3.3,8.5c-1.7,6.1,2.5,8.9,1.3,14.1 c-0.6,2.6-2.5,6-8.9,9.5c4.4,3.6,10.3-3.6,14.3,3.1c-0.6,0.9-7.5,11.2-2.8,19.7c0.7,1.2,1.7,2.6,3.3,3.9 c-0.7,9.3-3.7,15.2-6.6,18.9c-6.6,8.7-13.6,7.9-18.3,16.6c-0.9,1.7-3.3,5.9-7.7,7.7c-0.8,0.3-1.6,0.5-2.7,0.4 c-4.1,3.3-8.2,6.5-12.3,9.8c-6.7,7.9-16.3,11.9-24.7,9.8c-8.6-2.1-15.9-10.3-14.5-14.6c0.6-1.9,3.3-4,6.7-6.7 c1-0.8,1.9-1.4,2.5-1.8c0-0.1-0.1-0.3-0.3-0.4c-3.4-5.5-15.4-2.3-16.7-5.3c-0.7-1.6,2-4.6,4.2-5.9c8.8-5.3,4.9-15.1,12.8-20.9 c-4.2-1-8.4-2-12.6-3c6.5-5.7,13-11.3,19.5-17c-0.5,0-4.4,0-5.4,0c-3.8-3.3-7.6-6.6-11.3-9.9c6.3-2.9,13.3-6.7,20.7-11.5 c10.1-6.6,18.3-13.5,24.6-19.6c0-0.9,0-1.8,0-2.7c-1.6,2.1-5.9,7-13.5,9.5c-4.8,1.6-8.9,1.5-11.5,1.3c-5.8-1.9-11.7-3.8-17.5-5.7 c8.1-2.8,18.5-7.2,28.7-14c8.7-5.8,12.5-10.6,15.6-14.2c1.6-1.8,2.8-3.8,3.6-5.9c-14.7,13.4-31,24.1-50.6,24.1 c-1.5-1.8-3-3.7-4.6-5.5c5.1-3.1,10.2-6.1,15.4-9.2c27.5-10.2,52.1-37.4,54.6-63.7C355.9,52.4,363.2,36.9,363.7,36.5z"/> <path class="st3" d="M289.8,95c-2.2,3.1-4.5,6.9-6.3,11.4c-6,14.5-4.6,28-3.1,35.2c-0.8,3.6-1.6,7.2-2.4,10.8 c1.5,1.4,3,2.8,4.5,4.2c-3.2,4.8-6.4,9.5-9.6,14.3c1.2,1,8.8,7.2,8.8,17.1c0,4.8-1.8,8.5-3,10.5c-1.3,6.1-2.7,12.3-4,18.4 c2.3,2.7,4.6,5.3,6.9,8c-2.4,6.2-4.7,12.5-7.1,18.7c2.2,5.1,4.4,10.2,6.6,15.3c-2.3,4.4-4.7,8.8-7,13.1 c-2.7,9.5-5.5,18.9-8.2,28.4c2.8,6.3,5.5,12.7,8.3,19c1.4,5.7,6.3,9.9,12,10.6c7.3,0.8,12.1-4.4,12.5-4.9 c1.8,2.4,5.2,6.1,10.6,8.4c15.5,6.5,34.7-4.2,34.3-8.4c-0.2-1.8-4.3-4.9-4.1-5.1c0,0,0,0,0,0c0,0,0.2-0.2,0.3-0.5 c0.1-0.3-5.8-3.1-6.8-3.6c9.5-0.9,18.9-1.8,28.4-2.7c-3.4-2.6-7.3-6.3-11.1-11c-6.2-7.9-9.3-15.7-10.9-21c4.1-0.5,8.2-1,12.3-1.5 c-6-7.5-12-15.1-18.1-22.6c5.1-1.4,10.2-2.9,15.3-4.3c-5.8-5.5-12.4-12.6-18.6-21.5c-3.8-5.4-6.9-10.6-9.3-15.4 c8.2,1.8,16.5,3.7,24.7,5.5c-7.3-5.3-16.9-13.4-25.8-25.2c-7.6-10-11.6-18.6-10.8-19.2c0.9-0.6,5.8,9.5,15.8,13.1 c8.6,3,17.7,0,23.7-2.8c-6.1-3.6-12.5-8.1-18.8-13.8c-26.5-24-34.3-54.2-37-69.4C291.8,100.9,290.8,98,289.8,95z"/> <path class="st4" d="M287,81c2.3,5.2,5,13,5.8,22.9c0.6,8.2-0.3,15.1-1.4,20.1c1.5,3.2,3.1,6.5,4.6,9.7 c-4.2,5.6-8.3,11.2-12.5,16.8c3.4,2.5,6.8,5,10.1,7.5c-0.9,5.9-1.9,11.7-2.8,17.6c-3.4,4.7-6.7,9.5-10.1,14.2 c3.2,0.6,6.5,1.2,9.7,1.8c-2.6,5.7-5.2,11.5-7.8,17.2c2.2,2.4,4.3,4.7,6.5,7.1c-2.2,5.3-4.3,10.7-6.5,16c4.4-1.2,7.3-1.1,8.8,0.3 c3,3-0.4,11.8-10.1,26.5c4.4,0.8,8.8,1.6,13.2,2.3c-1.3,8.8-2.6,17.6-3.9,26.4c-2.9,0.9-5.8,1.8-8.8,2.7 c-0.8,4.7-1.5,9.4-2.3,14.1c-2.8-0.9-5.5-1.8-8.3-2.7c4.8,11.2,4.1,14.8,2.5,16c-3,2.3-9.8-4.1-15.6-1.2c-3.8,1.9-2.5,5.4-6.3,8.6 c-7.2,6.3-21.3,1.9-24.4,0.9c-7.8-2.5-13.4-6.9-17.1-10.6c7.3-3.5,14.7-7,22-10.5c-15.1-2.7-18.8-4.8-18.8-6.3 c0-2,6.7-2.2,8.5-6.3c1.6-3.7-1.4-8.6-4.8-12.6c5-3.4,10.1-6.8,15.1-10.2c-4.3-3.5-8.5-7.1-12.8-10.6c6.1-3.8,12.2-7.5,18.3-11.3 c-1.9,0-6.7-0.2-11.4-3.3c-6.4-4.1-8-10.5-8.3-11.9c6.3-0.5,15-2.3,22.8-8.1c5-3.7,9.6-9,8.5-10.6c-1.2-1.7-7.7,3-15.2,1.6 c-6.8-1.2-11.4-6.9-14.3-11.6c2.8,0.3,7.9,0.5,13.4-1.8c11.4-4.6,15.1-15.4,15.7-17.2c-1.2,1.2-6.6,6.2-15.2,6.6 c-9.3,0.5-15.5-4.8-16.6-5.7c5.3-2.3,10.6-4.6,15.9-6.9c8.8-7.4,19.1-17.8,28-32c3-4.8,9.5-10.6,7.5-13.9c-1.3-2.1-5.3-2.3-8.4-2 c5.3-5.5,12.1-13.5,17.8-24.5C282.8,96.6,285.5,87.8,287,81z"/> <path class="st6" d="M448.1,78.3c2.7,6.6,5.3,14,7.5,22.2c2.9,10.7,4.6,20.5,5.5,29.2c-3.3,3.2-6.6,6.4-10,9.6 c4.5-1.3,6.2-0.6,7,0.2c4.4,4.5-12.4,22.1-6.4,30.6c1.8,2.5,4.8,3,5.3,6.2c0.5,3.2-2.2,4.2-3.3,8.5c-1.7,6.1,2.5,8.9,1.3,14.1 c-0.6,2.6-2.5,6-8.9,9.5c4.4,3.6,10.3-3.6,14.3,3.1c-0.6,0.9-7.5,11.2-2.8,19.7c0.7,1.2,1.7,2.6,3.3,3.9 c-0.7,9.3-3.7,15.2-6.6,18.9c-6.6,8.7-13.6,7.9-18.3,16.6c-0.9,1.7-3.3,5.9-7.7,7.7c-0.8,0.3-1.6,0.5-2.7,0.4 c-4.1,3.3-8.2,6.5-12.3,9.8c-6.7,7.9-16.3,11.9-24.7,9.8c-8.6-2.1-15.9-10.3-14.5-14.6c0.6-1.9,3.3-4,6.7-6.7 c1-0.8,1.9-1.4,2.5-1.8c0-0.1-0.1-0.3-0.3-0.4c-3.4-5.5-15.4-2.3-16.7-5.3c-0.7-1.6,2-4.6,4.2-5.9c8.8-5.3,4.9-15.1,12.8-20.9 c-4.2-1-8.4-2-12.6-3c6.5-5.7,13-11.3,19.5-17c-0.5,0-4.4,0-5.4,0c-3.8-3.3-7.6-6.6-11.3-9.9c6.3-2.9,13.3-6.7,20.7-11.5 c10.1-6.6,18.3-13.5,24.6-19.6c0-0.9,0-1.8,0-2.7c-1.6,2.1-5.9,7-13.5,9.5c-4.8,1.6-8.9,1.5-11.5,1.3c-5.8-1.9-11.7-3.8-17.5-5.7 c8.1-2.8,18.5-7.2,28.7-14c8.7-5.8,12.5-10.6,15.6-14.2c1.6-1.8,2.8-3.8,3.6-5.9c-14.7,13.4-31,24.1-50.6,24.1 c-1.5-1.8-3-3.7-4.6-5.5c5.1-3.1,10.2-6.1,15.4-9.2c27.5-10.2,52.1-37.4,54.6-63.7C440.3,94.2,447.6,78.7,448.1,78.3z"/> <path class="st3" d="M397.5,99.8c-2.2,3.1-4.5,6.9-6.3,11.4c-6,14.5-4.6,28-3.1,35.2c-0.8,3.6-1.6,7.2-2.4,10.8 c1.5,1.4,3,2.8,4.5,4.2c-3.2,4.8-6.4,9.5-9.6,14.3c1.2,1,8.8,7.2,8.8,17.1c0,4.8-1.8,8.5-3,10.5c-1.3,6.1-2.7,12.3-4,18.4 c2.3,2.7,4.6,5.3,6.9,8c-2.4,6.2-4.7,12.5-7.1,18.7c2.2,5.1,4.4,10.2,6.6,15.3c-2.3,4.4-4.7,8.8-7,13.1 c-2.7,9.5-5.5,18.9-8.2,28.4c2.8,6.3,5.5,12.7,8.3,19c9.9,1.7,19.8,3.5,29.7,5.2c0.6,1.8,4.7,12.7,16.5,17.3 c11,4.3,24.2,1.4,33.2-7.5c-3.3-3.1-6.7-6.2-10-9.3c-3.6-3.8-4.3-4.9-4.1-5.1c0,0,0.2-0.2,0.3-0.5c0-0.1,0-0.2,0-0.3 c7.2-2,14.4-4,21.5-6c-3.4-2.6-7.3-6.3-11.1-11c-6.2-7.9-9.3-15.7-10.9-21c4.1-0.5,8.2-1,12.3-1.5c-6-7.5-12-15.1-18.1-22.6 c5.1-1.4,10.2-2.9,15.3-4.3c-5.8-5.5-12.4-12.6-18.6-21.5c-3.8-5.4-6.9-10.6-9.3-15.4c8.2,1.8,16.5,3.7,24.7,5.5 c-7.3-5.3-16.9-13.4-25.8-25.2c-7.6-10-11.6-18.6-10.8-19.2c0.9-0.6,5.8,9.5,15.8,13.1c8.6,3,17.7,0,23.7-2.8 c-6.1-3.6-12.5-8.1-18.8-13.8c-26.5-24-34.3-54.2-37-69.4C399.4,105.8,398.4,102.8,397.5,99.8z"/> <path class="st7" d="M397.5,99.8c1.1,5.8,1.9,13.3,1.3,22c-0.4,6.6-1.5,12.5-2.8,17.2c0.9,1,4.8,5.6,4.2,11.9 c-0.3,2.7-1.3,4.8-2.1,6.1c-1.6,4-3.2,7.9-4.8,11.9c0.6,3.3,1.2,6.6,1.8,9.9c0.2,5.5,0.4,11.1,0.6,16.6 c-9.6,5.9-11.7,9.5-11.1,11.8c1.3,5.2,16.2,4.4,17.3,9.5c0.6,3-3.9,6.5-8.9,9.5c-0.5,1.6-1.4,5.1-0.5,9.3c1,4.7,3.7,7.6,4.9,8.8 c-2.9,6.4-5.8,12.9-8.8,19.3c2.6,1.8,6.6,5,9.9,10.2c2.4,3.8,3.7,7.4,4.4,10c-2.5,4.3-5,8.6-7.5,13c3.9,3.9,7.9,7.9,11.8,11.8 c-9.3-1.4-14.2-1.4-14.8,0c-0.7,2,6.9,6.7,22.8,14.1c-1.3,2.2-2.6,4.5-3.8,6.7c2.2,3.5,4.3,7,6.5,10.5c-12.7,1.1-22-1-28.5-3.3 c-9.4-3.4-14.4-7.9-21.7-6.2c-5.8,1.4-7.2,5.4-12.5,9.3c-5.4,4-14.8,7.8-32.3,5.3c14.2-15,17.1-19.8,16.1-20.8 c-1-1.1-5.8,3.2-12.9,3.5c-7.6,0.3-14.3-4.1-19.4-8.8c4.5-2.8,8.9-5.6,13.4-8.4c2.3-3.8,4.6-7.7,6.9-11.5c1-2,1.9-4,2.9-5.9 c0-0.4-0.5-0.4-0.5-0.9c-13-1.2-16.2-3.1-16.4-4.8c-0.3-2.2,4.5-3.7,9.4-7.8c6.5-5.4,9.8-12.2,11.5-17.7 c-4.2-1.5-8.3-2.9-12.5-4.4c5.1-5.7,10.2-11.3,15.3-17c-4.7-1.8-9.3-3.7-14-5.5c4.5-3.7,10.8-9,17.9-15.9 c8.3-8.1,11.5-12.4,11.1-12.8c-0.5-0.5-6.1,6.9-14.9,8.2c-5.8,0.9-11.2-1.1-15.4-3.4c2.9-1,6.9-2.7,11.5-5.3 c13.1-7.4,23.2-18.2,21.7-20.3c-0.9-1.3-5,1.9-11.5,0.9c-5.1-0.8-8.9-3.7-11.6-6.3c9.8-7.6,20.9-17.4,31.9-29.9 c2-2.2,9.5-10.9,18-23.6C386.6,119.4,392.1,110.5,397.5,99.8z"/> </g> <path class="st8" d="M466.3,348.2c49.9-5.3,71.8,2.1,97.4,40.6c23.1,24.6,27.1,108.4,11.3,137.2c-42.6,24.6-88.8-10.7-130.2-19.2 c-49.9-20.3-108.3-12.8-157-34.2c-1.2-17.1-51.1-27.8-18.2-48.1C336.4,424.5,406.7,369.6,466.3,348.2z"/> <path class="st9" d="M115.7,343c63.4-10.1,83.6,53.2,164.5,63c62.8,7.7,79.9-26.8,173.8-23c33.2,1.3,60.1,6.8,77.7,11.2 c20.1,2.6,38.1,12.4,42.7,26.8c6.7,20.7-13.4,54.7-55.2,64c83.5,96.1,81.3,204.2,39.5,237c-32.9,25.8-99.5,12-158.8-29 c-23.4-0.6-59.1,0.2-101.6,8c-75,13.8-103.3,37.2-162.8,39c-24.9,0.8-61-2-105.5-20c-33-74.3-27.6-120.1-14.8-149 c11.1-25.1,33.5-50.2,25.4-78.9C36,476,23.7,465.3,13.9,458.7c-16.1-11.8,6.3-48.3,28.8-70.4C58.3,370.2,82.7,348.2,115.7,343z"/> <path class="st10" d="M301.8,561.1c47.6,4.3,93.8,36.9,142.8,21.7c33.6,10.9,78.4-17.4,103.6,32.5c7,62.9-44.8,43.4-64.4,69.4 c-50.4,34.7-22,58.4-152.6,32.7c-5.8-1.1-37.1,1.7-41.3,1.7c-49-4.3-96.3,8.2-146.7,1.7c-30.8-13-94.7,20.5-128-42.8 c-42.1-80,115.9-104,150.9-104c43.4,2.2,88.2-10.9,133-10.9C300.4,563.3,300.4,561.1,301.8,561.1z"/> <path class="st11" d="M161.9,514.6c82.4-6.4,149.6,21.2,215.4,54.2c35.5,13.8,73.5,19.1,111.5,25.5c3.8,3.2,10.1,17,10.1,22.3 c-8.9,11.7-24.1,6.4-36.8,7.4c-71-8.5-140.7-19.1-212.9-6.4c-48.2,4.2-93.8,13.8-143.2,14.9c-38-10.6-60.8-45.7-43.1-75.4 c-7.6-34,44.4-36.1,71-39.3C137.8,513.5,156.8,519.9,161.9,514.6z"/> <path class="st12" d="M437.2,622.5c19-4.4,22.5-9.9,36.4-12.1c29.7-4.9,61.9,11.9,61.1,21.1c-0.4,4-7.1,8.7-33.7,12.7 c-23.3,10.9-35.4,16.6-35.4,16.6l0,0c0,0-19.8,6.5-25.3,8.2c-11,3.4-27.6,6.7-51,6c-10.7,2.2-26.9,4.5-46.5,3 c-19.6-1.5-58.8-8-59.9-20.4c-1.1-12,34.6-25.6,58.4-30.6c22.5-4.8,41.9-3.5,54.5-1.7C405.2,626.2,420,626.5,437.2,622.5z"/> <path class="st12" d="M471.5,412.2c41.3,9.1,77.7,34.5,82.6,59c46.3,27.2-59.5,69.9-94.2,39.9c-29.8-9.1-66.1-22.7-84.3-37.2 c0-0.9-1.7-2.7-1.7-3.6c-13.2,7.3-39.7,5.4-44.6-5.4c5-23.6,57.9-28.1,86-39C435.2,421.3,453.3,417.7,471.5,412.2z"/> <g> <path class="st13" d="M410.3,401.5c-5.7,1.8-4.2,5.1,0.2,9c2.3,2.1,6.5,4.7,8.5,0.8C417.5,407,413.9,405.9,410.3,401.5z"/> <path class="st14" d="M410,395.3c-8.9-0.7-2.9,13.5,3.4,9.2c3.6-2.4,2.3-9.7-2.3-8.4C410.7,395.8,410.5,395.5,410,395.3z"/> <path class="st15" d="M415.4,396.7c0,0-1.5,4.8-3.3,4.7c-1.8-0.2-4.7-1.1-5-4c-0.3-2.9,1.5-4.5,1.5-4.5l-1.3-0.4 c0,0-2.1,4-1.6,5.1c0.5,1.1,3,5.3,4.6,6.4c1.7,1,3.6,1,4,0.4c0.3-0.6,3.9-7.8,3.9-7.8H415.4z"/> <linearGradient id="SVGID_1_" gradientUnits="userSpaceOnUse" x1="444.7654" y1="535.6689" x2="444.7654" y2="515.5198" gradientTransform="matrix(-1 0 0 1 899.7762 0)"> <stop offset="7.692308e-02" style="stop-color:#764500"/> <stop offset="0.2306" style="stop-color:#7D4E02"/> <stop offset="0.5491" style="stop-color:#8E631C"/> <stop offset="1" style="stop-color:#947F3A"/> </linearGradient> <path class="st16" d="M419.5,523.7c48.9-0.5,90.5,1.7,90.5,1.7c12.7,1,22.3-0.3,28.2-1.5c11.2-2.3,16.9-3.4,22.3-6.7 c1-0.6,3.4-2.1,4-1.5c0.8,0.8-2.2,5.3-5.1,8.1c-2.2,2.1-6.8,5.9-15.4,7.1c-9.6,0.7-24.2,1.5-42,1.5c-18.8,0-21.6-0.9-37-1 c-29.6-0.3-37.2,3.2-70.5,4c-19.4,0.5-35.2,0.3-45.5,0c-1.2-1.1-4.3-4-3.5-6c0.7-1.7,4.1-1.8,5.5-1.9c15.2-0.5,30.3-3.3,45.5-3.2 C407.5,524.3,403.7,523.8,419.5,523.7z"/> <path class="st17" d="M447.7,556.9l11.5-186.7c0,0-1.8-3.3-2.3-0.7c-0.5,2.5-10.6,187.2-10.6,187.2L447.7,556.9z"/> <path class="st18" d="M399,433.1c-7.8,4.1-7.2,13.2-9.6,20.2c-2.6,9.8,9,16.3,4.9,26.4c-1.3,12.4-3.6,26.9,4.9,37.5 c4.9,2.1,10.3,0.5,15.8,1.3c6.5-5.4,1.3-15.8,1.3-23c-1.3-13.2-0.3-27.2-5.9-39C407.6,448.3,406,439.5,399,433.1z"/> <path class="st18" d="M382.5,429.5c-7.5,0.5-20.2-2.6-21.5,8c0.5,10.9,1,24-10.6,29.7c-5.4,3.6-2.6,14-10.9,13.7 c-8.3,1.8-14.7,9.3-22,14.7c-2.8,5.7-12.2,11.4-6.7,18.1c3.9,7.5,12.7,9.6,18.9,5.2c13.2-6.5,26.6-12.2,37-25.3 c3.6-8,10.6-15,14-23.3c6.2-8.3,8.8-17.8,15.2-25.9c1.6-3.9,7.5-11.6,1-14C392.1,430.2,387.2,430.2,382.5,429.5z"/> <path class="st19" d="M402.5,468.2c-3.6,0.3-9,4.4-8.8,8.5c-2.3,3.4,1,7.8-1.8,10.9c0.5,4.9,2.8,9.8,1.8,14.7 c2.3,4.1,8.5,12.4,13.2,5.4c-1.8-3.1,3.9-4.9,0.2-7.2c-0.2-0.3-0.5-0.8-0.8-1c4.4-1.8-0.5-6.5,2.6-8.8c-2.6-3.6-0.8-9.3,1.5-12.7 C410.3,473.9,404.9,471.3,402.5,468.2z"/> <path class="st20" d="M392.1,425.4c0,0,23.1,38.8,21.8,48.2c-1.3,9.4,1.8,32.8,2.6,40.5c0.8,7.7-13.9,3-18.3-1.3 c-4.4-4.3-5.6-35.2-1.4-40.1c4.2-4.9,9.9-6.1,7-5.8c-2.9,0.4-8.7-1.1-8.7-1.1l-4.4-7l-3,4.2l6.2,6.5c0,0-2,9.7-2.5,15.1 c-0.5,5.4,0.5,23.2,4,28.6c3.4,5.4,4.1,6.3,9,7.8c4.9,1.6,15.6-0.8,15.8-3.7c0.2-2.9-5.3-32.8-2.3-46.3 c3-13.5-25.3-49.2-25.3-49.2L392.1,425.4z"/> <path class="st19" d="M371.5,429.5c-4.8,2.4-12.7,6.4-9.8,11.4c1.4,7.1-1.3,10-0.8,16.8c-2.2,5.2-15.2,11.5-14.5,17.8 c-7.4,1.6,5.1,9.1,9.4,5.1c5-1.1,4.8-8.4,9.9-9.7c4.3-0.3,0.7-6.6,5.3-6c0.2-4.5,6-1.8,5.3-6.6c2.9-1.8,1.2-6.6,5.3-6.3 c1.7-2.9,6.7-6.6,2.4-9.7c-4.1-3.1-10.3-5.5-11.3-11.8C372.2,430.2,372,429.7,371.5,429.5z"/> <path class="st19" d="M343.3,481.9c-3.1,2.6-7-0.8-10.1,2.1c-7.8,2.6-12.7,11.4-19.7,16.5c-8,5.2,1.3,19.4,8.8,14.5 c5.7,1.3,1.8-7.5,8-5.7c4.7-2.3,11.4-4.4,13.2-9.6c2.8-3.1,6.5-2.3,8.8-6.5c6.2-5.4-5.7-7.5-8.3-10.9 C343.9,482.2,343.6,482.2,343.3,481.9z"/> <path class="st20" d="M363.1,425.5c0,0-7.6,17-2.8,22.4c4.8,5.4-8.1,18.6-12.4,20.8c-4.3,2.2-5.9,9.7-5.9,9.7s-19.1,7.1-24.8,16.1 c-5.7,8.9-12.9,12.4-9.2,18.4c3.8,6,13.9,11,16.7,11.9c2.8,0.9,28.9-15.1,35.5-23.1c6.6-8,32.9-43,36.1-54.5 c3.2-11.5,7.2-17.5,4.9-17.9c-2.4-0.4-3.8,1.4-3.8,1.4s-3.3,12.5-3.8,15.2c-0.5,2.7-33.5,51.4-38.7,55.4 c-5.2,4-24.6,19.9-29.8,19.5c-5.2-0.4-12.9-8.8-12.9-11c0-2.2,9.7-16.6,14-19.3c4.3-2.7,14.2-8.2,19.4-7.8 c5.2,0.4,8.8,2.7,10.2,0.9c1.4-1.8-6.2-4.6-8.6-4.6c-2.4,0,1-6.9,4.9-8.7c3.8-1.8,13.3-12.8,11.8-21.3c-1.4-8.5,0-20.1,2.4-21 C368.8,426.8,363.1,425.5,363.1,425.5z"/> <path class="st21" d="M461,356c0,0,0.8-3-0.6-3.4c-1.4-0.4-5.2-2-5.8-0.2c-0.6,1.8,1.9,5.5,0.2,6.2c-1.7,0.7-3.2,3-1.5,4.3 c1.7,1.4,2.5,4.4,0.9,4.8c-1.6,0.4-2.6,2-1.8,3.3c0.8,1.3,2,3.1,0.7,3.6c-1.3,0.5-2,3.2-1.1,3.8c0.9,0.6,7.6,1.7,7.9,0.6 C460.3,377.9,461,356,461,356z"/> <path class="st22" d="M364.6,357.4c-5.5,0.3-9.5,6.4-14.7,8c-6,5.9-17.1,10.4-18.1,20.1c-1.6,8.3-1.8,18.5,0,27.1 c3.4,3.8,8.7,1.9,13.1,2.4c6.6-3.2,4.2-11.8,7.6-16.9c2.4-4-3.7-8.3,1-11.5c0.5-0.5,1-1.1,1.6-1.6c-0.1,5.4-0.5,13.9-2.1,24.1 c-2,13.2-4.5,20.9-1.1,23.7c2.5,2.1,7.1,0.5,10.3-0.9c4.9,1.3,10.5,2.5,16.8,3.2c11.3,1.2,21.2,0.5,28.8-0.8 c-1.1-8-1.8-17-1.8-26.8c0-5.8,0.2-11.4,0.6-16.5c2.7,1.5,6.1,3,10.1,4.2c7.2,2.1,13.6,2.2,18,1.9c2.5-2.3,5.1-4.8,7.6-7.4 c4.8-4.9,9-9.7,12.7-14.4c-0.4-1.8-1.2-4.1-2.6-6.6c-2.3-3.9-5.2-6.3-7-7.5c-3.4,2.4-7.5,5.1-12.6,7.4c-3.3,1.5-6.4,2.7-9.2,3.6 c-12.1-7.8-25.7-9.9-40.4-9.9C376.6,361.1,370.3,360.3,364.6,357.4z"/> <path class="st23" d="M362.2,367.9c-3.8,2.8-4.6,5.2-4.7,7c-0.1,4.9,6.1,6.6,6.5,12.5c0.3,4.2-2.8,5.3-2,8.5 c1.5,5.8,13.2,7.1,13,8c-0.1,0.4-3.1,0.4-14.4-1.1c-0.4,0.7-1.8,3.4-0.9,6.1c1.3,3.4,6.1,5.7,11.4,4.2c-5.4-1.6-10.8,0.6-12.9,4.7 c-2.1,4.2,0,8.6,0.3,9.1c8-4.7,12.9-4.5,15.9-3.2c3.4,1.4,4.2,3.8,8,5.8c5,2.6,10.5,2,14.5,1c3.2-4.4,3.2-6.5,2.6-7.5 c-1.3-2.3-5.7-0.8-10.5-2.7c-4.6-1.8-7.4-5.8-9-8.9c5.3,0,10.5,0,15.8,0c2.6-1.4,4.3-3.9,4.2-6.5c-0.1-3.6-3.5-7-8-7 c-3.7-1.8-7.3-3.7-11-5.5c2.8-1.8,5.7-3.7,8.5-5.5c0.5-2.6,0.9-5.2,1.4-7.9c-5.4-4.1-12.9-2.1-18.9-5.7 C368.4,372.8,365.3,370.5,362.2,367.9z"/> <path class="st24" d="M358,411.2c-0.5,0-2.6,1-3.4,1.3c0.8,4,9.9,2.7,14.3,3.7c7.3,0.7,14.5,1.2,22.1,1.2 c5.5-0.3,10.4-1.7,15.6-2.7c0.3-0.7,0.5-1.2,0.5-1.9c-4.7-2.7-10.4,1.2-15.6,1C380.1,413.9,368.4,413.4,358,411.2z"/> <path class="st24" d="M355.2,417.2c-0.6,0-2.8,1.2-3.6,1.5c0.8,4.7,10.6,3.1,15.3,4.3c7.8,0.8,15.6,1.4,23.6,1.4 c5.8-0.4,11.1-1.9,16.7-3.1c0.3-0.8,0.6-1.3,0.6-2.1c-5-3.1-11.1,1.3-16.7,1.2C378.8,420.3,366.3,419.7,355.2,417.2z"/> <path class="st23" d="M348,374.9c-0.7,0.1-5.3,1.1-8,5.5c-2.1,3.5-1.7,7-1.5,8c-4.7,9.1-5.6,17.5-1.8,21.4c1.9,1.9,5.1,3,6,2 c1.7-1.6-4.4-8.5-2.3-11.5c1.1-1.6,4.1-1.4,6.5-1c3.3-2.4,3.8-3.5,3.6-4.1c-0.6-1.5-5.9,0.3-8.2-2.4c-1.1-1.3-1.1-3.1-0.9-4.4 c5.9-0.8,9.7-4.8,9.5-8.5C350.9,377.3,348.8,375.5,348,374.9z"/> <path class="st23" d="M402.3,373.6c-4.1,0.8-12.4,5.9-6.7,10.9c2.2-0.5,5.9-1.1,10.5-0.1c3.3,0.7,5.8,1.9,7.4,2.9 c3.1,1.4,6.6,2.8,10.6,4.1c2.9,0.9,5.7,1.6,8.2,2.1c0.5-0.6,1.6-2.1,1.4-3.8c-0.3-2.6-3.4-5-7.7-4.8c-1.4-2-4.5-5.8-9.9-8.5 C410.1,373.4,404.7,373.5,402.3,373.6z"/> <path class="st25" d="M447.5,365c0,0,5.5-9.6,11-9.6c5.5,0,8.8,7.1,7.4,8.8c-1.4,1.6-4.1,2.5-5.5,2.7c-1.4,0.3-2.2,4.1-3.8,4.1 C454.9,371,448.1,364,447.5,365z"/> <path class="st23" d="M441.9,367.7c-4.8-0.1-8.3,3.5-12.8,4.1c-3.4,0.4-1.7,5.3,1,5.2c3.6,0.9,6.6,3.9,9.6,6.6 c2.6,1.3,3.1-2.3,5.2-2.2c4.1-3,6.9-9.8,1.3-12.7C445.1,367.8,443.4,368.2,441.9,367.7z"/> <path class="st24" d="M400,366.7c0,0-13.1-11.2-23.7-9.9c-10.6,1.4-10,3.7-12.2,4.4c-3.6,1.1-6,2.4-7.2,2.7 c-1.5,0.4-2.5,1-10.7,8.2c-6.2,5.5-9.4,8.3-10.1,9.7c-1.8,3.5-0.7,4.4-2,13.5c-1.4,9.8-3.1,12-1.4,14.5c0.8,1.2,3.4,4,12.9,3 c8-12.9,8.8-18.2,7-20c-2.4-2.5-10,0.6-10.1-0.1c-0.1-0.5,5.8-1,10.1-5.4c3.3-3.4,4.8-8.4,6.2-8c0.2,0.1,0.4,0.3,0.5,0.4 c2.2,3.4-4.1,30.5-4.5,32.6c-3.1,13.4-2.4,16.6-0.6,18c2,1.6,4.3-0.1,9.7-0.6c10-0.9,12.4,4.1,22.3,4.6c2.9,0.1,14.2,0.7,19.2-6 c3.6-4.8,2.7-11.4,1.5-19.9c-1.4-10.5-4.2-12.7-2.5-15.2c3.9-5.7,19.6,6.8,34.4-1.9c6.4-3.7,15.8-12.7,15.8-17.1 c0-4.4-7.9-9.6-11.6-7.6c-3.6,2-15.7,4.7-16,7c-0.3,2.4,9.3,10,7.5,11c-1.8,1-10-8.1-11.8-8.4c-1.8-0.3-10.1-5.9-13.3-7.6 c-3.2-1.7-6.6-0.2-6.6-1.9c0-1.7,1.2-1.7,4.3-1.7c3,0,16.8,7.4,18.1,6.7c1.2-0.7,14.3-7.2,18.2-7.9c5.7-1,12.4,4.1,13.6,9.3 c1.4,5.8-4.3,11.3-9.8,16.8c-5.2,5.1-7.8,7.6-12,8.5c-9.1,1.9-17.3-5.4-23.9-2.4c-0.6,0.3-2.3,1.2-4.6,1.1 c-2.4-0.1-4.3-1.3-5.5-2.2c1,2.5,2.3,6.3,3,11c0.8,5.9-0.1,7.6,0.5,12.9c1.1,10.1,5.5,12.1,4,15.6c-3.1,7.1-23.2,5-24.9,4.8 c-11.9-1.3-14.4-5.5-24.5-4.3c-3,0.4-5.6,1.1-7.6-0.5c-1.8-1.5-2.3-4.4-0.7-14c2.2-12.8,5.9-24,6-32.5c0-0.5,0-2.6,0-2.6 c0,0,0,6.1-0.3,9.5c-0.5,5.2-2.7,12.4-10,20.9c-6.7-0.5-13.4-0.9-20-1.4c1.6-4.2,3.7-10.8,4.5-19c1.1-10.4-0.9-12.9,2-17.9 c1.4-2.5,6.3-6.1,16-13.1c1.5-1.1,3.4-2.4,6.1-3.9c1.6-0.9,3.7-3.4,9-3.9c3.3-0.3,9.4-2.2,11.5-3.5c6.1-3.9,12.8,2.8,14.9,4.1 C395.6,360.3,398.5,364.3,400,366.7z"/> <path class="st14" d="M407.5,358.4c-12.5-3.1-27.4,2.8-39.9-2c-9.7,3.5-6.4,16,7.6,17.9c8.1,0.8,17.4,3.7,24.9-1.9 c3.8-3.7,12.3,0.7,12.9-6.6C412.9,363.2,409.6,359.9,407.5,358.4z"/> <g> <path d="M407.2,321.5c0,0,0.4,1.2,0.9,0.7c0.5-0.5,3.8-3.3,1.1-5.7c-2.6-2.3-5.2-3.6-5.6-4.6c-0.4-0.9-3.5-0.5-5.1-0.5 c-1.6,0-0.6,1.5-0.9,2.2c-0.3,0.7-1.4,1.4-2.5,0.8s-2.6,0.8-2.1,1.7c0.6,0.8,1.3,2.6-0.2,2.4c-1.5-0.3-2.3,0.1-2.3,1 c0.1,1,2.3,4.1,2.3,4.1L407.2,321.5z"/> <path class="st26" d="M392.7,324.5c0,0-6.2,1.9-3.4,5.7c2.8,3.8,5.6-0.3,6.1-0.7c0.5-0.4,2.7-0.9,2.7-0.9L392.7,324.5z"/> <path class="st27" d="M401,318c0,0-1.9,2.2-2.8,2.1c-0.9-0.1-2.4-0.8-2.8,0.1c-0.4,0.9,0.6,2-0.2,2.2c-0.7,0.2-2.3,1.2-2.3,1.2 s-0.4,1.9,0.1,2.6c0.5,0.7,4.2,1.7,4.2,1.7s6.4-4.6,6.6-5.9C404.1,320.6,401,318,401,318z"/> <path class="st28" d="M407.2,321.5c0,0-6.7-5.4-6.5-2.9c0.2,2.6,1.3,3.2-0.2,3.7c-1.4,0.4-0.6,1.9-1,2.7c-0.4,0.7-2.1,0.2-2.5,1 c-0.4,0.7-0.5,2.6-2.6-0.6c0,0-1.3-0.6-1,0.8c0.3,1.4,0.9,2.5,2.7,2.8c1.9,0.3,6.3-2.3,9.7-6.2L407.2,321.5z"/> </g> <path class="st29" d="M379,325.9c8.2-2.4,11.9,7.1,17.6,9.3c3.7,2.5-5.8,28-9.3,26.5c-10.8,6.1-24.2-0.9-26.9-2.8 c-5.7-4.8-0.3-15,3-20.3C371.3,325.7,373.7,329.4,379,325.9z"/> <path class="st30" d="M394.3,329.4c0.9,0.4,1.7,3.4-3.4,1.3c-5.1-2.1-1.9-2.9-4.7-3.8c-2.7-0.9-6.4-2-11.5,0.2 c-5,2.2-7.1,4.4-6.4,2.1c0.8-2.3,1.3-8.5,2.8-7.5c1.4,1.1,8.3,0.6,11.4-1.3c3-1.8,8.5-0.6,9.9,1.8c1.5,2.4-0.2,4.3,0.5,5 C393.7,327.9,393.9,329.2,394.3,329.4z"/> <path class="st31" d="M361.9,357c0,0-2.4-16.8,6.2-23.7c8.6-6.9,15.2-6.8,16.9-6.2c1.7,0.7,2,4.3,5.3,4.4c3.3,0.1,0.9,4.6,0.3,6.3 c-0.6,1.7,3.2-0.3,3.2-0.3s3.1-6.1,1.1-6.8c-2-0.8-5.1,0.2-5.1-2.8c-0.1-3-6-1.1-10.2-3.6c-4.2-2.5-13.9,9-15.6,10.9 c-1.6,1.9-9.2,14.7-5.6,21C362,362.4,361.9,357,361.9,357z"/> <path class="st32" d="M367.2,320.1c0.7-0.3,0.9,0.7,1.5,0.9c0.8,0.6,1.8,1,2.9,1.3c0.1,0.1,0.1,0.2,0.2,0.3 c-0.1,0.8-1.2,0.2-1.6,0c-1.1-0.4-2-1-2.8-1.7C367.1,320.7,367,320.3,367.2,320.1z"/> <path class="st32" d="M365.5,321.8c0.8-0.3,0.9,0.6,1.7,0.7c0.9,0.3,2,1.4,3,1.1c0.1,0,0.4,0.2,0.5,0.3c-0.1,0.7-1,0.6-1.6,0.5 c-1.4-0.4-2.8-0.9-3.7-2C365.4,322.3,365.4,322,365.5,321.8z"/> <path class="st32" d="M365.6,324.2c0.7-0.2,0.9,0.5,1.7,0.5c0.9,0.3,2,0.4,2.9,0.5c0.1,0.1,0.1,0.2,0.2,0.3 c-0.1,0.8-1.3,0.3-1.9,0.3c-1.1-0.1-2.2-0.4-2.9-1.1C365.3,324.6,365.6,324.4,365.6,324.2z"/> <path class="st32" d="M365.8,326.8c0.8-0.3,1.8,0.1,2.6-0.3c0.5,0,1.5-0.7,1.7,0.1c-0.3,0.4-1,0.4-1.5,0.6 c-0.8,0.3-1.7,0.1-2.5,0.2C365.7,327.4,365.6,327,365.8,326.8z"/> <g> <path class="st33" d="M401.5,343.8c0,0-2.5-1.5-3.4,0.4c-1,1.9-7.4,5.7-7,6.8c0.3,1.2,5.2,6.2,6.1,6.7c0.9,0.5,6.8-2.6,6.8-2.6 L401.5,343.8z"/> <path d="M415.8,347c0,0,0.8,0.7,1.5-0.6c0.7-1.2,2.5-3.7,1.9-4.5c-0.6-0.8-2.1-4-1.5-5.8c0.6-1.8-3.7-6.5-5.7-7.1 c-2-0.7-1.4,3.1-2.3,2.1c-0.9-1-3.5-2.6-4.6-2.7c-1.1-0.1-5.3-0.9-5.5,0.3c-0.2,1.2,0.3,3-0.8,3.3c-1.1,0.2-4-0.4-4.9,0.2 c-0.8,0.6,0.6,3.8,1.5,4.4c0.9,0.6-2.2,2.1-2.1,3.1c0.1,1,0.2,3.5-0.2,4.2c-0.4,0.7,2.7,2.8,3.2,3.2 C396.9,347.5,415.8,347,415.8,347z"/> <path class="st34" d="M416.3,343.2c0,0-1.5,5.6-2.2,6.7c-0.6,1.1-1.9,5-2.1,5.3c-0.2,0.4-1.9-0.6-1.9-0.6s-2.1,1.5-2.3,1.9 c-0.2,0.4-2.5,0.5-2.8,0.8c-0.4,0.4-6.4-3.3-6.4-5.3c0-2,2.1-3.1,1.7-3.4c-0.4-0.3,0.1-1.9,0.5-3.1c0.4-1.2,2.6-2.8,3.5-2.1 c0.9,0.7,0.2,2.9,0.5,3.3c0.3,0.4,4.1-1.2,4.5-2c0.4-0.8,2.3-2.9,3.3-2.8C413.7,342,416.3,343.2,416.3,343.2z"/> <polygon class="st33" points="411.1,345.4 414.4,349.4 411,348.9 408.4,349.7 408.7,351.1 406.6,353.6 403.9,355.1 404,353.2 405.8,350.6 405.2,348.1 "/> </g> <path class="st32" d="M365.3,328.1c0.7-0.2,1.6,0.2,2.3,0c0.7,0.1,1.2-0.1,1.9-0.1c0.1,0.1,0.1,0.2,0.2,0.3 c-0.1,0.7-1.1,0.4-1.6,0.6c-0.8-0.1-1.4,0.1-2.2-0.1C365.5,329,365,328.4,365.3,328.1z"/> <path class="st31" d="M410.4,318c0,0,1.7-4.8-4.5-7.9c-6.1-3.1-8.7-5.7-10.8-5.7c-2.1-0.1-4.1,1.9-4.1,4.1c0,2.3,0.3,8.4,2.2,9 c1.9,0.6,3.9-2,5.6-2.3c1.7-0.3,5.3-0.7,7.5,0.3C408.6,316.5,410.4,318,410.4,318z"/> <path class="st35" d="M393.2,303.3c0,0,1.7-2.3-1.3-2.9c-3.1-0.7-5.5,1.1-4.9,2.7c0.6,1.6,2.4,3.6,4.1,2.9 C392.7,305.3,393.2,303.3,393.2,303.3z"/> <path class="st29" d="M384.8,328.1c5.9,0.3,5.2,6.8,4,10.4c-1.3,2.7-2.6,6.2-3.8,9.1c0.3,1.9,2.3,1.5,5,3c2,2.5,9.1,4.4,10.9,7 c0.9,3.4-0.1,6.2-3.5,6.3c-3.3-0.2-5.2,5.4-18.4-2.8c-8.6-3.1-8.4-11.5-6.9-17.4c1.9-5,4.4-9.7,8.9-13.7 C381.5,329.1,384.1,328.5,384.8,328.1z"/> <path class="st15" d="M363.7,360c0,0-5,6.2,1.2,11.5c6.2,5.3,30.5,5.6,34.3,2.3c3.8-3.3,10.8-5,8.8-5.7c-1.9-0.7-2.8-0.6-5.2,0.9 c-2.4,1.5-6,5-8.6,5.3c-2.6,0.3-15.5,0.6-22.4-1.7c-6.8-2.3-9.2-3.8-8.5-6.3c0.7-2.5,1.5-5.5,2.8-5.6 C367.5,360.6,363.7,360,363.7,360z"/> <linearGradient id="SVGID_2_" gradientUnits="userSpaceOnUse" x1="518.8158" y1="306.5802" x2="518.8158" y2="320.0456" gradientTransform="matrix(-1 0 0 1 899.7762 0)"> <stop offset="7.692308e-02" style="stop-color:#764500"/> <stop offset="0.3672" style="stop-color:#633800"/> <stop offset="0.9656" style="stop-color:#381700"/> <stop offset="1" style="stop-color:#351400"/> </linearGradient> <path class="st36" d="M372.3,306.6c-1.7-0.2-1.3,2.8-1.1,3.5c-0.5-2.2-4.5-3-2.9-0.2c-4-1.5-0.2,2.8-0.4,3.8 c3.2,2.4,8.1,1.6,11.4,3.7c3.6-0.2,6.1,1.9,9.5,2.3c0.6-0.1,2.9,0.2,3.4,0.3c0.4-0.3,2.6-1.1,3.2-1.1c0.4-2.8-3.5-0.9-3.8-3.6 c-2.5-1.9-5.4-2.2-8.8-1.9c-3-2.4-9.1,1.6-9.6-3.7C373,308.9,372.4,307,372.3,306.6z"/> <path class="st37" d="M374.7,311.5c0.3,0.3,1.8,2.8-0.2,4.1c-2,1.3-2.6-0.1-2.3-1.3C372.4,313.1,374.3,311.1,374.7,311.5z"/> <path class="st15" d="M400.6,356c0,0,10.2,2.7,13,6.3c2.8,3.6,1.3,6.8,0.2,6.9c-1.1,0.1-3.8,0.7-3.8,0.7s3.5-3.6,2.1-5.2 c-1.4-1.6-3.4-5.2-8.5-5.9C398.6,358.1,400.6,356,400.6,356z"/> <path class="st31" d="M387.2,328.3c0,0-5.7-0.4-9.5,5.6c-3.8,6-7.5,14.2-4.5,20.7c3,6.5,17.2,12.9,22.2,9.3c5-3.6,4.3-4,4.1-6 c-0.2-2-13.4-8.5-15.3-7.9c-1.8,0.6-3.8,4.3-4.9,3.6c-1-0.7,3.5-5.5,4.4-6.1c0.9-0.6,4.8-11,4.8-13.8c-0.1-2.8,1.2-2.6,1.6-0.3 c0.5,2.3-3.2,12.7-4.3,13.7c-1.1,1.1,16.1,9,15.9,11.1c-0.3,2.1,3.4,2.4-3.5,7.2c-6.9,4.9-21.1-0.7-25.7-8.4 c-4.6-7.8,0-19.3,5.7-25.5C384,325.1,387.2,328.3,387.2,328.3z"/> <path class="st38" d="M399.4,364.3c1.3,0.3,6.3-0.6,6.9-4.4c0.6-3.8-3.7-4.3-3.7-4.3s-1.7,0.1-1.9,1 C400.4,357.5,399.4,364.3,399.4,364.3z"/> <path class="st39" d="M306.8,510.6c-3.7-2.9-7.7-0.5-8.7,2.4c-0.9,2.9,1.9,4.5,5.6,7.1c3.7,2.6,9.6,14,12.9,14 c3.3,0,14.5,1.4,16.6-0.4c2.1-1.8,0-4.4,0-4.4s-10.5-1.9-11.5-3.3c-0.9-1.5-1.2-3.4-1.2-3.4S308.1,511.7,306.8,510.6z"/> <path class="st39" d="M399.6,520.2c0,0-4.6,3.6-2.7,6.4c1.9,2.9,9,2.9,12.3,1.9c3.3-1,21.3,3.3,22.7-0.5c1.4-3.8-0.9-6.2-3.8-6.2 c-2.8,0-10.7-2.2-10.7-2.2L399.6,520.2z"/> <path class="st40" d="M426,518.9c0,0-7.1,7.1-4.9,11.5h-7.7c0,0,3.8-11.5,7.1-12.6C423.8,516.7,426,518.9,426,518.9z"/> <linearGradient id="SVGID_3_" gradientUnits="userSpaceOnUse" x1="570.281" y1="541.6388" x2="570.281" y2="525.5182" gradientTransform="matrix(-1 0 0 1 899.7762 0)"> <stop offset="7.692308e-02" style="stop-color:#764500"/> <stop offset="0.2306" style="stop-color:#7D4E02"/> <stop offset="0.5491" style="stop-color:#8E631C"/> <stop offset="1" style="stop-color:#947F3A"/> </linearGradient> <path class="st41" d="M214.9,532.5c0,0,146.9,5.5,204.8,1.9c2.9-0.2,12.5-1.7,20.2-7.2c7.7-5.5,3.3,3.8-1.1,6.6 c-4.4,2.7-28.5,6.6-38.3,7.7s-179.5-3.1-182.2-4.7C215.5,535.1,214.9,532.5,214.9,532.5z"/> <path class="st21" d="M450.9,534c1.6-0.1,11.5,0.4,7.3,3.7c-4.2,3.3-16.7,5.5-19.9,0.6c-3.2-4.9,6-4.5,6-4.5s0.9,2.2-0.1,2.3 c-0.9,0.1-4.2,0-3,1.1c1.3,1.1,10.4,1.3,10.5-0.1c0.1-1.5-2-1.1-2-1.1L450.9,534z"/> <path class="st17" d="M227.6,494.4l113.7-76.2c0,0,0.6-3.7-1.2-2.8c-1.8,0.9-113.6,77.8-113.6,77.8L227.6,494.4z"/> <path class="st21" d="M254.7,479.1c1.5,0.9,9.6,7.6,3.4,7.3c-6.1-0.3-18.5-6.7-17.5-12.3c1-5.5,8.6,0.6,8.6,0.6s-0.9,2.1-1.8,1.6 c-0.9-0.5-3.6-2.7-3.4-1.1c0.2,1.6,7.9,7.6,9.1,6.6c1.2-1-0.8-2-0.8-2L254.7,479.1z"/> <path class="st40" d="M328.2,524.8c0,0-17-1.6-18.1,7.1l-0.5,4.9h8.8c0,0,4.4-7.1,12.1-8.2L328.2,524.8z"/> <path class="st25" d="M342.5,416.4c0,0,1.3,6.2-0.9,8c-2.2,1.8-5,1.3-4.7,0.2c0.4-1,0.6-3.1,0.6-3.1s-1.6,1.8-1.6,3.4 c0,1.6,1.8,3,0.8,3.5c-1,0.5-7,0.3-8-1.3c-1-1.6,0.5-12.7,2.3-13.2C333,413.4,342.7,416.9,342.5,416.4z"/> <path class="st42" d="M374.9,363.5c-2.6,0.2-4.7,1.3-7,2.6c-0.2,1-0.2,2.1-0.5,3.1c6.2,2.8,12.9,3.6,19.9,3.6 c4.9-1.6,12.4,0.8,14.7-4.7c-0.5-0.8-1-1.6-1.6-2.3c-7,0.5-14,1.5-20.4-1C379,364.6,375.7,363.8,374.9,363.5z"/> </g> <g> <path class="st43" d="M148.1,111.6c-6.8,10.7-16.4,23.9-30,37.1c-15.9,15.5-31.8,25.9-44.1,32.6c6.8,0.8,13.6,1.6,20.3,2.4 c-13.7,10.6-27.5,21.1-41.2,31.7c20.9,0.4,32,3.3,33.3,8.5c1.7,6.8-13.3,17.7-44.8,32.6c15.2-0.2,30.3-0.4,45.5-0.6 C65.1,268.4,43,281,20.9,293.5c16.5-1.3,32.9-2.6,49.4-3.9c-19.3,14-38.7,27.9-58,41.9c19.6-2,35.2-0.6,36.6,4.6 c1.4,5.3-12.5,15.1-33.7,23.8c8.1,1.1,16.1,2.2,24.2,3.3c-7.5,10.4-15,20.8-22.5,31.1c12.5-0.6,25-1.2,37.5-1.8 C37.1,410.4,20,428.2,2.8,446.1c15.1,2.4,30.2,4.7,45.3,7.1c-10.8,14.4-21.6,28.9-32.4,43.3c15.4-1.8,30.9-3.5,46.3-5.3 c8.6-7.5,17.2-15,25.7-22.5c-0.8,13.6-1.5,27.2-2.3,40.8c17.9-12.4,35.8-24.8,53.8-37.2c11.4,8.5,22.8,16.9,34.3,25.4 c6.6-8.4,13.3-16.9,19.9-25.3c11.7,5.5,23.5,11.1,35.2,16.6c16.4-2.3,32.8-4.6,49.2-6.9c-11.6-8.5-23.2-17.1-34.7-25.6 c17.6-0.8,35.3-1.5,52.9-2.3c-16.1-14.9-32.2-29.9-48.3-44.8c13.4,0.6,26.8,1.1,40.2,1.7c-21.2-14.5-42.5-29-63.7-43.5 c18.1,1.6,36.2,3.2,54.3,4.9c-22.3-16.4-44.6-32.9-67-49.3c15.6,0.7,31.1,1.5,46.7,2.2c-15.4-9.3-30.8-18.7-46.2-28 c13.5,0.9,27,1.9,40.5,2.8c-14-11-27.9-22-41.9-33c14.9,0.3,29.9,0.6,44.8,0.9c-19.7-13.4-39.3-26.8-59-40.3 c10.8-3.5,21.7-7.1,32.5-10.6c-27.9-13.5-47.9-24.8-46.4-29.1c1.3-3.7,17.7,0.3,19.3-4.1c2.4-6.6-33.5-17.1-47.8-47.5 C149.6,127.1,148.4,118.1,148.1,111.6z"/> <g> <path class="st44" d="M175.8,235.6c3,11.4,3.1,26.6,17.4,31.4c7.5,3.3,13.8,7.3,21.7,6.9C201.4,261.2,188,249.6,175.8,235.6z"/> <path class="st44" d="M150.9,239.3c3,11.4,3.1,26.6,17.4,31.4c7.5,3.3,13.8,7.3,21.7,6.9C176.6,264.8,163.2,253.3,150.9,239.3z"/> <path class="st44" d="M168.3,271.4c3,11.4,3.1,26.7,17.4,31.4c7.5,3.3,13.8,7.3,21.7,6.9C193.9,296.9,180.6,285.4,168.3,271.4z"/> <path class="st44" d="M185.7,303.4c3,11.4,3.1,26.6,17.4,31.4c7.5,3.3,13.8,7.3,21.7,6.9C211.3,329,197.9,317.5,185.7,303.4z"/> <path class="st44" d="M203,335.5c3,11.4,3.1,26.6,17.4,31.4c7.5,3.3,13.8,7.3,21.7,6.9C228.6,361.1,215.3,349.6,203,335.5z"/> <path class="st44" d="M220.4,367.6c3,11.4,3.1,26.6,17.4,31.4c7.5,3.3,13.8,7.2,21.7,6.9C246,393.2,232.7,381.6,220.4,367.6z"/> <path class="st44" d="M189.5,358.8c3,11.4,3.1,26.6,17.4,31.4c7.5,3.3,13.8,7.3,21.7,6.9C215.1,384.3,201.7,372.8,189.5,358.8z"/> <path class="st44" d="M162.2,189c3.1,12,3.3,28,18.2,33c7.8,3.5,14.4,7.6,22.7,7.2C189.1,215.8,175.1,203.7,162.2,189z"/> <path class="st44" d="M151.6,284c0,0,15.4,23.3,23.8,25c0,0,9.6,3.5,0.8,3.9c-8.8,0.4-15.4-2.6-15.7-3.8 C160.1,307.9,152.6,285.4,151.6,284z"/> <path class="st44" d="M171.4,320.2c0,0,13.2,26.5,22.4,29.4c9.3,2.9,11.4,8.3,6.7,7c-4.6-1.3-25.8-4.5-30.1-11.9 c-4.3-7.4-7.2-29.5-7.9-30.7C161.9,312.7,171.4,320.2,171.4,320.2z"/> <path class="st44" d="M154.4,190.3c0,0,0.7,26.5,10.4,33c0,0-13.5-1.2-17.6-10.7C143.1,203.1,154.4,190.3,154.4,190.3z"/> </g> <g> <path class="st45" d="M173.6,196.5c3,11.4,3.1,26.6,17.4,31.4c7.5,3.3,13.8,7.3,21.7,6.9C199.2,222.1,185.8,210.5,173.6,196.5z"/> <path class="st45" d="M148.8,200.2c3,11.4,3.1,26.6,17.4,31.4c7.5,3.3,13.8,7.3,21.7,6.9C174.4,225.7,161,214.2,148.8,200.2z"/> <path class="st45" d="M166.1,232.3c3,11.4,3.1,26.7,17.4,31.4c7.5,3.3,13.8,7.3,21.7,6.9C191.7,257.8,178.4,246.3,166.1,232.3z"/> <path class="st45" d="M183.5,264.4c3,11.4,3.1,26.6,17.4,31.4c7.5,3.3,13.8,7.3,21.7,6.9C209.1,289.9,195.7,278.4,183.5,264.4z"/> <path class="st45" d="M200.9,296.4c3,11.4,3.1,26.6,17.4,31.4c7.5,3.3,13.8,7.3,21.7,6.9C226.5,322,213.1,310.5,200.9,296.4z"/> <path class="st45" d="M218.2,328.5c3,11.4,3.1,26.6,17.4,31.4c7.5,3.3,13.8,7.2,21.7,6.9C243.8,354.1,230.5,342.5,218.2,328.5z"/> <path class="st45" d="M187.3,319.7c3,11.4,3.1,26.6,17.4,31.4c7.5,3.3,13.8,7.3,21.7,6.9C212.9,345.3,199.6,333.7,187.3,319.7z"/> <path class="st45" d="M160,149.9c3.1,12,3.3,28,18.2,33c7.8,3.5,14.4,7.6,22.7,7.2C186.9,176.7,172.9,164.6,160,149.9z"/> <path class="st45" d="M149.4,244.9c0,0,15.4,23.3,23.8,25c0,0,9.6,3.5,0.8,3.9c-8.8,0.4-15.4-2.6-15.7-3.8 C157.9,268.8,150.4,246.3,149.4,244.9z"/> <path class="st45" d="M169.2,281.1c0,0,13.2,26.5,22.4,29.4c9.3,2.9,11.4,8.3,6.7,7c-4.6-1.3-25.8-4.5-30.1-11.9 c-4.3-7.4-7.2-29.5-7.9-30.7C159.7,273.6,169.2,281.1,169.2,281.1z"/> <path class="st45" d="M152.2,151.3c0,0,0.7,26.5,10.4,33c0,0-13.5-1.2-17.6-10.7C140.9,164,152.2,151.3,152.2,151.3z"/> </g> <g> <path class="st44" d="M173.9,316.1c3,11.4,3.1,26.6,17.4,31.4c7.5,3.3,13.8,7.3,21.7,6.9C199.5,341.7,186.1,330.1,173.9,316.1z"/> <path class="st44" d="M149,319.8c3,11.4,3.1,26.6,17.4,31.4c7.5,3.3,13.8,7.3,21.7,6.9C174.6,345.3,161.3,333.8,149,319.8z"/> <path class="st44" d="M166.4,351.9c3,11.4,3.1,26.7,17.4,31.4c7.5,3.3,13.8,7.3,21.7,6.9C192,377.4,178.7,365.9,166.4,351.9z"/> <path class="st44" d="M183.8,384c3,11.4,3.1,26.6,17.4,31.4c7.5,3.3,13.8,7.3,21.7,6.9C209.4,409.5,196,398,183.8,384z"/> <path class="st44" d="M201.1,416c3,11.4,3.1,26.6,17.4,31.4c7.5,3.3,13.8,7.3,21.7,6.9C226.7,441.6,213.4,430.1,201.1,416z"/> <path class="st44" d="M218.5,448.1c3,11.4,3.1,26.6,17.4,31.4c7.5,3.3,13.8,7.2,21.7,6.9C244.1,473.7,230.8,462.2,218.5,448.1z"/> <path class="st44" d="M187.6,439.3c3,11.4,3.1,26.6,17.4,31.4c7.5,3.3,13.8,7.3,21.7,6.9C213.2,464.9,199.8,453.3,187.6,439.3z"/> <path class="st44" d="M160.3,269.5c3.1,12,3.3,28,18.2,33c7.8,3.5,14.4,7.6,22.7,7.2C187.2,296.3,173.2,284.2,160.3,269.5z"/> <path class="st44" d="M149.7,364.5c0,0,15.4,23.3,23.8,25c0,0,9.6,3.5,0.8,3.9c-8.8,0.4-15.4-2.6-15.7-3.8 C158.2,388.4,150.7,365.9,149.7,364.5z"/> <path class="st44" d="M169.5,400.7c0,0,13.2,26.5,22.4,29.4c9.3,2.9,11.4,8.3,6.7,7c-4.6-1.3-25.8-4.5-30.1-11.9 c-4.3-7.4-7.2-29.5-7.9-30.7C160,393.2,169.5,400.7,169.5,400.7z"/> <path class="st44" d="M152.5,270.9c0,0,0.7,26.5,10.4,33c0,0-13.5-1.2-17.6-10.7C141.2,283.6,152.5,270.9,152.5,270.9z"/> </g> <g> <path class="st44" d="M79.6,279.8c-2.7,11.5-2.5,26.7-16.6,31.8c-7.4,3.5-13.6,7.6-21.5,7.4C54.6,305.9,67.7,294.1,79.6,279.8z"/> <path class="st44" d="M104.6,282.9c-2.7,11.5-2.5,26.7-16.6,31.8c-7.4,3.5-13.6,7.6-21.5,7.4C79.6,309,92.6,297.2,104.6,282.9z"/> <path class="st44" d="M88,315.4c-2.7,11.5-2.5,26.7-16.6,31.8c-7.4,3.5-13.6,7.6-21.5,7.4C62.9,341.5,76,329.7,88,315.4z"/> <path class="st44" d="M71.3,347.9c-2.7,11.5-2.5,26.7-16.6,31.8c-7.4,3.5-13.6,7.6-21.5,7.4C46.3,374,59.4,362.2,71.3,347.9z"/> <path class="st44" d="M54.7,380.3c-2.7,11.5-2.5,26.7-16.6,31.8c-7.4,3.5-13.6,7.6-21.5,7.4C29.7,406.5,42.8,394.6,54.7,380.3z"/> <path class="st44" d="M38.1,412.8c-2.7,11.5-2.5,26.7-16.6,31.8c-7.4,3.5-13.6,7.6-21.5,7.4C13.1,439,26.2,427.1,38.1,412.8z"/> <path class="st44" d="M68.8,403.3c-2.7,11.5-2.5,26.7-16.6,31.8c-7.4,3.5-13.6,7.6-21.5,7.4C43.8,429.4,56.9,417.6,68.8,403.3z"/> <path class="st44" d="M92.1,232.8c-2.9,12.1-2.6,28.1-17.5,33.4c-7.8,3.6-14.3,8-22.6,7.7C65.9,260.3,79.6,247.9,92.1,232.8z"/> <path class="st44" d="M104.9,327.6c0,0-14.9,23.7-23.2,25.6c0,0-9.5,3.7-0.7,3.9c8.8,0.2,15.3-3,15.6-4.2 C97,351.7,104,329.1,104.9,327.6z"/> <path class="st44" d="M86,364.3c0,0-12.5,26.8-21.7,29.9c-9.2,3.1-11.2,8.5-6.6,7.1c4.6-1.4,25.7-5.1,29.8-12.6 c4.1-7.5,6.5-29.7,7.2-30.9C95.4,356.6,86,364.3,86,364.3z"/> <path class="st44" d="M100,234.1c0,0-0.1,26.5-9.7,33.2c0,0,13.4-1.5,17.3-11.1C111.5,246.5,100,234.1,100,234.1z"/> </g> <g> <path class="st44" d="M125.3,180.5c-3.2,11.4-3.5,26.6-17.9,31.2c-7.5,3.2-13.9,7-21.8,6.5C99.3,205.6,112.9,194.3,125.3,180.5z"/> <path class="st44" d="M150.1,184.5c-3.2,11.4-3.5,26.6-17.9,31.2c-7.5,3.2-13.9,7-21.8,6.5C124.1,209.7,137.6,198.4,150.1,184.5z "/> <path class="st44" d="M132.2,216.4c-3.2,11.4-3.5,26.6-17.9,31.2c-7.5,3.2-13.9,7-21.8,6.5C106.2,241.5,119.8,230.2,132.2,216.4z "/> <path class="st44" d="M114.4,248.2c-3.2,11.4-3.5,26.6-17.8,31.2c-7.5,3.2-13.9,7-21.8,6.5C88.4,273.3,101.9,262,114.4,248.2z"/> <path class="st44" d="M96.5,280c-3.2,11.4-3.5,26.6-17.9,31.2c-7.5,3.2-13.9,7-21.8,6.5C70.5,305.1,84,293.8,96.5,280z"/> <path class="st44" d="M78.7,311.8c-3.2,11.4-3.5,26.6-17.9,31.2c-7.5,3.2-13.9,7-21.8,6.5C52.7,336.9,66.2,325.6,78.7,311.8z"/> <path class="st44" d="M109.7,303.4c-3.2,11.4-3.5,26.6-17.9,31.2c-7.5,3.2-13.9,7-21.8,6.5C83.7,328.6,97.2,317.3,109.7,303.4z"/> <path class="st44" d="M139.6,134.1c-3.3,12-3.7,27.9-18.8,32.7c-7.9,3.3-14.6,7.4-22.9,6.9C112.3,160.5,126.5,148.6,139.6,134.1z "/> <path class="st44" d="M148.7,229.2c0,0-15.8,23.1-24.1,24.7c0,0-9.7,3.3-0.9,3.9c8.8,0.6,15.4-2.4,15.8-3.6 C139.9,253,147.7,230.7,148.7,229.2z"/> <path class="st44" d="M128.4,265.1c0,0-13.6,26.2-22.9,29c-9.3,2.8-11.5,8.1-6.8,6.9c4.7-1.2,25.9-4.1,30.3-11.5 c4.4-7.3,7.7-29.4,8.4-30.5C138,257.8,128.4,265.1,128.4,265.1z"/> <path class="st44" d="M147.4,135.6c0,0-1.1,26.5-10.9,32.8c0,0,13.5-1,17.7-10.4C158.5,148.5,147.4,135.6,147.4,135.6z"/> </g> <g> <path class="st7" d="M112.9,188.6c-3.2,11.4-3.5,26.6-17.9,31.2c-7.5,3.2-13.9,7-21.8,6.5C86.9,213.8,100.4,202.5,112.9,188.6z"/> <path class="st7" d="M137.7,192.7c-3.2,11.4-3.5,26.6-17.9,31.2c-7.5,3.2-13.9,7-21.8,6.5C111.7,217.9,125.2,206.5,137.7,192.7z"/> <path class="st7" d="M119.8,224.5c-3.2,11.4-3.5,26.6-17.9,31.2c-7.5,3.2-13.9,7-21.8,6.5C93.8,249.7,107.4,238.3,119.8,224.5z"/> <path class="st7" d="M102,256.3c-3.2,11.4-3.5,26.6-17.8,31.2c-7.5,3.2-13.9,7-21.8,6.5C76,281.5,89.5,270.2,102,256.3z"/> <path class="st7" d="M84.1,288.1c-3.2,11.4-3.5,26.6-17.9,31.2c-7.5,3.2-13.9,7-21.8,6.5C58.1,313.3,71.6,302,84.1,288.1z"/> <path class="st7" d="M66.2,319.9c-3.2,11.4-3.5,26.6-17.9,31.2c-7.5,3.2-13.9,7-21.8,6.5C40.3,345.1,53.8,333.8,66.2,319.9z"/> <path class="st7" d="M97.3,311.6c-3.2,11.4-3.5,26.6-17.9,31.2c-7.5,3.2-13.9,7-21.8,6.5C71.3,336.8,84.8,325.4,97.3,311.6z"/> <path class="st7" d="M127.2,142.2c-3.3,12-3.7,27.9-18.8,32.7c-7.9,3.3-14.6,7.4-22.9,6.9C99.9,168.6,114.1,156.7,127.2,142.2z"/> <path class="st7" d="M136.3,237.4c0,0-15.8,23.1-24.1,24.7c0,0-9.7,3.3-0.9,3.9c8.8,0.6,15.4-2.4,15.8-3.6 C127.5,261.2,135.3,238.8,136.3,237.4z"/> <path class="st7" d="M116,273.3c0,0-13.6,26.2-22.9,29c-9.3,2.8-11.5,8.1-6.8,6.9c4.7-1.2,25.9-4.1,30.3-11.5 c4.4-7.3,7.7-29.4,8.4-30.5C125.6,266,116,273.3,116,273.3z"/> <path class="st7" d="M135,143.7c0,0-1.1,26.5-10.9,32.8c0,0,13.5-1,17.7-10.4C146.1,156.6,135,143.7,135,143.7z"/> </g> <g> <path class="st46" d="M174.7,319.6c4.5,9.4,6.3,22.6,22.4,24.4c8.5,1.6,15.8,4,24.4,2.4C205.5,337.6,189.7,329.8,174.7,319.6z"/> <path class="st46" d="M148,326.8c4.5,9.4,6.3,22.6,22.4,24.4c8.5,1.6,15.8,4,24.4,2.4C178.8,344.8,162.9,337,148,326.8z"/> <path class="st46" d="M170.4,351.8c4.5,9.4,6.3,22.6,22.4,24.4c8.5,1.6,15.8,4,24.4,2.4C201.2,369.8,185.4,362,170.4,351.8z"/> <path class="st46" d="M192.9,376.8c4.5,9.4,6.3,22.6,22.4,24.4c8.5,1.6,15.8,4,24.4,2.4C223.7,394.8,207.8,386.9,192.9,376.8z"/> <path class="st46" d="M215.4,401.8c4.5,9.4,6.3,22.6,22.4,24.4c8.5,1.6,15.8,4,24.4,2.4C246.2,419.8,230.3,411.9,215.4,401.8z"/> <path class="st46" d="M237.9,426.8c4.5,9.4,6.3,22.6,22.4,24.4c8.5,1.6,15.8,4,24.4,2.4C268.6,444.7,252.8,436.9,237.9,426.8z"/> <path class="st46" d="M203.1,424.1c4.5,9.4,6.3,22.6,22.4,24.4c8.5,1.6,15.8,4,24.4,2.4C233.9,442.1,218,434.3,203.1,424.1z"/> <path class="st46" d="M154.9,281.4c4.7,9.9,6.6,23.7,23.5,25.6c9,1.7,16.6,4.3,25.7,2.6C187.2,300.3,170.5,292.1,154.9,281.4z"/> <path class="st46" d="M153.6,365.5c0,0,19.4,17.7,28.7,17.8c0,0,10.9,1.5,1.3,3.3c-9.6,1.8-17.1,0.2-17.6-0.7 C165.4,384.8,154.8,366.6,153.6,365.5z"/> <path class="st46" d="M179.1,393.6c0,0,17.3,20.8,27.7,21.8c10.5,1,13.3,5.3,8.1,5c-5.2-0.4-28.7,0.3-34.2-5.4 c-5.5-5.7-11.1-24.4-12-25.3C167.9,388.7,179.1,393.6,179.1,393.6z"/> <path class="st46" d="M146.4,283.9c0,0,3.6,22.8,15,26.9c0,0-14.8,1.2-20.4-6.4C135.5,296.7,146.4,283.9,146.4,283.9z"/> </g> <g> <path class="st46" d="M102.9,336.6c-4,10.1-5,24-21,27c-8.4,2.3-15.6,5.3-24.3,4.2C73.1,357.6,88.5,348.3,102.9,336.6z"/> <path class="st46" d="M130,342.3c-4,10.1-5,24-21,27c-8.4,2.3-15.6,5.3-24.3,4.2C100.3,363.2,115.7,353.9,130,342.3z"/> <path class="st46" d="M109,369.9c-4,10.1-5,24-21,27c-8.4,2.3-15.6,5.3-24.3,4.2C79.2,390.8,94.6,381.6,109,369.9z"/> <path class="st46" d="M87.9,397.6c-4,10.1-5,24-21,27c-8.4,2.3-15.6,5.3-24.3,4.2C58.2,418.5,73.6,409.2,87.9,397.6z"/> <path class="st46" d="M66.9,425.2c-4,10.1-5,24-21,27c-8.4,2.3-15.6,5.3-24.3,4.2C37.1,446.1,52.5,436.8,66.9,425.2z"/> <path class="st46" d="M45.8,452.8c-4,10.1-5,24-21,27c-8.4,2.3-15.6,5.3-24.3,4.2C16.1,473.7,31.5,464.5,45.8,452.8z"/> <path class="st46" d="M80.4,447.6c-4,10.1-5,24-21,27c-8.4,2.3-15.6,5.3-24.3,4.2C50.7,468.6,66.1,459.3,80.4,447.6z"/> <path class="st46" d="M120.6,295.4c-4.2,10.6-5.3,25.2-22.1,28.4c-8.9,2.4-16.4,5.6-25.5,4.5C89.4,317.4,105.5,307.6,120.6,295.4 z"/> <path class="st46" d="M126.6,383c0,0-18.4,19.8-27.7,20.6c0,0-10.8,2.3-1.1,3.5c9.7,1.2,17.1-0.9,17.6-2 C115.9,404,125.5,384.2,126.6,383z"/> <path class="st46" d="M102.7,414.1c0,0-16.1,22.9-26.5,24.7c-10.4,1.8-13,6.5-7.8,5.7c5.2-0.7,28.7-1.7,33.9-8.1 c5.2-6.3,9.7-26.2,10.5-27.2C113.7,408.2,102.7,414.1,102.7,414.1z"/> <path class="st46" d="M129.2,297.4c0,0-2.3,24.1-13.5,29.1c0,0,14.9,0.2,20-8.1C140.8,310,129.2,297.4,129.2,297.4z"/> </g> <g> <path class="st47" d="M147.2,346.7c1.5,9.5,0.3,21.7,11.5,26.8c5.8,3.3,10.6,7,17.1,7.4C165.9,369.5,156,359.1,147.2,346.7z"/> <path class="st47" d="M158.6,374.1c1.5,9.5,0.3,21.7,11.5,26.8c5.8,3.3,10.6,7,17.1,7.4C177.3,396.9,167.4,386.4,158.6,374.1z"/> <path class="st47" d="M170,401.4c1.5,9.5,0.3,21.7,11.5,26.8c5.8,3.3,10.6,7,17.1,7.4C188.7,424.2,178.8,413.8,170,401.4z"/> <path class="st47" d="M181.4,428.8c1.5,9.5,0.3,21.8,11.5,26.8c5.8,3.3,10.6,7,17.1,7.4C200.1,451.6,190.2,441.1,181.4,428.8z"/> <path class="st47" d="M192.8,456.1c1.5,9.5,0.3,21.7,11.5,26.8c5.8,3.3,10.6,7,17.1,7.4C211.5,478.9,201.6,468.5,192.8,456.1z"/> <path class="st47" d="M168.4,446.3c1.5,9.5,0.2,21.7,11.5,26.8c5.8,3.3,10.6,7,17.1,7.4C187,469.1,177.1,458.7,168.4,446.3z"/> <path class="st47" d="M143.9,382.8c0,0,10.6,20.1,17.2,22.2c0,0,7.5,3.6,0.3,3.2c-7.2-0.4-12.3-3.4-12.5-4.4 C148.8,402.8,144.6,384,143.9,382.8z"/> <path class="st47" d="M156.9,413.7c0,0,8.5,22.5,15.8,25.6c7.3,3.1,8.6,7.6,4.9,6.2c-3.7-1.4-20.7-5.9-23.5-12.2 c-2.9-6.3-3.4-24.4-3.8-25.4C149.8,406.8,156.9,413.7,156.9,413.7z"/> </g> <g> <path class="st47" d="M140.8,374c-1.3,9.6,0.1,22-10.9,27.3c-5.7,3.4-10.4,7.3-16.9,7.7C122.6,397.4,132.3,386.7,140.8,374z"/> <path class="st47" d="M129.9,401.9c-1.3,9.6,0.1,22-10.9,27.3c-5.7,3.4-10.4,7.3-16.9,7.7C111.7,425.2,121.4,414.5,129.9,401.9z"/> <path class="st47" d="M119.1,429.7c-1.3,9.6,0.1,22-10.9,27.3c-5.7,3.4-10.4,7.3-16.9,7.7C100.8,453,110.5,442.3,119.1,429.7z"/> <path class="st47" d="M108.2,457.5c-1.3,9.6,0.1,22-10.9,27.3c-5.7,3.4-10.4,7.3-16.9,7.7C90,480.9,99.6,470.2,108.2,457.5z"/> <path class="st47" d="M97.3,485.4c-1.3,9.6,0.1,22-10.9,27.3c-5.7,3.4-10.4,7.3-16.9,7.7C79.1,508.7,88.8,498,97.3,485.4z"/> <path class="st47" d="M121.5,475.1c-1.3,9.6,0.1,22-10.9,27.3c-5.7,3.4-10.4,7.3-16.9,7.7C103.3,498.5,113,487.7,121.5,475.1z"/> <path class="st47" d="M144.7,410.5c0,0-10.2,20.5-16.8,22.7c0,0-7.4,3.8-0.3,3.3c7.2-0.5,12.2-3.7,12.4-4.7 C140.2,430.8,144.1,411.7,144.7,410.5z"/> <path class="st47" d="M132.3,441.9c0,0-8,22.8-15.3,26.1c-7.2,3.3-8.4,7.9-4.8,6.4c3.6-1.5,20.5-6.3,23.2-12.7 c2.8-6.4,2.9-24.7,3.3-25.8C139.3,434.9,132.3,441.9,132.3,441.9z"/> </g> <g> <path class="st47" d="M145.9,135.2c1,9.5-0.7,21.7,10.2,27.3c5.7,3.6,10.3,7.5,16.7,8.2C163.6,158.8,154.1,147.9,145.9,135.2z"/> <path class="st47" d="M156.1,163c1,9.5-0.7,21.7,10.2,27.3c5.7,3.6,10.3,7.5,16.7,8.2C173.7,186.7,164.3,175.8,156.1,163z"/> <path class="st47" d="M166.2,190.9c1,9.5-0.7,21.7,10.2,27.3c5.7,3.6,10.3,7.5,16.7,8.2C183.9,214.5,174.4,203.6,166.2,190.9z"/> <path class="st47" d="M176.4,218.7c1,9.5-0.7,21.7,10.2,27.3c5.7,3.6,10.3,7.5,16.7,8.2C194,242.3,184.6,231.4,176.4,218.7z"/> <path class="st47" d="M186.5,246.6c1,9.5-0.7,21.7,10.2,27.3c5.7,3.6,10.3,7.5,16.7,8.2C204.1,270.2,194.7,259.3,186.5,246.6z"/> <path class="st47" d="M162.5,235.7c1,9.5-0.7,21.7,10.2,27.3c5.7,3.6,10.3,7.5,16.7,8.2C180.1,259.3,170.7,248.4,162.5,235.7z"/> <path class="st47" d="M141,171.1c0,0,9.7,20.6,16.2,23c0,0,7.4,4,0.2,3.2c-7.2-0.7-12.1-4-12.3-5 C144.9,191.3,141.6,172.3,141,171.1z"/> <path class="st47" d="M152.6,202.5c0,0,7.4,22.8,14.6,26.3c7.2,3.5,8.2,8,4.6,6.4c-3.6-1.6-20.4-6.8-23-13.3 c-2.6-6.5-2.2-24.5-2.6-25.6C145.8,195.4,152.6,202.5,152.6,202.5z"/> </g> </g> <g> <path class="st21" d="M325.5,422c0,0,0-3.3-1.4-3.3c-1.4,0-5.3-0.6-5.5,1.4c-0.1,2,3.2,5.1,1.8,6.3c-1.4,1.2-2.2,3.9-0.3,4.8 c1.9,0.9,3.4,3.8,2,4.6c-1.4,0.8-1.9,2.8-0.8,3.9c1.1,1.1,2.7,2.6,1.5,3.5c-1.1,0.9-1.1,3.8-0.1,4.2c1,0.4,7.6-0.3,7.6-1.5 C330.3,444.6,325.5,422,325.5,422z"/> <path class="st48" d="M315.8,449.2c-6.4-0.3-9.9,7.6-15.6,9.1c-6.1,8-11-4.4-17.4-3.5c-3.2,8.8-2,19.4-0.6,28.5 c3.8,6.5,10.3,4.8,16.9,5.4c9-3,18.4-13.3,26.2-20.4C331.5,461.2,323.7,450,315.8,449.2z"/> <path class="st49" d="M177,610.7c-4.6-3.4-9.6-0.6-10.7,2.8c-1.2,3.4,2.3,5.3,6.9,8.3c4.6,3,11.8,16.4,15.9,16.4 c4,0,17.9,1.6,20.5-0.5c2.6-2.1,0-5.1,0-5.1s-13-2.2-14.2-3.9c-1.2-1.7-1.5-4-1.5-4S178.7,612,177,610.7z"/> <linearGradient id="SVGID_4_" gradientUnits="userSpaceOnUse" x1="-680.8264" y1="625.5252" x2="-680.8264" y2="642.4996" gradientTransform="matrix(-1 0 0 1 -480.9572 0)"> <stop offset="0" style="stop-color:#F89720"/> <stop offset="0.224" style="stop-color:#DF8D25"/> <stop offset="0.5513" style="stop-color:#BD812B"/> <stop offset="1" style="stop-color:#814A1C"/> </linearGradient> <path class="st50" d="M77.4,634.3c0,0,159.8,6.5,224.7,2.1c3.3-0.2,14-2.1,22.6-8.8c8.6-6.7,3.7,4.7-1.2,8.1 c-4.9,3.4-33.4,4.9-44.4,6.3C268,643.3,74,642,71,640C67.9,638,77.4,634.3,77.4,634.3z"/> <linearGradient id="SVGID_5_" gradientUnits="userSpaceOnUse" x1="-676.3794" y1="622.28" x2="-664.7613" y2="642.4032" gradientTransform="matrix(-1 0 0 1 -480.9572 0)"> <stop offset="0.2564" style="stop-color:#F89720"/> <stop offset="0.4408" style="stop-color:#DF8D25"/> <stop offset="0.7103" style="stop-color:#BD812B"/> <stop offset="1" style="stop-color:#814A1C"/> </linearGradient> <path class="st51" d="M199.5,624.6c0,0-19-2-20.3,8.7l-0.6,6h9.8c0,0,4.9-8.7,13.5-10.1L199.5,624.6z"/> <path class="st52" d="M258,509c-8.4,0.6-22.6-3.2-24.1,9.8c0.6,13.3,1.2,29.5-11.9,36.4c-6.1,4.4-2.9,17.1-12.2,16.8 c-9.3,2.2-16.5,11.4-24.6,18.1c-3.2,7-13.6,14-7.5,22.2c1.3,2,4.2,5.9,9.4,8.8c5.2,2.9,10,3.4,12.4,3.5 c6.9-5.7,14.1-11.8,21.3-18.4c6.9-6.3,13.4-12.5,19.5-18.6c4.1-9.8,11.9-18.4,15.6-28.5c6.9-10.2,9.8-21.9,17.1-31.7 c1.8-4.8,8.4-14.3,1.2-17.1C268.7,509.9,263.2,509.9,258,509z"/> <path class="st53" d="M233.4,512.5c-3.9,3.4-4.2,8.4-4.5,12.3c-0.5,8.4,2.7,15.1,4.9,18.7c-2.1,1.9-4.7,4.6-7,8.3 c-4.5,7.1-5.6,14.1-5.9,18.1c1.3,0.8,4,2.2,7.2,1.8c5.2-0.6,9.8-5.3,11.1-11.9c0.6-1.9,1.7-4.6,4-7c2.9-3.1,4.9-2.8,7.5-5.7 c2.9-3.2,1.4-4.7,4.3-10c3.1-5.5,5.9-5.8,6.5-9.7c0.6-3.5-1.2-6.5-2-8.1c-4.9-8.4-15.9-9.5-17.6-9.7 C240,509.7,236.4,510,233.4,512.5z"/> <path class="st54" d="M236.2,503.1c-1.4,1.2-13.5,11.8-11.8,26.7c0.6,5.3,2.8,9.4,4.5,12c-2.7,2.5-6.9,7.2-9.7,14.3 c-2,5-2.6,9.6-2.8,12.7c-15.7,6-25.9,13.6-31.7,18.8c-11,9.8-11.5,15.4-11.4,18.8c0,1.2,0.4,2.4,1.2,3.8c4,7,10.6,13,18.7,14.6 c3.2,0.6,9.7,2,15.2-1.5c6.6-4.1,5.2-10.7,12.5-17.5c4.4-4.1,8.6-5.1,12-6.5c19.1-7.9,21.7-31.7,40.6-69.7c0,0,6.1-13,3.9-15.9 c-0.2-0.3-0.5-0.4-1-0.5c-2.7-0.6-3.5-3.5-3.5-3.5c0.1,8.2-1.3,14.3-2.4,18.2c-6.3,21.4-20,23.2-24.6,43.4c-1.1,5-1.5,10-5.6,15.3 c-3.1,3.9-5,3.8-13.1,9.2c-7.3,4.8-14.4,9.5-20.8,17.1c-5.8,6.9-5.7,9.8-9.2,10.5c-6.9,1.5-17.4-7.5-17.9-17.3 c0-0.8-0.2-4.4,2.1-8.6c4.6-8.4,11.8-6.1,23-15.3c6.2-5.1,7.1-8.3,12.3-9.3c5.9-1.1,11.3,1.7,11.5,1.1c0.3-0.8-9.8-5.4-9.7-5.6 c0-0.1,1.2,0.7,2.3,0.4c2.4-0.7,1.2-6.2,3.1-11.1c3.1-7.8,11.3-7.6,12.1-13.2c0.5-3.6-2.7-5.8-4.7-9.2 C228.2,530,227.3,520.6,236.2,503.1z"/> <path class="st52" d="M267.7,500.9c-12.1-5.6-25.9-1.6-31.9,8.2c-5.6,9.1-3.6,21.8,2.6,27.2c4.1,3.5,7.3,1.7,14.3,6.5 c3.8,2.6,5,4.7,10.4,10.7c3,3.4,7.5,8.3,13.3,13.9c-3.4,9.3-3.5,16.5-3,21.4c0.9,8,3.6,12,1.7,19.1c-1.6,5.7-4.3,6.4-5,10.9 c-0.7,4.1,0.5,10,8.3,18.1c7.8,2.8,18.3,1.9,26.9-2.9c10.3-7.2-0.9-29-0.9-38.6c1.8-5.5,5.5-20-0.4-36.1 c-2.5-6.9-6.1-12.2-9.1-15.7c-4.7-4.4-10.6-10.6-16-19C273.2,515.6,269.8,507.2,267.7,500.9z"/> <path class="st53" d="M290.5,565.1c-4.7,0.4-11.7,5.8-11.4,11.3c-3,4.5,1.3,10.3-2.3,14.4c0.7,6.5,3.7,13,2.3,19.6 c3,5.5,11,16.5,17.1,7.2c-2.3-4.1,5-6.5,0.3-9.6c-0.3-0.3-0.7-1-1-1.4c5.7-2.4-0.7-8.6,3.4-11.7c-3.4-4.8-1-12.4,2-16.8 C300.5,572.7,293.5,569.3,290.5,565.1z"/> <path class="st55" d="M276.3,520.1c1.5,2.6,4.1,6.9,7.6,11.9c12.1,17.2,21.4,22.9,21.5,33.8c0,3.9-1.1,4-2.5,10 c-5.5,23.8,9.4,37.2,3.1,49.2c-4.6,8.6-19.6,15.4-26.7,9.7c-6.3-5-5.5-20-4.2-26.8c0.9-4.5,2.4-8.3,1.8-14.6 c-0.4-4.7-1.9-8.5-3-11c-0.2-1.3-1.1-8.8,3.4-13.9c2.6-2.9,7.3-5.2,8.9-5.9c1.4-0.6,1.6-0.4-0.5-0.2c-4.6,0.5-9.4-3-9.4-3 c-2-1.9-5-4.7-8.3-8.5c-6.5-7.3-6-8.6-9.7-12c-7.3-6.5-12.1-4.4-16.8-10c-2.1-2.5-4.2-6.6-4.1-13.7c-2.8,11.5-0.9,16.4,1.6,18.7 c3.3,3,7,1,12.5,4.5c4.6,2.9,5.3,6.5,9.3,12.5c2.6,3.9,6.9,9.2,13.8,14.6c-3.5,4.5-7.4,11.3-6.7,19c0.3,3.6,1.4,4.1,2.6,8.4 c3.7,13.1-2.7,20.1-0.1,33.3c0.2,0.9,1.8,8.6,6.7,12.1c0.7,0.5,3.7,2.6,10.6,2.8c3.7,0.1,18.2,0.6,23.8-7.6 c2.1-3.1,1.2-5.1-1.2-24.5c-2.6-21.3-2.4-26-1.4-31c1.3-6.2,2.7-7.1,2.5-11.5c-0.3-7.7-4.7-13.3-11.5-21 C293.6,538,285.7,529.5,276.3,520.1z"/> <linearGradient id="SVGID_6_" gradientUnits="userSpaceOnUse" x1="-818.8064" y1="638.1503" x2="-818.8064" y2="658.2319" gradientTransform="matrix(-1 0 0 1 -480.9572 0)"> <stop offset="0" style="stop-color:#F89720"/> <stop offset="0.224" style="stop-color:#DF8D25"/> <stop offset="0.5513" style="stop-color:#BD812B"/> <stop offset="1" style="stop-color:#814A1C"/> </linearGradient> <path class="st56" d="M214.7,650.4c0,0,153.8-0.7,219.6-3.4c0,0,14.1,0,22.7-6.7c8.6-6.7,3.7,4.7-1.2,8.1 c-4.9,3.4-31.9,8.1-43,9.4c-11.1,1.3-194,0-197.1-2.1C212.6,653.6,214.7,650.4,214.7,650.4z"/> <path class="st57" d="M272.3,447.5c0,0,7.4,2.1,10.3,4.7c2.9,2.5,11.6,10.7,14.2,9.9c2.6-0.8,14.6-15.8,19.3-14.2 c4.7,1.6,13.6,12.8,13.5,15.9c-0.1,3.1-23.6,24.1-27.9,26.1c-4.3,2-22.1-4.4-23-7.8c-0.9-3.5,3.8-0.8,5.1,0.1 c1.4,0.9,15.6,6.4,18.3,4.9c2.7-1.5,25.6-21.6,24.2-23.9c-1.4-2.3-9.4-14.2-11.1-13.3c-1.8,0.9-16.6,12.7-16.9,14.8 c-0.3,2.1-1.8,11.5,0.2,13.9c2.1,2.4-3.1,3.3-3.9,0.2c-0.8-3.2,0.9-13.9,0.9-13.9s-12.8-8.7-14.2-9.9c-1.5-1.2-7.5-5.8-10.2-4.3 c-2.7,1.5-1.6-2.9-1.6-2.9L272.3,447.5z"/> <path class="st49" d="M284.6,640.4c0,0-5.9,4.3-3.5,7.8c2.5,3.5,11.6,3.5,15.9,2.3c4.3-1.2,27.5,4,29.3-0.6 c1.8-4.6-1.2-7.5-4.9-7.5c-3.7,0-13.8-2.6-13.8-2.6L284.6,640.4z"/> <linearGradient id="SVGID_7_" gradientUnits="userSpaceOnUse" x1="-798.6504" y1="644.6915" x2="-779.0978" y2="644.6915" gradientTransform="matrix(-1 0 0 1 -480.9572 0)"> <stop offset="0.2564" style="stop-color:#F89720"/> <stop offset="0.4408" style="stop-color:#DF8D25"/> <stop offset="0.7103" style="stop-color:#BD812B"/> <stop offset="1" style="stop-color:#814A1C"/> </linearGradient> <path class="st58" d="M317.7,638.6c0,0-11,8.5-7.7,13.8h-11.9c0,0,5.9-13.8,11-15.1C314.3,636,317.7,638.6,317.7,638.6z"/> <path class="st59" d="M267.6,438.8c-2.6-0.2-12.1-0.7-21.2,5.8c-8.3,6-11.2,14.1-12,16.7c-0.5,4.3-1.3,9-2.5,14 c-2,8.4-4.8,15.6-7.5,21.5c1.1,2.4,2.9,5.6,5.7,9c7.6,9,17,11.8,18.8,12.2c7.8,2.2,14.2,1.1,19,0.3c8.4-1.4,14.8-4.4,18.6-6.7 c-0.3-2.9-0.7-7.4-1.3-12.9c-1.3-11.6-2-15.2-2.4-21.7c-0.3-4-0.5-9.8-0.3-16.9c-3.2-8.7-7.1-11.7-10.3-12.7 c-3.1-1-6.4-0.4-7.3-2.2C264,443.6,265.9,440.8,267.6,438.8z"/> <path class="st57" d="M278.8,449.4c-2.2-0.8-5-2.3-6.3-5.1c-0.9-1.9-0.1-2.5-0.9-4c-1.7-3.3-5.7-2.1-12-5.7 c-3.2-1.8-3.6-3-5.3-2.8c-2.6,0.2-3.7,3-6.7,6c-4,4-6.3,3.2-10,6c-5.2,4-2.8,7.1-9.4,20.1c-3.6,7.2-6.4,10.1-6.1,15.8 c0.1,2.5,0.7,2.6,1.5,6.6c2,9.9-0.8,12.4,0.8,18.6c2.3,9.1,10.9,13.8,12.2,14.5c3.6,2,7.5,2.8,14.8,2.8c7.3,0,18.5-0.8,32-5.3 c0,0,6.7-9.9,2.9-14.4c-0.3-0.3-0.7-1-1.4-1c-1.9,0.2-0.9,7.1-4.3,11.4c-2.6,3.4-7.1,3.8-16.1,4.7c-8.2,0.8-12.4,1.2-17.8-0.7 c-1.3-0.5-8-3-13.2-9.8c-4.4-5.8-6.5-13.2-5.2-14.1c1.5-0.9,6.8,5.9,7.8,5.2c0.9-0.7-4.6-6.7-6.1-15.1c-1.6-8.6,1.7-15.8,4.5-22 c4-9,9.8-15.3,14.5-19.5c14.2-4.1,18.2-4.1,18.6-3c0.8,1.8-7.5,6.9-6.6,8.5c0.5,0.9,3.4-0.6,6.5,0.5c3,1.1,4.6,4.3,5.4,6.6 C274.8,452.7,276.8,451.1,278.8,449.4z"/> <path class="st48" d="M271.5,449.5c-11.6,1.9-21.7,7.6-33,11.1c-14.2,4.1-21.4,20.6-33.3,29.5c-8.7,7.6,1.7,22.2,10.7,20.9 c1.2,0,2.3,0,3.5,0c11.6-2.9,20.3-14.6,30.7-20.9c7.2-7.9,18.5-7.9,24.1-19C280.2,465.3,280.2,452.4,271.5,449.5z"/> <path class="st60" d="M295.4,407.3c-14.8-5.4-21.1-3.8-24-1c-1.8,1.7-2.7,4.1-6.7,7.3c-4,3.3-5.7,2.8-7.3,5.3 c-1.2,1.8-0.5,5.2,0.6,11.9c0.3,1.6,0.5,2.8,1.5,3.7c1.7,1.7,3.6,0.5,5.9,1.5c4.1,1.8,2.2,8,6.9,11.5c2.3,1.7,4.9,1.8,6.5,1.9 c1.6,0.1,6.6,0.3,8.7-2.6c1.9-2.8-0.5-5.7,1.5-8c1.9-2.1,4.9-0.4,6.5-2.5c1.3-1.8-0.3-3.6,0.7-8c0.4-1.9,1.1-3.1,1.4-3.9 C298.6,421.7,299,416.8,295.4,407.3z"/> <path class="st57" d="M269.7,451.7c0,0,10.1,7,7.1,13.2c-3,6.2-18.4,21.2-25.8,19c-7.4-2.3-15.9-3.9-17-2.5 c-1.1,1.5,14.6,3.8,13.1,6c-1.6,2.2-20.8,21.3-26.9,23.1c-6.1,1.9-19.1-9.8-16.8-15.2c2.3-5.4,21.5-24.2,25.3-26.1 c3.7-1.8,24.4-14.7,30.8-14.2c6.4,0.5,9.2-1.5,3.9-4.7c-5.3-3.1-27.2,8.8-35.3,13.5c-8.1,4.7-29.3,29.7-28.7,33.1 c0.5,3.3,9.6,17.2,17.8,15.7c8.3-1.5,29.9-20.6,32.4-23.7c2.5-3,20.1-8.1,24.9-13c4.8-4.9,8.8-17.9,5.8-20.1 c-2.9-2.2-7.6-6.6-9.3-6.2C269.3,450,269.7,451.7,269.7,451.7z"/> <path class="st61" d="M275.3,493.6c0,0,2.9,11.4,1.2,15.5c-1.7,4.1-17.1,9.2-20,5.4c-2.9-3.8-0.3-15.5-0.3-15.5 S275.5,494.3,275.3,493.6z"/> <linearGradient id="SVGID_8_" gradientUnits="userSpaceOnUse" x1="-743.9831" y1="394.1671" x2="-743.9831" y2="436.2132" gradientTransform="matrix(-1 0 0 1 -480.9572 0)"> <stop offset="0" style="stop-color:#D16CAA"/> <stop offset="0.1128" style="stop-color:#C55D94"/> <stop offset="0.3447" style="stop-color:#AB3D6D"/> <stop offset="0.5513" style="stop-color:#941A4D"/> <stop offset="1" style="stop-color:#7D1F61"/> </linearGradient> <path class="st62" d="M297.8,397.7c1.2,1.4,4.5,5.7,4.8,12c0.4,8-4.1,13.5-5.1,14.6c-2.8-0.4-6.8-0.6-10.7,1.2 c-5.4,2.5-5.5,6.4-11.1,9c-5.5,2.5-11.2,1.4-12.9,1c-4.9-1-5.2-2.8-11.7-5.2c-5.5-2-6.7-1.2-12.3-2.8c-4.7-1.4-15.6-5.3-15.3-8.7 c0.3-3.7,13.7-1.4,29.3-10c10.7-5.8,11.4-10.8,20.1-13.5C282.4,392.5,291.7,395.2,297.8,397.7z"/> <path class="st63" d="M223.6,410.8c0,0-0.6-3.8-4.4,1c-1.6,2-2.6,6.1-0.5,8.1c0.3,0.3,1.3,1.1,3.4,1.1c4.5-0.2,7.2-3.8,6.7-6.3 C228.5,412.8,226.3,411.2,223.6,410.8z"/> <path class="st64" d="M278.8,449.4c0,0,5.3,4,6.3,10.2c1.1,6.3-1.6,24-1.2,29.1c0.4,5.1,2.8,17.2,2.1,18.9 c-0.8,1.7-0.8,1.3-2.1-1.1c-1.4-2.4-3-16.3-2.9-18.2c0.1-1.9,2.7-24.4,1.6-28.1c-1.2-3.7-7.3-7.9-7.2-9.8 C275.5,448.4,278,448.8,278.8,449.4z"/> <path class="st63" d="M276.1,488.5c0,0-13.3,9.5-18.8,6.7c-5.5-2.9-4.1,2.9-2,4.1c2,1.3,11.6,0.6,15.4-1.6 c3.8-2.2,6.1-6.7,6.1-6.7L276.1,488.5z"/> <path class="st65" d="M121.2,655l83.4-146.2c0,0-1.4-5.5-2.8-3.7c-1.4,1.8-81.8,149-81.8,149L121.2,655z"/> <path class="st63" d="M201.4,501c-1.3,0.5-6.9,2.8-9.8,9c-2,4.2-1.7,8-1.5,9.7c7.7,1,10.5-0.1,11.3-1.7c0.9-1.8-0.3-5.2,0.3-5.3 c0.1,0,0.3,0.1,0.5,0.4c0.8,1.2,1.4,2.7,1.3,3.8c-0.3,3.2-5.6,5.4-5.8,5.1c-0.3-0.4,11.5-5.6,11.3-12.2 C208.9,506.2,205.4,503.3,201.4,501z"/> <path class="st65" d="M356.7,613L329,438.5c0,0-5.7-0.8-5.7,1.6c0.1,2.4,32,173,32,173L356.7,613z"/> <path class="st66" d="M356.1,601.2c1.6-0.5,11.2-2,7.9,1.8c-3.3,3.9-14.9,8.5-19.1,4.7c-4.2-3.8,4.8-5.3,4.8-5.3s1.3,1.8,0.5,2.1 c-0.9,0.3-4.1,0.8-2.6,1.6c1.5,0.8,10.4-0.9,10.2-2.3c-0.2-1.4-2.1-0.6-2.1-0.6L356.1,601.2z"/> <path class="st66" d="M131,647.5c1.6,0.8,10.8,6.8,5.4,7.4c-5.3,0.6-18.1-4.5-19.1-10.6c-1-6.2,7.5-0.7,7.5-0.7s-0.1,2.5-1,2 c-0.9-0.4-4-2.4-3.3-0.7c0.7,1.7,9.3,7,10.1,5.8c0.7-1.3-1.4-2.1-1.4-2.1L131,647.5z"/> <path class="st64" d="M317.7,448.3c2.5-4.7,3.8-7.1,3.8-7.1l0,0c-1.5,3.1,3-7.8,6.4-7.9c2.8-0.1,5.1,5.2,5.9,7.2 c1.6,3.7,3.6,8.4,1,12.5c-1.7,2.7-5.4,5-9.3,4.3C321.3,456.6,318.1,452.9,317.7,448.3z"/> <path class="st21" d="M209.7,500.5c0,0,1.7-1.9,0.8-2.3c-1-0.4-3.5-2-4.6-0.9c-1.1,1.1-0.4,3.9-2,4.2c-1.6,0.3-3.6,1.6-2.7,2.7 c0.9,1.1,0.4,3.2-1,3.3c-1.4,0-2.8,1-2.6,2c0.2,1,0.6,2.3-0.7,2.5c-1.2,0.2-2.8,1.9-2.3,2.4c0.5,0.5,5.6,2.1,6.2,1.4 C201.3,515.1,209.7,500.5,209.7,500.5z"/> <path class="st53" d="M219.3,511"/> </g> </g> </svg>