<?xml version='1.0' encoding='utf-8'?>
<svg xmlns="http://www.w3.org/2000/svg" viewBox="0 0 3614.62 1935.46"> <defs> <style> .cls-1, .cls-2, .cls-4, .cls-5, .cls-7 { fill: #f2ec00; } .cls-1, .cls-2, .cls-3, .cls-4, .cls-5, .cls-6 { stroke: #000; stroke-linecap: round; stroke-linejoin: round; } .cls-1 { stroke-width: 12.74px; } .cls-2, .cls-3 { stroke-width: 23.77px; } .cls-4 { stroke-width: 13.42px; } .cls-5 { stroke-width: 16.99px; } .cls-6 { fill: #fff; stroke-width: 14.62px; } </style> </defs> <title>Race Skis and Boots</title> <g id="Layer_2" data-name="Layer 2"> <g id="Race_Skis_and_Boots" data-name="Race Skis and Boots"> <g> <g> <path class="cls-1" d="M965.83,1456.69l278.43-157.35-30.1-53.26,43.53-24.6-19.8-35c-10.07-17.82-23.37-28.2-40.62-19.25C1145.52,1194.05,907.68,1353.79,965.83,1456.69Z"/> <path d="M2257.4,720.64c-12.25-38.15-42.23-36.75-71.38-86.67C2155,581.33,2084.2,348.22,2084.2,348.22l-90.57,51.19s36.21,122.39,62,197.73c-42.33,22.61-28.43,137.76,102.31,126.09C2274.74,711.8,2270.3,760.57,2257.4,720.64Z"/> <g> <g> <g> <path class="cls-2" d="M1180.53,370.15C1331,464.23,1440.15,664.47,1513,708.54c121.91,73.43,229.8,84.12,320.52,76.29-195.59-452.34-242.42-549.54-412.78-667.76s164.39,322.83,160,312.12c0,0-44-121.43-82.93-140.55s-209.21-33.43-251-31.14c-83.51,4.59-142.37,30.62-80.59,97.26l14.27,15.39Z"/> <path class="cls-3" d="M1932.33,674.7c-213.5-250.42-321.24-422.12-435.44-512.3s5.1,172.45,5.1,172.45-437.81-92.35-312.58,68.64c213.28,274.17,300.75,381.64,312.91,402.24-125.56,120.49-215.63,245-266.45,348,5.1,43.44,26.75,79.55,26.75,79.55l-29.45,17.37,31.91,54.08,223.16-131.67,345.45-189.76c60.08-33,254.08-148.83,254.08-148.83L2049.72,770l-43.51,24.59S1988.09,740.1,1932.33,674.7Z"/> <g> <path class="cls-2" d="M1615.52,503.55c-24.55-5-62.65,26.05-104.93,72.72-79.26,86.87-165.52,6.13-165.74,22-.15,18.46,54.63,70.49,105.67,80.71,54.94,11.28,117.24-14.63,163.2-61.8C1667,562.87,1657.34,512.26,1615.52,503.55Zm108,139.05c-24.55-5-62.65,26-104.93,72.72-79.27,86.87-165.52,6.13-165.74,22-.15,18.46,54.63,70.48,105.66,80.71,55,11.27,117.25-14.63,163.21-61.8C1774.94,701.92,1765.31,651.31,1723.49,642.6Z"/> <path class="cls-2" d="M1640.94,761.25c6.07,7.21,2.84,9.93,1.53,19.14s-2.79,14,5.66,20.2c8.1,6.15,65.2-26.28,115.36-65.14s93.37-84.11,55.58-120.53-79.39-15.54-125,24.54-95.09,99.37-90.41,108.39,9.83,8.59,18.94,9C1631.64,756.76,1634.87,754,1640.94,761.25Z"/> <path class="cls-2" d="M1530.06,622.25c6.49,6.89,3.41,9.79,2.6,19.1s-2,14.2,6.79,19.92c8.46,5.72,63.87-29.95,112-71.67s88.88-89.46,49-123.86-80.42-11.16-123.84,31.53S1486.82,602.11,1492,610.9s10.32,8.05,19.48,8C1520.5,618.27,1523.58,615.37,1530.06,622.25Z"/> </g> </g> <g> <path class="cls-2" d="M1228.5,452.75c60.51,2.63,111.3,22.23,217.08-28.85s93.23-241.15,125-210.75c86.16,79,73.62,60.61,17.21,187.25-40,74.9-119.66,131.79-210.72,151.36C1272,574.74,1250.91,517.1,1228.5,452.75Z"/> <path class="cls-2" d="M1472.32,398.12c6-1.88,10.62-3.75,23.48-.77s26.2,11.48,30.51,23.06,6.14,24,5,33.21-7.06,19.05-15.86,27.59-85.37,55.21-136.36,67.88c-104.27,26.28-127.14-30.66-151.58-94.28,60.57.72,112,18.71,216.07-35.69a121.25,121.25,0,0,0,28.73-21Z"/> </g> </g> <path class="cls-4" d="M1493.19,908.78s-22.56-14-42-12.82-40-7.33-52.53-10.16-35.54,27.61-36.78,51.9c39,15.95,83.78,30,159.71,29.12C1559.53,940.86,1493.19,908.78,1493.19,908.78Z"/> <path class="cls-5" d="M1438.35,922.86c-.78,7.11-4,6.76-9.71,10.86s-9.15,5.81-8.12,13.69c.87,7.66,43.67,41.87,94.79,36.49s91.94-18.7,94.5-42.08-34.6-45.23-83.16-61.52c-48.74-16.31-97.94,7.82-100.44,15.12s.43,9.89,5,15.11C1436,915.41,1439.13,915.76,1438.35,922.86Z"/> </g> <path class="cls-1" d="M2376.25,665.59l-281.39,152-29.07-53.82-44,23.76-19.13-35.41c-9.73-18-11.44-34.8,5.32-44.64,12.57-7.38,48.53-37.9,66.46-37.56s17.83,31.55,17.83,31.55,166.63-108.35,230.6-130.32S2348.16,613.59,2376.25,665.59Z"/> <g> <path class="cls-6" d="M340.16,1905.62,3034.88,382.69l9.48-5.35-5.35-9.48-22.45-39.72-5.67-10-9.69,6.21c-1.3.84-4.29,2.7-9.25,5.74-8.34,5.1-19.26,11.67-33.08,19.84-182.82,108.14-577.35,326.91-1263.78,694.75-108.31,58-335.57,188.53-664,380.19-63.82,37.24-130.75,76.38-202.95,118.65-92.86,54.39-366.33,214.8-358.58,210.27-106.33,62.32-155.81,91.11-161.42,93.84-59.25,28.78-153.73,21.55-274.55-27L7.31,1810S6.14,1831.57,63,1872.73s175,81.91,276.44,33.24l.67-.34-10.69-19h0Zm-10.71-19,10.71,19-10.71-19h0c-90.66,43.44-218.55,12.91-273-39.21,95.16,44.67,195.53,51.66,261.26,19.73,6.47-3.14,53.83-30.7,162.92-94.64-7.73,4.53,265.73-155.89,358.58-210.26C911.3,1520,978.23,1480.9,1042,1443.66c328.19-191.5,555.36-321.94,663.34-379.8C2392.05,695.89,2786.82,477,2970,368.66c13.92-8.23,43.76-25.49,52.19-30.65l11.51,20.37Z"/> <path class="cls-7" d="M338.17,1902.1,3032.89,379.18l-22.44-39.72s-194,124.43-1306.85,720.76c-282.33,151.3-1358.29,789-1387.37,803.15-58,28.19-152.25,26-283.36-26.71h0c27.28,56.15,198.67,116.57,305.26,65.46h0l0,0Z"/> </g> </g> <g> <path class="cls-1" d="M1528.78,1371.66,1807.2,1214.3l-30.09-53.25,43.53-24.61-19.8-35c-10.08-17.82-23.38-28.2-40.63-19.25C1708.47,1109,1470.62,1268.75,1528.78,1371.66Z"/> <path d="M2820.35,635.6c-12.25-38.15-42.24-36.75-71.38-86.66-31.07-52.64-101.83-285.75-101.83-285.75l-90.56,51.18s36.21,122.39,62,197.73c-42.33,22.61-28.42,137.76,102.31,126.09C2837.69,626.77,2833.24,675.54,2820.35,635.6Z"/> <g> <g> <g> <path class="cls-2" d="M1743.48,285.12c150.43,94.07,259.61,294.31,332.42,338.38,121.9,73.43,229.79,84.12,320.51,76.29C2200.82,247.45,2154,150.25,1983.64,32s164.39,322.84,160,312.12c0,0-44-121.43-82.92-140.55s-209.22-33.43-251-31.14c-83.5,4.59-142.37,30.62-80.59,97.26l14.28,15.4Z"/> <path class="cls-3" d="M2495.28,589.66C2281.77,339.24,2174,167.55,2059.84,77.36s5.1,172.45,5.1,172.45-437.82-92.34-312.59,68.64c213.29,274.18,300.76,381.64,312.91,402.25-125.55,120.49-215.63,245-266.45,348,5.1,43.44,26.76,79.55,26.76,79.55l-29.45,17.37L1828,1219.7,2051.19,1088l345.45-189.77c60.07-33,254.08-148.82,254.08-148.82l-38-64.5-43.51,24.59S2551,655.07,2495.28,589.66Z"/> <g> <path class="cls-2" d="M2178.47,418.51c-24.56-5-62.65,26.05-104.93,72.73-79.27,86.87-165.52,6.12-165.74,22-.15,18.47,54.63,70.49,105.66,80.72,54.95,11.27,117.24-14.63,163.21-61.81C2229.92,477.83,2220.29,427.22,2178.47,418.51Zm108,139c-24.55-5-62.65,26-104.93,72.72-79.26,86.87-165.52,6.13-165.73,22-.16,18.46,54.62,70.49,105.66,80.71,54.94,11.28,117.24-14.63,163.2-61.8C2337.89,616.88,2328.25,566.27,2286.43,557.56Z"/> <path class="cls-2" d="M2203.88,676.21c6.07,7.21,2.85,9.93,1.53,19.15s-2.78,14,5.67,20.19c8.09,6.16,65.2-26.28,115.36-65.13s93.37-84.12,55.58-120.54-79.4-15.54-125,24.54-95.09,99.37-90.4,108.4,9.82,8.58,18.94,9C2194.59,671.72,2197.81,669,2203.88,676.21Z"/> <path class="cls-2" d="M2093,537.22c6.48,6.88,3.4,9.78,2.59,19.09s-2,14.2,6.8,19.93c8.46,5.71,63.87-30,112-71.67s88.89-89.47,49-123.86-80.41-11.17-123.84,31.53S2049.77,517.08,2055,525.86s10.32,8.06,19.48,8C2083.44,533.23,2086.52,530.33,2093,537.22Z"/> </g> </g> <g> <path class="cls-2" d="M1791.44,367.71c60.52,2.63,111.31,22.23,217.09-28.85s93.23-241.15,125-210.75c86.16,79,73.62,60.61,17.21,187.25-40,74.9-119.67,131.79-210.73,151.37C1834.92,489.7,1813.85,432.06,1791.44,367.71Z"/> <path class="cls-2" d="M2035.27,313.08c6-1.87,10.62-3.75,23.47-.77s26.21,11.48,30.52,23.06,6.13,24,5,33.21-7.06,19.05-15.86,27.6-85.37,55.21-136.35,67.87c-104.27,26.28-127.15-30.66-151.58-94.27,60.57.71,112,18.7,216.06-35.7a121.31,121.31,0,0,0,28.74-21Z"/> </g> </g> <path class="cls-4" d="M2056.13,823.74s-22.55-14-42-12.81-40-7.33-52.54-10.16-35.54,27.6-36.77,51.89c39,16,83.78,30,159.71,29.13C2122.48,855.82,2056.13,823.74,2056.13,823.74Z"/> <path class="cls-5" d="M2001.29,837.83c-.78,7.1-4,6.75-9.7,10.86s-9.15,5.81-8.12,13.68c.86,7.66,43.67,41.87,94.79,36.49s91.93-18.7,94.49-42.07-34.6-45.24-83.15-61.53c-48.74-16.31-97.94,7.83-100.44,15.12s.43,9.89,5,15.12C1998.89,830.37,2002.07,830.72,2001.29,837.83Z"/> </g> <path class="cls-1" d="M2939.19,580.55l-281.38,152-29.08-53.82-44,23.77s-14.27-26.41-19.13-35.42c-9.73-18-11.44-34.8,5.32-44.63,12.57-7.38,48.52-37.91,66.46-37.56s17.83,31.55,17.83,31.55,166.63-108.36,230.6-130.33S2911.11,528.55,2939.19,580.55Z"/> <g> <path class="cls-6" d="M903.11,1820.58,3597.83,297.66l9.48-5.36-5.36-9.48L3579.5,243.1l-5.66-10-9.69,6.22c-1.31.83-4.29,2.7-9.26,5.74-8.33,5.09-19.26,11.66-33.08,19.84C3339,373,2944.46,591.79,2258,959.63c-108.31,58-335.58,188.53-664,380.19-63.81,37.23-130.75,76.37-202.94,118.65-92.86,54.38-366.33,214.8-358.59,210.26-106.33,62.33-155.8,91.12-161.42,93.84-59.24,28.78-153.72,21.56-274.54-27l-26.25-10.64s-1.18,21.62,55.72,62.78,174.95,81.91,276.44,33.24l.67-.35-10.7-19h0Zm-10.72-19,10.72,19-10.72-19h0c-90.65,43.44-218.55,12.91-273-39.2,95.15,44.66,195.53,51.66,261.26,19.72,6.47-3.14,53.83-30.7,162.92-94.64-7.74,4.53,265.72-155.88,358.57-210.26,72.19-42.27,139.11-81.4,202.92-118.63,328.19-191.51,555.36-321.94,663.34-379.81,686.68-368,1081.45-586.88,1264.58-695.2,13.91-8.23,43.75-25.49,52.18-30.64l11.51,20.36Z"/> <path class="cls-7" d="M901.12,1817.06,3595.84,294.14l-22.45-39.71s-194,124.43-1306.84,720.76c-282.34,151.3-1358.3,789-1387.37,803.14-58,28.19-152.25,26-283.36-26.7h0c27.27,56.14,198.67,116.57,305.26,65.45h0l0,0Z"/> </g> </g> </g> </g> </g> </svg>