<?xml version="1.0" encoding="UTF-8"?>
<svg viewBox="0 0 640 480" xmlns="http://www.w3.org/2000/svg">
 <defs>
  <linearGradient id="b" y2="1">
   <stop stop-color="#fff" stop-opacity=".271" offset="0"/>
   <stop stop-opacity=".678" offset="1"/>
  </linearGradient>
  <linearGradient id="a" y2="1">
   <stop stop-color="#ffff9f" stop-opacity=".961" offset="0"/>
   <stop stop-opacity=".459" offset="1"/>
  </linearGradient>
 </defs>
 <g fill-rule="evenodd">
  <path d="m48.301 326.49c2.643 16.205-13.588 18.458-15.658 25.215 14.631 11.466-23.366 28.938-16.284 34.074 5.028 4.7871 79.782 37.569 92.068 38.844 75.233 15.789 231.36 4.5042 259.92-10.222 34.232-20.966 51.543-23.24 56.992-33.392-3.2259-8.4187-33.486-24.127-26.93-30.666-5.4624-7.4287-29.007-6.6591-23.801-22.489-16.501-5.1303-3.223-0.033295-15.031-9.5409-4.412-1.2002-5.5618-11.585-10.022-11.585-40.228-29.382-236.53-19.762-278.08 4.7713-5.9279 12.826-16.248 12.48-23.174 14.992h-1.1e-5z" fill="#42aa44"/>
  <path d="m77.344 316.73c5.8435 22.818-25.757 78.92-14.792 88.871 125.5-23.791 163.64-39.403 232.69 5.2781 7.9544-10.828 76.944-91.63 60.597-99.427-47.699-19.237-177.88-8.9931-278.49 5.278h-8e-6z" fill-opacity=".227"/>
  <path d="m72.554 159.37c0 18.545 14.047 167.2 17.139 175.1 41.853-7.6968 182.73 27.037 252.05-5.1505 1.9931-2.5449 20.164-151.85 20.164-167.37 3.5532-12.477-285.94-6.4366-289.36-2.574h1.5e-5z" fill="#7f3f00" stroke="#000" stroke-width="12.5"/>
  <path d="m41.284 10.168c13.555 34.896 32.871 105.83-17.635 190.19 134.55-42.189 260.73-40.744 383.14 5.1289-38.335-57.787-54.494-144.09-31.234-191.39-27.8 9.2741-141.93 12.14-165.68 12.701-18.234 0.43061-146.73 0.72352-168.59-16.637v-1e-5z" fill="#bf5f00" stroke="#000" stroke-linejoin="round" stroke-width="12.5"/>
  <path d="m86.318 47.903c0.45068 22.592-4.5918 73.129-16.588 116.34-1.6871 5.1697 0.80282 5.5854 2.2898 1.0308 6.4509-6.4381 16.702-34.711 21.361-66.607 3.3205-23.159-6.052-52.955-7.0622-50.764z" fill="#fff" fill-opacity=".538"/>
  <path d="m121.68 38.399c0.4507 22.592-4.5919 73.129-16.588 116.34-1.6871 5.1697 0.8028 5.5855 2.2899 1.0308 6.4508-6.4382 16.702-34.711 21.361-66.607 3.3205-23.159-6.0521-52.955-7.0622-50.765z" fill="#fff" fill-opacity=".538"/>
  <path d="m161.77 38.536c0.45061 22.592-4.5919 73.129-16.588 116.34-1.6871 5.1696 0.80289 5.5855 2.2898 1.0306 6.4509-6.4379 16.702-34.711 21.361-66.607 3.3206-23.159-6.052-52.955-7.0621-50.765z" fill="#fff" fill-opacity=".538"/>
  <path d="m201.73 32.173c0.45059 22.592-4.5919 73.129-16.588 116.34-1.6871 5.1697 0.8029 5.5856 2.2898 1.0308 6.4509-6.4382 16.702-34.711 21.361-66.607 3.3205-23.159-6.052-52.955-7.0621-50.765z" fill="#fff" fill-opacity=".538"/>
  <path d="m230.74 36.907c0.45059 22.592 7.5037 72.843 21.212 115.45 1.8917 5.0853-0.5793 5.6183-2.2466 1.138-6.7015-6.1275-18.071-33.89-23.997-65.536-4.241-22.981 3.9346-53.191 5.0312-51.05z" fill="#fff" fill-opacity=".538"/>
  <path d="m270.13 40.311c0.45071 22.592 7.5038 72.843 21.212 115.45 1.8918 5.0851-0.57928 5.6181-2.2465 1.1379-6.7016-6.1275-18.071-33.89-23.997-65.536-4.241-22.981 3.9346-53.191 5.0311-51.05z" fill="#fff" fill-opacity=".538"/>
  <path d="m306.53 44.869c0.45071 22.592 7.5037 72.843 21.212 115.45 1.8917 5.0852-0.57941 5.6182-2.2466 1.1378-6.7016-6.1275-18.071-33.89-23.997-65.536-4.2409-22.981 3.9346-53.191 5.0312-51.05z" fill="#fff" fill-opacity=".538"/>
  <path d="m340.61 47.316c0.45071 22.592 7.5037 72.843 21.212 115.45 1.8917 5.0853-0.57941 5.6183-2.2466 1.1381-6.7015-6.1275-18.071-33.89-23.997-65.536-4.241-22.981 3.9345-53.191 5.0311-51.05z" fill="#fff" fill-opacity=".538"/>
  <path d="m189.36 338.49c0-5.771-2.9544-108.78-4.6443-125.09 9.0792 0 41.422-1.5225 55.376 2.1699 2.6581 18.003-5.6374 90.139-5.6374 126.8-7.074 0-42.589 0.4303-45.094-3.8821z" fill="#7f470e" stroke-width="10.963"/>
  <path d="m257.91 263.5c14.256-2.7844 63.779 5.2904 74.287 2.756 1.9263-14.707 3.4608-28.181 4.3474-43.66-6.885-0.7365-66.43-8.405-77.743-8.3173 0.13638 14.29 0.017487 33.107-0.89142 49.221z" fill="url(#a)" stroke="#000" stroke-width="6.25"/>
  <path d="m289.89 216.93c-0.7034 12.471-7.2378 29.315-2.7352 48.494" fill="none" stroke="#000" stroke-width="6.25"/>
  <path d="m319.69 219.81c-3.0098 13.761-6.1416 28.663-3.8681 45.056" fill="none" stroke="#000" stroke-width="6.25"/>
  <path d="m258.45 239.15c6.8688 0.735 68.28 5.3153 75.96 7.7427" fill="none" stroke="#000" stroke-width="6.25"/>
  <path d="m170.4 258.52c-14.258-2.765-63.775 5.378-74.285 2.8579-1.9369-14.705-3.4812-28.176-4.3789-43.654 6.8845-0.74599 66.424-8.496 77.737-8.4239-0.12601 14.29 0.0065 33.107 0.927 49.22z" fill="url(#a)" stroke="#000" stroke-width="6.25"/>
  <path d="m116.22 212.59c0.7124 12.47 7.2591 29.305 2.7703 48.491" fill="none" stroke="#000" stroke-width="6.25"/>
  <path d="m138.5 212.8c-0.974 10.994 9.2725 33.401 6.4653 47.801" fill="none" stroke="#000" stroke-width="6.25"/>
  <path d="m170.77 234.02c-6.8682 0.74431-68.276 5.4089-75.955 7.8468" fill="none" stroke="#000" stroke-width="6.25"/>
  <path d="m191.88 338.49c0-5.771-1.9973-108.78-3.6872-125.09 9.0793 0 39.508-0.52051 55.376 2.1699 2.6582 18.003-4.6802 88.135-6.5944 126.8-7.074 0-42.589 0.4303-45.094-3.8821z" fill="url(#b)" stroke="#000" stroke-width="11.25"/>
  <path d="m54.93 21.754c70.937 15.862 249.62 13.563 312.9-1.0603-12.014 33.589-10.495 50.717-2.7629 93.807-176.75-58.499-203.75-33.347-302.51-5.7911 8.2362-41.135-2.8356-53.337-7.6207-86.955z" fill="#fff" fill-opacity=".663"/>
  <path d="m77.633 188.66c65.893-22.565 221.4-24.841 278.67 0.6822-4.0977 25.572-3.9866 46.039-6.4752 65.081-88.462-55.754-222.35-43.265-268.15-10.22-4.3767-38.389-3.0959-21.924-4.0526-55.543h2.3e-5z" fill="#000059" fill-opacity=".335"/>
 </g>
</svg>
