<svg xmlns="http://www.w3.org/2000/svg" viewBox="0 0 360.95 509.94"><defs><style>.cls-1{fill:#020101;}.cls-11,.cls-2,.cls-6{fill:#fff;}.cls-3{fill:#f04785;}.cls-4{fill:#bebebe;}.cls-5{fill:#b4d3fe;}.cls-10,.cls-11,.cls-13,.cls-6,.cls-8,.cls-9{stroke:#000;stroke-linecap:square;}.cls-6{stroke-width:0.81px;}.cls-10,.cls-7,.cls-8,.cls-9{fill:#db004c;}.cls-8{stroke-width:1.5px;}.cls-9{stroke-width:0.84px;}.cls-10{stroke-width:1.06px;}.cls-11{stroke-width:0.92px;}.cls-12{fill:#fcfcfc;}.cls-13{fill:#4d4d4d;stroke-width:7.02px;}</style></defs><title>Asset 1</title><g id="Layer_2" data-name="Layer 2"><g id="Layer_1-2" data-name="Layer 1"><g id="document"><g id="document-2" data-name="document"><path class="cls-1" d="M102.71,421.09l5-393.38V22.14h-21l1,5.24-7,393.37v5.39h21Z"/><path d="M16.22,229.67A7.18,7.18,0,1,0,9.36,232c26.5,66.07,107.15,103.41,175.82,82.07a7,7,0,0,0,3.21,1l47.44,146-.07.06a7.18,7.18,0,1,0,10.16-.12,7.12,7.12,0,0,0-3.08-1.77L195,311.78a7.18,7.18,0,1,0-13.25-4.19C117,326.9,41.28,291.58,16.22,229.67ZM168,379.06q-.31-1.53-.72-3.3c-1.75-7.83-3.87-15.85-6.31-23.24a100.27,100.27,0,0,0-7.49-17.86c-3.4-6-7-9.63-11.37-10.45l-.35-.07h-.37c-5.13.06-18.25,2.92-37.51,7.87-7.48,1.92-15.46,4.05-23.52,6.26-4.91,1.34-9.21,2.54-12.61,3.5L54,292.83l-1-3.48-7,2,1,3.48,31.78,113.1,1,3.48,3.49-1L170.2,386l3.49-1-2-7-3.49,1Zm-7,1.54L81.32,403l4.46,2.51L69.71,348.33c3.38-.95,7.67-2.15,12.56-3.49,8-2.2,16-4.32,23.41-6.23,18.45-4.74,31.53-7.59,35.8-7.65l-.71-.06c3.7.7,8.75,9.57,13.32,23.46,2.36,7.14,4.42,14.94,6.13,22.56Z"/><path class="cls-2" d="M64.37,220.27c-7.8-2.42-21-4-29.41,5.91s1.13,22.6,1.13,22.6,2.51,3.87,3.16,4.54l3.42,3.54a2.05,2.05,0,0,0,3.25-.4,73.5,73.5,0,0,1,28.16-27.24,2.06,2.06,0,0,0,.5-3.22S72.17,222.69,64.37,220.27Z"/><path class="cls-3" d="M62.79,236.35c-3.77,4.1-12.57,10.16-27.51,11.42,2.4,6.32,6,8.15,6,8.15s14.72-3.17,21.26-6.82,12.13-5.13,17.75-7.51c3.12-1.56-.08-5.71-1.51-10.9S75.74,223,69.52,225,61.51,233.25,62.79,236.35Z"/><path class="cls-4" d="M76.34,242.22a7.67,7.67,0,1,1-3.85-14.85L77,226.18s.85,1.39.85,1.39l3.87,10.72s-.87,2.54-1.82,2.79Z"/><path class="cls-3" d="M251.13,468.78l-65-190.51-.85-2.5-5,1.7.86,2.5,65,190.51s6.79,15.64,8,15.22S251.13,468.78,251.13,468.78Z"/><path class="cls-3" d="M258.74,467l-20.13,6.32s-1.89,1.46-1.74,2,2.31.22,2.31.22l20.13-6.33s2.31-1.42,2.17-2S258.74,467,258.74,467Z"/><path d="M200.36,313.52l-14-40.73-8.4,3.14,14,40.73Z"/><path class="cls-5" d="M39.27,255.12C48.73,274.25,59.94,271.22,55,287S87,389,87,389l53.73-13.37c11.78-2.93-14.62-18.23-18.78-47.33,21.65-6,76.05-23.49,76.05-23.49l-15.72-15.92c-14.28-1.51-68,29.75-73.79,6.42S86.23,268,84.41,266.72c-3.65-2.62-6.75-8.45-1.25-28.8Z"/><path class="cls-5" d="M194.91,307.19c7.27-2.91,11.11-10.43,8.57-16.78s-10.5-9.15-17.77-6.25l-7.77,3.11-.06,0a1.71,1.71,0,0,0,0,3.31,11.39,11.39,0,0,1,6.92,17.31,1.71,1.71,0,0,0,2.28,2.4l0,0Z"/><path class="cls-3" d="M201.52,302.86c-3.24-13.79-6-24.58-16.91-31.65a3,3,0,0,0-4.52-.07,3.14,3.14,0,0,0-.52,4.42s6.31,1.95,8.88,6.33,10.07,16.95,6,26.08C194.44,308,199.48,306.47,201.52,302.86Z"/><path d="M16.76,229.68A7.17,7.17,0,1,0,9.9,232c26.51,66.07,107.16,103.41,175.82,82.07a7.19,7.19,0,0,0,3.22,1l6.55-3.34a7.18,7.18,0,1,0-13.24-4.18C117.56,326.91,41.82,291.59,16.76,229.68ZM168.55,379.06q-.33-1.53-.72-3.3c-1.76-7.83-3.88-15.85-6.31-23.24a100.22,100.22,0,0,0-7.5-17.86c-3.4-6-7-9.63-11.36-10.45l-.36-.07h-.36c-5.14.06-18.25,2.92-37.52,7.87-7.48,1.92-15.45,4.05-23.52,6.26-4.9,1.34-9.21,2.54-12.6,3.5L54.54,292.83l-1-3.48-7,2,1,3.48,31.78,113.1,1,3.48,3.49-1L170.75,386l3.48-1-2-7-3.48,1Zm-7,1.55L81.86,403l4.46,2.51L70.25,348.34c3.38-1,7.67-2.15,12.56-3.49,8-2.2,16-4.32,23.42-6.23,18.45-4.74,31.52-7.59,35.8-7.65l-.72-.06c3.7.7,8.75,9.56,13.33,23.46,2.35,7.14,4.41,14.94,6.12,22.56C161.06,378.26,161.32,379.49,161.56,380.61Z"/><path class="cls-2" d="M174,379.32l44.86,62.83,14.55-36.79L186.3,349.24a22.08,22.08,0,0,0-15.54-3.76L130.7,376.09c-.8.12-5.42,4.9-5.7,5.76L91,393.22a2.4,2.4,0,0,0,2.83,3l64.66-19.71A21.24,21.24,0,0,1,174,379.32Z"/><path class="cls-6" d="M280.09,446.94,260.66,452l-1-3.72-3,.79-.63-2.44c-.33-1.24-.18-2.29,1-2.64C260.51,443,278.21,439.76,280.09,446.94Z"/><path class="cls-7" d="M189.71,470.21c-1.11-2.26.3-3.5-.57-7-.9-3.73-7.9-17.33-7.9-17.33l6.32-1.65s3.72,7.1,5.85,11.62c2.89-.83,7.3,5,.9,10.16C188.54,470.57,190.88,472.57,189.71,470.21Z"/><path class="cls-8" d="M222.93,407.36c-2.67,10.81,1.16,24.61-.2,29.77a32.06,32.06,0,0,1-11.11,17.45c-11-28.94-13.09-35.37-10.57-48.14s6.7,21.74,6.42,21.06c0,0-3.32-7.39-2.4-10s8-10.64,10-12.36c4-3.45,7.75-4.85,7.88.86l0,1.32Z"/><path class="cls-8" d="M202.35,453.93c-1.32-20.61-4-33.06-2.75-42.11s7.3,8,7.3,8,15.7-23.29,17.09-10.56c2.37,21.67,3.12,30.34,3.47,31.8,10.93-.06,20.43,1.62,27.22,4a14.28,14.28,0,0,1,2.27,4.75l2.08-.5.93,3.83L244.15,457l-23.86,6.54c-4.15,1.14-18,4.4-18,4.4l-1.1-4.57,3-.8A25.38,25.38,0,0,1,202.35,453.93Z"/><path class="cls-8" d="M209.15,432.37c.89-1.29,4-1.56,7.91-1.3,7.37.45,7.73-7,8.43-6.26s.62,5.57-1.24,8.26c-2,2.91-5.92,4.46-10.05,4.35C209.43,437.3,207.65,434.6,209.15,432.37Zm1.22,11c.88-1.3,4-1.57,7.9-1.31,7.37.45,7.73-7,8.43-6.25s.62,5.56-1.23,8.25c-2,2.91-5.93,4.47-10.06,4.35C210.64,448.28,208.86,445.58,210.37,443.36Z"/><path class="cls-8" d="M219.27,445.1c0,.59.31.57.77.93s.73.51.62,1.16-4.08,1.66-8,2.1-7.89.29-7.77-3,2.9-4.17,6.7-4.36,8.63.33,8.81.94-.07.82-.46,1.23S219.23,444.51,219.27,445.1Z"/><path class="cls-8" d="M218.19,434c0,.59.28.59.72,1s.71.56.56,1.2-4.18,1.44-8.17,1.66-7.92-.15-7.62-3.44,3.13-4,7-4,8.62.8,8.77,1.42-.11.82-.53,1.22S218.19,433.4,218.19,434Z"/><path class="cls-8" d="M224.38,413.17c-2.61,2.77-4,5.87-11,8.19s-14.74-6.8-14.84-4c-.43,7.33-.67,5.95,7.41,9.19A19.73,19.73,0,0,0,222,424.13C227.75,420.57,226.18,417.05,224.38,413.17Z"/><path class="cls-8" d="M211,421.37a2.2,2.2,0,0,0-1.09,1,2.71,2.71,0,0,0-.37,2.38,4.57,4.57,0,0,0,1.23,1.71,3.06,3.06,0,0,0,1.92.56,31.12,31.12,0,0,0,9.11-2.91c5.85-3.37,4.39-6.93,2.71-10.87-2.7,2.68-4.22,5.74-11.3,7.83a7.62,7.62,0,0,1-2.21.32Z"/><path class="cls-9" d="M232.38,445.29a5.42,5.42,0,0,1,1.33-2.41,11.24,11.24,0,0,0,1.92-2.75c.45-.68,2.81-.31,3.93.73a23.71,23.71,0,0,1-5.93,8.29C230.79,449.64,232.38,445.29,232.38,445.29Z"/><path class="cls-10" d="M235.46,443.53c.35.29.48.13.92.07s.66-.14,1,.26-.14,3.8-2.68,5.79-5,3.17-6.1,2.23-.41-3.55,1.06-6.41,4.76-3.93,5.19-3.71.41.47.44.9S235.12,443.25,235.46,443.53Z"/><path class="cls-6" d="M182,472.92l19.32-5.45-1-3.69,3-.85-.68-2.44c-.35-1.23-1-2.06-2.19-1.77-.89.21-3.85.41-4.64,1.21s.58,2.2.58,2.2-12.25,2.4-16.09,4.2S180.94,469.35,182,472.92Z"/><path class="cls-11" d="M349.15,433.52l-218.06,57-.66.18-.18-.67-.72-2.77-.18-.69.71-.15.66-.14,2.36-.56c13-3.11,49.12-12.08,96.13-25.5,7.42-2.12,23.37-6.17,46.54-11.88l14.34-3.52,25.35-6.2c7.51-1.83,32.24-9,32.62-9.14,3.92-1.29,7.87-5.74,11.19-13.21l.72-1.63s1,.93.23,5.27-4.31,11.33-11,13.57l0,0-.35-1.32h0Zm-.35-.88.35,1.33-.35-1.33h0c6-2,10.42-9,10.6-13.7-2.34,6.17-6.56,10.88-10.92,12.31-.42.14-25,7.28-32.72,9.17l-25.35,6.19-14.33,3.52c-23.16,5.71-39.1,9.76-46.49,11.87-47,13.42-83.2,22.4-96.19,25.52l-3.69.9.37,1.42Z"/><path class="cls-5" d="M348.37,433.14l-216,56.22-.73-2.77s21.74-3.67,98-25.42c19.34-5.52,116.12-30.1,118.05-30.73,3.85-1.27,8-5.48,11.6-13.59h0c1.23,3.73-3.86,13.94-10.89,16.29h0Z"/><path class="cls-6" d="M288,398l-14.47,13.92-2.66-2.76-2.26,2.17s-1.31-1.35-1.75-1.82c-.89-.92-1.28-1.91-.43-2.78C268.93,404.05,282.81,392.61,288,398Z"/><path class="cls-7" d="M220.49,462.42c-2.08-1.42-1.45-3.2-3.93-5.85-2.61-2.81-15.36-11.25-15.36-11.25l4.7-4.53s6.72,4.38,10.79,7.28c2.11-2.14,8.79.76,5.74,8.42C219.65,463.31,222.66,463.92,220.49,462.42Z"/><path class="cls-8" d="M218.75,391.35c2.95,10.74,13,20.91,14.38,26.08A32,32,0,0,1,232,438.08c-23.69-19.89-28.7-24.46-32.75-36.82s16.47,15.68,15.9,15.23c0,0-6.51-4.83-7-7.51s1.75-13.19,2.64-15.66c1.77-4.94,4.4-8,7.3-3.1l.67,1.13Z"/><path class="cls-8" d="M223.56,442.05c-11.23-17.35-19.62-26.91-23-35.4s10.28,3.41,10.28,3.41,2.31-28,9.74-17.57c12.67,17.75,17.56,24.94,18.58,26,9.5-5.39,18.61-8.57,25.72-9.77a14,14,0,0,1,4.3,3l1.58-1.46,2.68,2.89-11.93,11.06L243.9,441.66c-3.06,3-13.51,12.6-13.51,12.6l-3.2-3.44,2.26-2.18A25.49,25.49,0,0,1,223.56,442.05Z"/><path class="cls-8" d="M219,419.92c.14-1.57,2.69-3.31,6.26-5,6.65-3.21,3.34-9.85,4.29-9.58,1.12.33,3.26,4.56,3,7.81-.31,3.51-3,6.79-6.64,8.71C221.6,424.08,218.73,422.59,219,419.92Zm6.42,9c.14-1.57,2.69-3.3,6.26-5,6.65-3.21,3.34-9.85,4.3-9.57,1.11.32,3.26,4.55,3,7.8-.31,3.51-3,6.79-6.65,8.71C228,433.07,225.16,431.58,225.38,428.91Z"/><path class="cls-8" d="M234,426.07c.33.5.55.35,1.13.44s.89.08,1.11.7-2.75,3.45-6,5.77-6.74,4.11-8.25,1.18.49-5.05,3.72-7.08,7.69-3.93,8.14-3.49.35.75.21,1.3S233.68,425.58,234,426.07Z"/><path class="cls-8" d="M227.63,416.91c.3.51.53.38,1.1.5s.9.13,1.08.76-2.95,3.31-6.32,5.45-7,3.74-8.33.72.77-5,4.12-6.88,7.92-3.52,8.35-3,.3.76.13,1.31S227.34,416.39,227.63,416.91Z"/><path class="cls-8" d="M222.85,395.72c-.93,3.69-.66,7.1-5.63,12.54S201,409.54,202.3,412c3.2,6.61,2.32,5.52,10.95,4.4a19.69,19.69,0,0,0,12.89-10C229.41,400.53,226.32,398.23,222.85,395.72Z"/><path class="cls-8" d="M215.19,409.41a2.23,2.23,0,0,0-.47,1.4,2.7,2.7,0,0,0,.84,2.25,4.69,4.69,0,0,0,1.91.89,3.05,3.05,0,0,0,1.94-.46,30.8,30.8,0,0,0,6.53-7c3.46-5.8.44-8.2-2.95-10.81-1,3.66-.88,7.07-6,12.36a7.89,7.89,0,0,1-1.78,1.35Z"/><path class="cls-9" d="M245.53,419.84a5.45,5.45,0,0,1,0-2.76,11.27,11.27,0,0,0,.34-3.34c.05-.81,2.3-1.65,3.78-1.28a23.47,23.47,0,0,1-1.12,10.13C246.27,424.4,245.53,419.84,245.53,419.84Z"/><path class="cls-10" d="M247.36,416.79c.44.08.48-.12.83-.39s.51-.45,1-.24,1.73,3.37.49,6.35-2.77,5.2-4.23,4.93-2.1-2.89-2.2-6.1,2.23-5.76,2.71-5.77.59.2.82.57S246.92,416.71,247.36,416.79Z"/><path class="cls-6" d="M215,468.58l14.2-14.19-2.72-2.72,2.23-2.22L227,447.67c-.91-.91-1.89-1.32-2.78-.49-.67.63-3.15,2.24-3.46,3.33s1.58,1.64,1.58,1.64-9.51,8.07-12,11.53S212.42,466,215,468.58Z"/><path class="cls-11" d="M341.65,352.48,179.29,508.82l-.49.47-.48-.49-2-2.06-.51-.52.55-.47.52-.46,1.78-1.63c9.79-9.05,36.94-34.56,71.4-69.24,5.44-5.47,17.37-16.8,34.79-33.12,3.39-3.17,6.94-6.49,10.79-10.07l19.08-17.8c5.66-5.27,23.73-23.63,24-23.92,2.8-3,4.06-8.85,3.31-17l-.17-1.77s1.32.31,2.77,4.47,1.79,12-3,17.23l0,0-.95-1h0Zm-.95-.84.95,1-.95-1h0c4.24-4.67,4.7-12.91,2.54-17.13,1,6.53-.4,12.69-3.5,16.07-.31.34-18.26,18.58-24.06,24l-19.09,17.79c-3.84,3.58-7.4,6.91-10.78,10.08-17.42,16.3-29.34,27.62-34.76,33.08-34.47,34.69-61.64,60.21-71.44,69.28l-2.78,2.59,1,1.05Z"/><path class="cls-5" d="M340.75,352.47,179.81,507.08l-2-2.07s17.17-13.81,73-70c14.17-14.27,86.59-83,88-84.52,2.74-3,4.3-8.69,3.49-17.52h0c2.88,2.65,3.44,14-1.55,19.54Z"/><path class="cls-12" d="M191.69,393.15l5.52,61.53,36.58-15.89L226,360.07c-11.57-23.54-20.25-21.34-33.49-20.66S132.34,357,132.34,357s4.78,5.37-2.24,11.93-42.62,18.22-42.62,18.22c-1.3,1.31,3.48,13.16,5.31,13.67l80.41-23C178.55,379.19,192,375.52,191.69,393.15Z"/><path class="cls-1" d="M84.31,428.93a13.84,13.84,0,1,0-4.77-19A13.83,13.83,0,0,0,84.31,428.93Z"/><path class="cls-1" d="M3,230.4a10.72,10.72,0,1,0,.24-15.15A10.71,10.71,0,0,0,3,230.4Z"/><path class="cls-1" d="M240.29,479.52A8.42,8.42,0,1,0,232,471,8.41,8.41,0,0,0,240.29,479.52Z"/><path class="cls-13" d="M93.78,16.45C72,28.86,57.69,44.63,61.83,51.71l4.57,8c1.53,2.69,9.42,1.12,17.72-3.59l48.81-27.76c8.21-4.67,13.69-10.67,12.14-13.4l-4.56-8C136.45-.16,115.52,4.08,93.78,16.45Z"/></g></g></g></g></svg>