<svg xmlns="http://www.w3.org/2000/svg" viewBox="0 0 2557.67 964.25">
    <defs>
        <style>.cls-1{fill:#4d4d4d;}</style>
    </defs>
    <title>Asset 4</title>
    <g id="Layer_2" data-name="Layer 2">
        <g id="Layer_1-2" data-name="Layer 1">
            <g id="document">
                <g id="document-2" data-name="document">
                    <path class="cls-1" d="M543,961.82C1174.55,897.15,2359.24,294.51,2553.46,12l4.21-3.62L2550.42,0l-4.21,
                    3.63C2361.35,260.13,1220.36,887.17,539.93,951.15a49.8,49.8,0,0,1-10.37,
                    1.76c-19.22,1.37-52.07.44-102-4.2-26.08-2.42-41.43-11.42-62.22-32.72.41.42-15.24-16-20.17-20.82C306.51,
                    857.34,261,838.46,176,836.05,91.34,833.65,35.86,852.4,4.16,885.72c-8.87,29.45-2.29,18,7.8,7.42,29.39-30.9,
                    81.92-48.65,163.75-46.33,82.32,2.33,125.23,20.14,161.88,56,4.78,4.69,20.3,21,20,20.66,22.41,23,39.91,33.22,
                    68.93,35.91,50.51,4.69,83.92,5.64,103.8,4.22Z"/>
                </g>
            </g>
        </g>
    </g>
</svg>
