<svg xmlns="http://www.w3.org/2000/svg" viewBox="0 0 339.7 508.45"><defs><style>.cls-1{fill:#020101;}.cls-2{fill:#3a3a3a;}.cls-3{fill:#bebebe;}.cls-10,.cls-11,.cls-13,.cls-14,.cls-4,.cls-7,.cls-8{fill:#f2ec00;}.cls-17,.cls-5{fill:#4d4d4d;}.cls-6{fill:#a40017;}.cls-10,.cls-11,.cls-12,.cls-13,.cls-14,.cls-15,.cls-16,.cls-17,.cls-7,.cls-8,.cls-9{stroke:#000;stroke-linecap:square;}.cls-7{stroke-width:0.78px;}.cls-8,.cls-9{stroke-width:1.48px;}.cls-10{stroke-width:0.84px;}.cls-11{stroke-width:1.06px;}.cls-12,.cls-16{fill:#fff;}.cls-12{stroke-width:0.89px;}.cls-13{stroke-width:0.81px;}.cls-14,.cls-15{stroke-width:1.5px;}.cls-16{stroke-width:0.92px;}.cls-17{stroke-width:7.02px;}</style></defs><title>Asset 2</title><g id="Layer_2" data-name="Layer 2"><g id="Layer_1-2" data-name="Layer 1"><g id="document"><g id="document-2" data-name="document"><path class="cls-1" d="M102.36,421.09l6-393.39.08-5.16H86.36l1,4.84-7,393.37v4.79h21Z"/><path d="M16.22,229.67A7.18,7.18,0,1,0,9.36,232c26.5,66.07,107.15,103.41,175.82,82.07a7,7,0,0,0,3.21,1l47.44,146-.07.07a7.18,7.18,0,1,0,7.08-1.9L195,311.78a7.18,7.18,0,1,0-13.25-4.19C117,326.9,41.28,291.58,16.22,229.67ZM168,378.46q-.31-1.53-.72-3.3c-1.75-7.83-3.87-15.85-6.31-23.24a100.13,100.13,0,0,0-7.49-17.85c-3.4-6-7-9.64-11.37-10.46l-.35-.07h-.37c-5.13.06-18.25,2.93-37.51,7.87-7.48,1.92-15.46,4.05-23.52,6.26-4.91,1.35-9.21,2.54-12.61,3.5L54,292.24l-1-3.49-7,2,1,3.49L78.81,407.29l1,3.48,3.48-1,86.93-24.42,3.49-1-2-7-3.49,1Zm-7,2.14L81.31,403l4.47,2.5L69.71,348.33c3.38-1,7.67-2.15,12.56-3.49,8-2.2,16-4.32,23.41-6.23,18.45-4.74,31.53-7.59,35.8-7.64l-.72-.07c3.71.7,8.76,9.56,13.34,23.46,2.35,7.14,4.41,14.94,6.12,22.56C160.52,378.25,160.78,379.48,161,380.6Z"/><path class="cls-2" d="M64.37,220.27c-7.8-2.42-21-4-29.41,5.91s1.12,22.6,1.12,22.6,2.52,3.87,3.17,4.54l3.42,3.54a2,2,0,0,0,3.25-.41,73.54,73.54,0,0,1,28.16-27.23,2.07,2.07,0,0,0,.5-3.23S72.17,222.69,64.37,220.27Z"/><path d="M62.79,236.35c-3.77,4.1-12.56,10.16-27.51,11.42,2.4,6.32,6,8.15,6,8.15s14.72-3.17,21.26-6.82,12.13-5.13,17.75-7.51c3.12-1.56-.08-5.71-1.51-10.91S75.74,223,69.52,225,61.51,233.25,62.79,236.35Z"/><path class="cls-3" d="M76.34,242.22a7.67,7.67,0,1,1-3.85-14.85L77,226.18s.85,1.39.85,1.39l3.87,10.72s-.87,2.53-1.82,2.78Z"/><path class="cls-4" d="M251.13,468.78l-65-190.51-.85-2.5-5,1.7.85,2.5,65,190.51s6.79,15.64,8,15.22S251.13,468.78,251.13,468.78Z"/><path class="cls-5" d="M258.74,467l-20.13,6.33s-1.89,1.46-1.75,2,2.32.22,2.32.22l20.13-6.33s2.31-1.42,2.17-2S258.74,467,258.74,467Z"/><path d="M200.36,313.52l-14-40.73-8.4,3.14,14,40.73Z"/><path class="cls-6" d="M39.27,255.12C48.73,274.24,59.94,271.22,55,287S87,389,87,389l53.73-13.37c11.78-2.93-14.62-18.23-18.78-47.33,21.65-6,76.05-23.49,76.05-23.49l-15.73-15.92c-14.27-1.51-68,29.74-73.78,6.42S86.23,268,84.41,266.71c-3.65-2.61-6.75-8.44-1.25-28.79Z"/><path class="cls-2" d="M194.91,307.18c7.27-2.9,11.11-10.42,8.57-16.77s-10.5-9.16-17.77-6.25l-7.77,3.1-.06,0a1.71,1.71,0,0,0,0,3.31,11.38,11.38,0,0,1,6.91,17.31,1.72,1.72,0,0,0,2.29,2.4l0,0Z"/><path class="cls-4" d="M201.52,302.86c-3.25-13.79-6-24.58-16.91-31.65a3,3,0,0,0-4.52-.07,3.14,3.14,0,0,0-.52,4.42s6.31,1.95,8.88,6.32,10.07,17,6,26.09C194.45,308,199.48,306.46,201.52,302.86Z"/><path d="M16.76,229.68A7.17,7.17,0,1,0,9.9,232c26.51,66.07,107.16,103.41,175.82,82.07a7.19,7.19,0,0,0,3.21,1l6.56-3.34a7.18,7.18,0,1,0-13.24-4.18C117.56,326.91,41.82,291.59,16.76,229.68ZM168.55,378.46q-.33-1.53-.72-3.3c-1.76-7.83-3.88-15.85-6.31-23.24a100.09,100.09,0,0,0-7.5-17.85c-3.4-6-7-9.64-11.37-10.46l-.35-.07h-.36c-5.14.06-18.25,2.93-37.52,7.87-7.48,1.92-15.45,4.05-23.52,6.26-4.9,1.34-9.21,2.54-12.6,3.5L54.54,292.24l-1-3.49-7,2,1,3.49L79.35,407.29l1,3.48,3.49-1,86.92-24.42,3.49-1-2-7-3.49,1Zm-7,2.15L81.86,403l4.46,2.5L70.25,348.34c3.38-1,7.67-2.15,12.56-3.49,8-2.2,16-4.32,23.42-6.23,18.45-4.74,31.52-7.59,35.8-7.65l-.72-.06c3.7.7,8.75,9.56,13.33,23.46,2.35,7.14,4.41,14.94,6.12,22.56C161.06,378.26,161.33,379.49,161.56,380.61Z"/><path class="cls-7" d="M287.38,398.58,273.94,413l-2.77-2.57-2.1,2.25L267.25,411c-.92-.86-1.35-1.8-.57-2.71C269,405.59,282,393.61,287.38,398.58Z"/><path d="M224.65,465.52c-2.12-1.28-1.6-3.06-4.18-5.53-2.71-2.62-15.69-10.22-15.69-10.22l4.38-4.7s6.82,3.94,11,6.56c2-2.21,8.68.28,6.1,8C223.87,466.43,226.86,466.87,224.65,465.52Z"/><path class="cls-8" d="M219.09,395.85c3.48,10.38,13.93,19.81,15.53,24.82a31.6,31.6,0,0,1,0,20.33c-24.34-18.24-29.5-22.45-34.15-34.37s17,14.5,16.44,14.09c0,0-6.66-4.39-7.25-7s1-13,1.74-15.51c1.48-4.94,3.88-8.1,7-3.44l.72,1.08Z"/><path class="cls-9" d="M226.56,445.35c-12-16.41-20.72-25.35-24.49-33.5s10.28,2.79,10.28,2.79S213.1,387,221,396.86c13.39,16.74,18.58,23.54,19.64,24.56,9-5.8,17.81-9.42,24.72-11a13.91,13.91,0,0,1,4.39,2.75l1.47-1.52,2.78,2.69-11.11,11.51-16.35,18C243.66,447,233.92,457,233.92,457l-3.33-3.22,2.1-2.25A25,25,0,0,1,226.56,445.35Z"/><path class="cls-8" d="M220.84,423.88c0-1.55,2.46-3.39,5.87-5.26,6.36-3.51,2.75-9.84,3.7-9.63,1.11.26,3.45,4.29,3.33,7.5-.11,3.46-2.56,6.83-6.06,8.91C223.66,427.81,220.76,426.51,220.84,423.88Zm6.79,8.47c.06-1.54,2.47-3.38,5.88-5.25,6.35-3.51,2.74-9.85,3.7-9.63s3.44,4.29,3.32,7.5c-.11,3.46-2.56,6.83-6.05,8.91C230.46,436.29,227.56,435,227.63,432.35Z"/><path class="cls-8" d="M235.94,429.1c.35.47.56.32,1.13.37s.88,0,1.13.63-2.51,3.54-5.57,6-6.39,4.39-8,1.6.21-5,3.27-7.14,7.33-4.28,7.8-3.87.38.71.27,1.26S235.6,428.64,235.94,429.1Z"/><path class="cls-8" d="M229.19,420.45c.32.49.54.35,1.11.43s.88.09,1.1.7-2.72,3.4-5.91,5.69-6.65,4.05-8.14,1.16.49-5,3.67-7,7.59-3.88,8-3.45.33.74.2,1.29S228.87,420,229.19,420.45Z"/><path class="cls-8" d="M223.35,399.92c-.71,3.67-.26,7-4.85,12.61s-15.81,2.13-14.44,4.47c3.5,6.31,2.58,5.29,11,3.72a19.34,19.34,0,0,0,12.11-10.47C230.05,404.28,226.89,402.19,223.35,399.92Z"/><path class="cls-8" d="M216.57,413.76a2.19,2.19,0,0,0-.38,1.4,2.62,2.62,0,0,0,.94,2.16,4.56,4.56,0,0,0,1.92.78,3.06,3.06,0,0,0,1.89-.55,30.57,30.57,0,0,0,6-7.21c3.08-5.88,0-8.07-3.48-10.45-.83,3.64-.49,7-5.25,12.45a7.24,7.24,0,0,1-1.67,1.42Z"/><path class="cls-10" d="M246.92,422.36a5.36,5.36,0,0,1-.17-2.71,10.89,10.89,0,0,0,.15-3.3c0-.79,2.17-1.73,3.64-1.46a23.13,23.13,0,0,1-.54,10C247.89,426.8,246.92,422.36,246.92,422.36Z"/><path class="cls-11" d="M248.55,419.27c.44.05.47-.14.79-.43s.48-.47.94-.29,1.89,3.22.83,6.21-2.44,5.25-3.88,5.07-2.22-2.73-2.5-5.87,1.88-5.77,2.35-5.82.59.17.84.52S248.12,419.21,248.55,419.27Z"/><path class="cls-7" d="M219.63,471.86l13.17-14.7L230,454.64l2.06-2.3-1.86-1.66c-.94-.84-1.92-1.18-2.75-.32-.62.65-3,2.37-3.21,3.45s1.64,1.52,1.64,1.52-8.9,8.45-11.14,12S216.92,469.43,219.63,471.86Z"/><path class="cls-12" d="M323.32,367.48,193.19,507.33l-.46.49-.49-.46-2.06-1.92-.52-.48.51-.49.48-.48c.42-.42,1-1,1.66-1.7,9.12-9.42,27.92-30,59.86-65.86,5-5.67,16.14-17.44,32.37-34.39,3.15-3.3,6.46-6.76,10-10.48l17.78-18.5c5.27-5.49,7.71-8,7.95-8.34,2.58-3.14,3.5-8.92,2.32-16.87l-.26-1.72s1.32.24,3,4.24,2.4,11.68-2,17.07l0,0-1-.92h0Zm-1-.92,1,.92-1.46-.92h1c3.39-4.82,3.39-12.93,1.05-16.95,1.31,6.35.29,12.48-2.57,16-.28.35-2.62,2.79-8,8.42l-17.78,18.5-10,10.48c-16.21,16.94-27.31,28.7-32.33,34.35-32,35.92-50.77,56.47-59.9,65.91-.69.72-2.16,2.26-2.59,2.69l1.06,1Z"/><path class="cls-4" d="M323.14,367.31,193,507.16l-2.07-1.92s10.26-9.86,62.05-68.08c13.13-14.77,66.87-70.18,68.14-71.72,2.52-3.08,3.75-8.77,2.47-17.4h0c3,2.45,4.14,13.6-.46,19.27Z"/><path class="cls-2" d="M174,379.32l44.86,62.83,14.55-36.79L186.3,349.24a22,22,0,0,0-15.54-3.76L130.7,376.09c-.8.12-5.42,4.9-5.7,5.76L91,393.22a2.39,2.39,0,0,0,2.82,3l64.66-19.72A21.25,21.25,0,0,1,174,379.32Z"/><path class="cls-13" d="M280.09,446.94,260.66,452l-1-3.72-3,.79s-.47-1.82-.64-2.44c-.32-1.24-.17-2.29,1-2.64C260.51,443,278.21,439.76,280.09,446.94Z"/><path d="M189.71,470.2c-1.11-2.25.3-3.49-.57-7-.9-3.73-7.9-17.33-7.9-17.33l6.32-1.65s3.72,7.1,5.85,11.62c2.89-.83,7.3,5,.9,10.16C188.54,470.57,190.87,472.57,189.71,470.2Z"/><path class="cls-14" d="M222.93,407.35c-2.67,10.82,1.16,24.61-.2,29.78a32,32,0,0,1-11.11,17.44c-11-28.93-13.09-35.36-10.57-48.13s6.69,21.73,6.42,21.06c0,0-3.32-7.39-2.4-10s8-10.65,10-12.37c4-3.44,7.75-4.84,7.88.87l0,1.31Z"/><path class="cls-15" d="M202.35,453.93c-1.32-20.61-4-33.06-2.76-42.12s7.31,8,7.31,8,15.7-23.3,17.09-10.57c2.36,21.68,3.12,30.35,3.47,31.81,10.92-.06,20.43,1.62,27.22,4a14.05,14.05,0,0,1,2.27,4.75l2.08-.5.93,3.83L244.15,457l-23.86,6.54c-4.15,1.14-18,4.39-18,4.39l-1.1-4.56,3-.8A25.47,25.47,0,0,1,202.35,453.93Z"/><path class="cls-14" d="M209.15,432.37c.89-1.3,4-1.56,7.91-1.3,7.37.45,7.73-7,8.43-6.26s.62,5.57-1.23,8.26c-2,2.91-5.93,4.46-10.06,4.34C209.43,437.3,207.65,434.59,209.15,432.37Zm1.21,11c.89-1.3,4-1.56,7.91-1.31,7.37.45,7.73-7,8.43-6.25s.62,5.56-1.23,8.25c-2,2.91-5.93,4.47-10.06,4.35C210.64,448.28,208.86,445.58,210.36,443.36Z"/><path class="cls-14" d="M219.27,445.1c0,.59.31.57.77.93s.74.51.62,1.15-4.08,1.67-8,2.11-7.89.29-7.77-3,2.9-4.17,6.7-4.36,8.63.33,8.81.94-.07.82-.46,1.23S219.23,444.51,219.27,445.1Z"/><path class="cls-14" d="M218.19,434c0,.59.28.59.72,1s.71.55.56,1.2-4.18,1.44-8.17,1.66-7.92-.15-7.62-3.44,3.13-4,6.95-4,8.63.8,8.78,1.42-.11.82-.53,1.22S218.18,433.4,218.19,434Z"/><path class="cls-14" d="M224.38,413.17c-2.61,2.77-4,5.87-11,8.19s-14.74-6.8-14.84-4c-.43,7.33-.67,5.95,7.41,9.19A19.7,19.7,0,0,0,222,424.12C227.75,420.57,226.18,417.05,224.38,413.17Z"/><path class="cls-14" d="M211,421.36a2.27,2.27,0,0,0-1.09,1,2.68,2.68,0,0,0-.37,2.37,4.57,4.57,0,0,0,1.23,1.71,3.06,3.06,0,0,0,1.92.55,30.71,30.71,0,0,0,9.11-2.9c5.85-3.37,4.39-6.93,2.71-10.87-2.7,2.68-4.23,5.74-11.3,7.83a7.29,7.29,0,0,1-2.21.31Z"/><path class="cls-10" d="M232.38,445.29a5.37,5.37,0,0,1,1.33-2.41,11.56,11.56,0,0,0,1.92-2.76c.44-.67,2.81-.3,3.93.74a23.71,23.71,0,0,1-5.93,8.29C230.79,449.64,232.38,445.29,232.38,445.29Z"/><path class="cls-11" d="M235.46,443.53c.35.29.48.13.91.07s.67-.14,1,.26-.14,3.79-2.68,5.78-5,3.18-6.1,2.24-.41-3.55,1.06-6.41,4.76-3.93,5.19-3.71.41.47.44.9S235.12,443.24,235.46,443.53Z"/><path class="cls-13" d="M182,472.92l19.32-5.45-1-3.69,3-.86s-.51-1.81-.68-2.43c-.35-1.23-1-2.06-2.19-1.78-.89.22-3.85.41-4.64,1.21s.58,2.21.58,2.21-12.25,2.39-16.09,4.2S180.94,469.35,182,472.92Z"/><path class="cls-16" d="M327.9,439.84,139.9,489l-.66.17-.17-.66-.73-2.77-.18-.7.71-.14.67-.15c.6-.13,1.38-.31,2.36-.55,13-3.12,40.3-10.5,87.31-23.91,7.42-2.12,23.37-6.17,46.54-11.88l14.34-3.52,25.35-6.2c7.51-1.83,11-2.7,11.37-2.82,3.93-1.29,7.87-5.75,11.2-13.21l.71-1.63s1,.92.24,5.26-4.31,11.34-11,13.58l-.05,0-.34-1.33h0Zm-.34-1.33.34,1.33-1-1.33h1c5.68-2,10.11-9,10.29-13.7-2.33,6.18-6.55,10.87-10.91,12.31-.43.14-3.77,1-11.48,2.85l-25.35,6.19-14.33,3.52c-23.16,5.71-39.1,9.76-46.49,11.87-47,13.42-74.39,20.81-87.38,23.93l-3.69.9.37,1.42Z"/><path class="cls-4" d="M327.84,439.59l-188,49.11-.73-2.77s14.19-2.87,90.4-24.62c19.34-5.52,95.7-23.79,97.62-24.43,3.85-1.26,8-5.48,11.61-13.58h0c1.22,3.72-3.86,13.94-10.9,16.29Z"/><path class="cls-5" d="M191.68,393.15l5.53,61.53,36.58-15.9L226,360.07c-11.58-23.54-20.25-21.34-33.49-20.67S132.34,357,132.34,357s4.78,5.38-2.24,11.93-42.63,18.22-42.63,18.22c-1.29,1.32,3.49,13.17,5.32,13.68l80.41-23C178.55,379.19,192,375.51,191.68,393.15Z"/><path class="cls-1" d="M84.31,428.93a13.84,13.84,0,1,0-4.77-19A13.83,13.83,0,0,0,84.31,428.93Z"/><path class="cls-1" d="M3,230.39a10.71,10.71,0,1,0,.24-15.15A10.71,10.71,0,0,0,3,230.39Z"/><path class="cls-1" d="M240.29,479.52A8.42,8.42,0,1,0,232,471,8.41,8.41,0,0,0,240.29,479.52Z"/><path class="cls-17" d="M93.78,16.44C72,28.86,57.69,44.63,61.83,51.71l4.57,8c1.53,2.69,9.42,1.13,17.71-3.59l48.82-27.76c8.21-4.67,13.69-10.67,12.14-13.4l-4.56-8C136.45-.16,115.52,4.08,93.78,16.44Z"/></g></g></g></g></svg>