<svg xmlns="http://www.w3.org/2000/svg" viewBox="0 0 480.62 1186.26"><defs><style>.cls-1{fill:#a40017;}.cls-2{fill:#4d4d4d;}.cls-3{fill:#8a8a8a;}</style></defs><title>Asset 5</title><g id="Layer_2" data-name="Layer 2"><g id="Layer_1-2" data-name="Layer 1"><g id="document"><g id="document-2" data-name="document"><path class="cls-1" d="M283.93,44.72C285,20.84,268.9,1,248.15,0S209.56,17.66,208.49,41.3L156.83,1182.84l75.44,3.42Z"/><path class="cls-2" d="M71.43,206.59l17.9-9.28-4-7.65A37.83,37.83,0,0,0,92,181.49l8.49,2.69,6.15-19.39-9.06-2.87a39,39,0,0,0-1-9l8.48-4.4-9.28-17.9-8.49,4.4a38.86,38.86,0,0,0-6.75-6L83.45,120l-19.25-6.1-2.69,8.49a36.37,36.37,0,0,0-10.51.72l-4-7.64-18,9.33L33,132.39a42.37,42.37,0,0,0-7.07,8.27L18,138.15l-6.25,19.21,8.07,2.55a41.52,41.52,0,0,0,.84,9.62l-8.48,4.4,9.33,18,8.48-4.4a37.2,37.2,0,0,0,7.38,6.23l-2.56,8.07L54,207.93,56.54,200a38.51,38.51,0,0,0,10.84-1l4,7.65ZM54.69,163.34a4.52,4.52,0,1,1,6.09,1.94A4.54,4.54,0,0,1,54.69,163.34Z"/><path class="cls-2" d="M181.16,192.64l7.34-18.78-8-3.13a38.1,38.1,0,0,0-.4-10.53l8.16-3.57L180.07,138l-8.7,3.82a38.5,38.5,0,0,0-6.64-6.09l3.47-8.9-18.77-7.34-3.48,8.9a38.8,38.8,0,0,0-9,0l-3.81-8.71-18.5,8.11,3.58,8.16a35.79,35.79,0,0,0-7.43,7.47l-8-3.13-7.38,18.87,7.93,3.1a42.57,42.57,0,0,0,.14,10.88l-7.61,3.34,8,18.55,7.76-3.39a41,41,0,0,0,7,6.67l-3.47,8.9,18.87,7.37,3.48-8.9a37,37,0,0,0,9.65-.17l3.4,7.75,18.5-8.11-3.34-7.62a38.12,38.12,0,0,0,7.48-7.89l8,3.13Zm-41.1-21.47a4.51,4.51,0,1,1,5.84-2.56A4.47,4.47,0,0,1,140.06,171.17Z"/><path class="cls-3" d="M147.84,152A16.27,16.27,0,1,0,157,173,16.23,16.23,0,0,0,147.84,152Zm-8.12,20.77a6,6,0,1,1,7.82-3.42A6.11,6.11,0,0,1,139.72,172.73Zm42,4.43-5-1.93a38.57,38.57,0,0,0,.92-8.54l5.25-.8a5.09,5.09,0,0,0-1.56-10.06l-5.26.8a37.81,37.81,0,0,0-3.42-7.82l4.15-3.32a5.09,5.09,0,1,0-6.34-8l-4.15,3.32a35.19,35.19,0,0,0-6.9-5.11l1.94-5a5.12,5.12,0,0,0-9.53-3.72l-1.94,5a38,38,0,0,0-8.54-.92l-.8-5.26a5.09,5.09,0,0,0-10.06,1.57l.8,5.25a42.26,42.26,0,0,0-7.82,3.43l-3.32-4.15a5.09,5.09,0,0,0-8,6.33l3.33,4.15a35.31,35.31,0,0,0-5.12,6.91l-5-1.94a5.12,5.12,0,0,0-3.73,9.53l5,1.93a38.66,38.66,0,0,0-.92,8.55l-5.26.8A5.11,5.11,0,0,0,99.44,178a5.92,5.92,0,0,0,2.61.36l5.26-.8a37.33,37.33,0,0,0,3.43,7.82l-4.16,3.32a5.22,5.22,0,0,0-.82,7.15,5.58,5.58,0,0,0,2.16,1.5,5.07,5.07,0,0,0,5-.78l4.16-3.32a35.19,35.19,0,0,0,6.9,5.11l-1.94,5A5.12,5.12,0,0,0,131.6,207l1.94-5a38.56,38.56,0,0,0,8.54.91l.8,5.26a5.06,5.06,0,0,0,3.17,4,5.72,5.72,0,0,0,2.6.36,5,5,0,0,0,4.25-5.81l-.8-5.25a38.4,38.4,0,0,0,7.82-3.43l3.32,4.15a5.44,5.44,0,0,0,2.16,1.5,5.05,5.05,0,0,0,5-.78,5.2,5.2,0,0,0,.81-7.15l-3.32-4.15a35.49,35.49,0,0,0,5.11-6.9l5,1.94a5.12,5.12,0,0,0,3.72-9.54ZM132.58,191a25.68,25.68,0,1,1,33.26-14.57A25.68,25.68,0,0,1,132.58,191Z"/><path class="cls-3" d="M73.21,154a16.27,16.27,0,1,0-7,21.84A16.24,16.24,0,0,0,73.21,154ZM53.41,164.3a6,6,0,1,1,8.14,2.58A6.11,6.11,0,0,1,53.41,164.3Zm28.65,31-2.45-4.73a38.35,38.35,0,0,0,6.32-5.81l4.48,2.86a5.09,5.09,0,0,0,5.46-8.59l-4.49-2.86A37.51,37.51,0,0,0,94,168.05l5.31.24a5.09,5.09,0,0,0,.49-10.17l-5.31-.24a35.39,35.39,0,0,0-1.82-8.39L97.36,147A5.12,5.12,0,0,0,92.65,138l-4.72,2.45a38,38,0,0,0-5.82-6.32L85,129.6a5.09,5.09,0,0,0-8.59-5.46l-2.87,4.49A41.94,41.94,0,0,0,65.39,126l.24-5.31a5.09,5.09,0,0,0-10.17-.49l-.24,5.31a35.58,35.58,0,0,0-8.4,1.82l-2.44-4.72a5.12,5.12,0,1,0-9.09,4.71l2.45,4.72a38,38,0,0,0-6.32,5.82L26.94,135a5.11,5.11,0,0,0-7.27,6.65,5.69,5.69,0,0,0,1.72,2l4.48,2.86a37.66,37.66,0,0,0-2.58,8.14L18,154.43a5.21,5.21,0,0,0-5.33,4.84,5.53,5.53,0,0,0,.63,2.55,5.05,5.05,0,0,0,4.3,2.73l5.31.24a35.47,35.47,0,0,0,1.82,8.4L20,175.64a5.11,5.11,0,1,0,4.7,9.08l4.73-2.45a38,38,0,0,0,5.81,6.32l-2.86,4.48a5.08,5.08,0,0,0-.25,5.09,5.89,5.89,0,0,0,1.73,2,5,5,0,0,0,7-1.56l2.86-4.49a37.33,37.33,0,0,0,8.14,2.59L51.63,202a5.56,5.56,0,0,0,.63,2.55,5.07,5.07,0,0,0,4.3,2.73,5.21,5.21,0,0,0,5.33-4.84l.24-5.31a34.91,34.91,0,0,0,8.39-1.82L73,200a5.12,5.12,0,0,0,9.09-4.71ZM36,173.34a25.68,25.68,0,1,1,34.62,11A25.7,25.7,0,0,1,36,173.34Z"/><path class="cls-2" d="M350.9,219.23,368.8,210l-4-7.64a37.93,37.93,0,0,0,6.65-8.18l8.49,2.7,6.15-19.4-9.06-2.87a38.9,38.9,0,0,0-1-8.95l8.48-4.4-9.28-17.9-8.48,4.4a38.88,38.88,0,0,0-6.76-6l2.88-9.06-19.25-6.1-2.7,8.49a35.71,35.71,0,0,0-10.51.72l-4-7.64-18,9.32,3.91,7.55a42.67,42.67,0,0,0-7.06,8.28l-7.93-2.51L291.19,170l8.07,2.56a41,41,0,0,0,.84,9.62l-8.48,4.4,9.33,18,8.48-4.39a37.43,37.43,0,0,0,7.37,6.23l-2.56,8.07,19.26,6.1,2.51-7.93a38.4,38.4,0,0,0,10.83-1l4,7.64ZM334.15,176a4.52,4.52,0,1,1,6.09,1.93A4.48,4.48,0,0,1,334.15,176Z"/><path class="cls-2" d="M460.63,205.29,468,186.51l-8-3.13a37.7,37.7,0,0,0-.4-10.53l8.16-3.58-8.16-18.63-8.71,3.81a38.48,38.48,0,0,0-6.64-6.08l3.48-8.9-18.78-7.34-3.48,8.9a38.71,38.71,0,0,0-9,0l-3.82-8.71-18.5,8.11,3.58,8.16a35.79,35.79,0,0,0-7.43,7.47l-8-3.14-7.37,18.88,7.92,3.1a42.12,42.12,0,0,0,.15,10.88l-7.62,3.33,8,18.56,7.75-3.4a41.09,41.09,0,0,0,7,6.67l-3.48,8.91,18.88,7.37,3.48-8.9a37,37,0,0,0,9.65-.18l3.39,7.76,18.5-8.11-3.33-7.62a38.19,38.19,0,0,0,7.48-7.9l8,3.14Zm-41.11-21.47a4.52,4.52,0,1,1,5.85-2.56A4.49,4.49,0,0,1,419.52,183.82Z"/><path class="cls-3" d="M427.3,164.6a16.27,16.27,0,1,0,9.14,21A16.25,16.25,0,0,0,427.3,164.6Zm-8.11,20.78A6,6,0,1,1,427,182,6.12,6.12,0,0,1,419.19,185.38Zm42,4.43-5-1.93a38,38,0,0,0,.92-8.55l5.26-.8a5.09,5.09,0,1,0-1.57-10.06l-5.25.81a37.1,37.1,0,0,0-3.43-7.82l4.15-3.32a5.09,5.09,0,0,0-6.33-8l-4.15,3.32a35.49,35.49,0,0,0-6.9-5.11l1.93-5a5.12,5.12,0,0,0-9.53-3.72l-1.94,5a37.84,37.84,0,0,0-8.53-.92l-.81-5.26A5.09,5.09,0,1,0,410,140l.8,5.26a41.69,41.69,0,0,0-7.82,3.43l-3.32-4.16a5.09,5.09,0,0,0-8,6.34l3.32,4.15a35.49,35.49,0,0,0-5.11,6.9l-5-1.93a5.12,5.12,0,0,0-3.72,9.53l5,1.93a37.42,37.42,0,0,0-.92,8.54l-5.26.8a5,5,0,0,0-4.25,5.81,5.09,5.09,0,0,0,3.17,4,5.88,5.88,0,0,0,2.61.36l5.25-.8A38.09,38.09,0,0,0,390.2,198l-4.15,3.31a5.21,5.21,0,0,0-.82,7.16,5.44,5.44,0,0,0,2.16,1.5,5.07,5.07,0,0,0,5-.78l4.15-3.32a35.49,35.49,0,0,0,6.9,5.11l-1.93,5a5.12,5.12,0,0,0,9.53,3.72l1.93-5a38,38,0,0,0,8.54.92l.81,5.26a5,5,0,0,0,3.16,4,5.9,5.9,0,0,0,2.61.36,5,5,0,0,0,4.25-5.81l-.81-5.26a37.58,37.58,0,0,0,7.82-3.42l3.33,4.15a5.48,5.48,0,0,0,2.15,1.5,5.05,5.05,0,0,0,5-.78,5.2,5.2,0,0,0,.82-7.15l-3.32-4.15a35.27,35.27,0,0,0,5.11-6.91l5,1.94a5.12,5.12,0,0,0,3.72-9.53ZM412,203.68a25.68,25.68,0,1,1,33.27-14.58A25.71,25.71,0,0,1,412,203.68Z"/><path class="cls-3" d="M352.68,166.68a16.27,16.27,0,1,0-7,21.84A16.25,16.25,0,0,0,352.68,166.68ZM332.87,177a6,6,0,1,1,8.14,2.58A6.12,6.12,0,0,1,332.87,177Zm28.65,31-2.45-4.72a38,38,0,0,0,6.32-5.81l4.49,2.86a5.09,5.09,0,1,0,5.45-8.59l-4.48-2.87a37.4,37.4,0,0,0,2.58-8.13l5.31.24a5.09,5.09,0,0,0,.5-10.17l-5.32-.24a35.36,35.36,0,0,0-1.81-8.39l4.72-2.45a5.12,5.12,0,0,0-4.71-9.09l-4.72,2.45a38.85,38.85,0,0,0-5.82-6.32l2.86-4.48a5.09,5.09,0,1,0-8.59-5.46L353,141.27a42.49,42.49,0,0,0-8.14-2.58l.24-5.31a5.09,5.09,0,1,0-10.16-.49l-.25,5.31a35.39,35.39,0,0,0-8.39,1.82l-2.45-4.72a5.11,5.11,0,1,0-9.08,4.71l2.45,4.72a38,38,0,0,0-6.33,5.81l-4.48-2.86a5.11,5.11,0,0,0-7.27,6.65,5.92,5.92,0,0,0,1.73,2l4.48,2.86a37.31,37.31,0,0,0-2.58,8.14l-5.32-.24a5.19,5.19,0,0,0-5.32,4.84,5.44,5.44,0,0,0,.63,2.55,5.07,5.07,0,0,0,4.3,2.73l5.31.24a34.88,34.88,0,0,0,1.81,8.39l-4.72,2.45a5.12,5.12,0,1,0,4.71,9.09l4.72-2.45a38.41,38.41,0,0,0,5.82,6.32l-2.87,4.48a5.06,5.06,0,0,0-.24,5.08,5.78,5.78,0,0,0,1.72,2,5,5,0,0,0,7-1.57l2.86-4.48a37.31,37.31,0,0,0,8.14,2.58l-.24,5.31a5.45,5.45,0,0,0,.63,2.56,5.09,5.09,0,0,0,4.29,2.73,5.21,5.21,0,0,0,5.33-4.84l.24-5.31A35.36,35.36,0,0,0,350,208l2.45,4.72a5.11,5.11,0,1,0,9.08-4.71Zm-46.09-22a25.68,25.68,0,1,1,34.63,11A25.7,25.7,0,0,1,315.43,186Z"/><path class="cls-1" d="M331.67,162.58c-6.51-.3-.25,5.65-.55,12.16s-7.06,11.87-.54,12.17,16-4.94,16.31-11.45S338.19,162.87,331.67,162.58ZM56.22,150.11a12.18,12.18,0,1,0,11.62,12.72A12.45,12.45,0,0,0,56.22,150.11Zm92.12,4.17A12.18,12.18,0,1,0,160,167,12.16,12.16,0,0,0,148.34,154.28Zm278.74-31.36L58.64,106.25a56.11,56.11,0,0,0-5.07,112.1L422,235a56,56,0,0,0,58.59-53.51C481.55,150.64,457.93,124.32,427.08,122.92ZM54.22,194.43a32.19,32.19,0,1,1,33.6-30.7A32.11,32.11,0,0,1,54.22,194.43Zm92.11,4.17a32.19,32.19,0,1,1,33.61-30.7A32.12,32.12,0,0,1,146.33,198.6Zm188.44,8.53c-17.82-.81-32.6-15.85-31.79-33.66s16.88-31.46,34.7-30.65,33.9,15.9,33.09,33.72S352.58,207.93,334.77,207.13Zm87,3.93a32.18,32.18,0,1,1,33.61-30.69A32.1,32.1,0,0,1,421.78,211.06Zm2-44.31a12.18,12.18,0,1,0,11.61,12.71A12.15,12.15,0,0,0,423.79,166.75Z"/></g></g></g></g></svg>