<?xml version="1.0" encoding="UTF-8"?>
<svg enable-background="new 0 0 300 300" viewBox="0 0 300 300" xmlns="http://www.w3.org/2000/svg" xmlns:xlink="http://www.w3.org/1999/xlink">
 <defs>
  <path id="b" d="m0 0h300v300h-300z"/>
  <clipPath id="a">
   <use xlink:href="#b"/>
  </clipPath>
 </defs>
 <g clip-path="url(#a)">
  <path d="m184.72 30.945c10.571-1.491 21.262 6.086 23.6 16.458 2.221 8.411-1.648 17.64-8.591 22.645-5.651 3.817-13.118 5.05-19.555 2.579-6.923-2.284-12.218-8.389-13.782-15.472-1.74-5.233-0.109-10.876 2.358-15.583 3.167-5.906 9.464-9.614 15.97-10.627z" fill="none" stroke="#000" stroke-miterlimit="10" stroke-width=".1"/>
  <path d="m184.72 30.945c10.571-1.491 21.262 6.086 23.6 16.458 2.221 8.411-1.648 17.64-8.591 22.645-5.651 3.817-13.118 5.05-19.555 2.579-6.923-2.284-12.218-8.389-13.782-15.472-1.74-5.233-0.109-10.876 2.358-15.583 3.167-5.906 9.464-9.614 15.97-10.627z"/>
  <path d="m93.239,79.266c11.071-9.149 24.462-16.236 38.975-17.412 6.019-.25 12.536-.325 17.828,2.999 2.956,1.745 3.981,5.197 5.36,8.117-1.676,3.28-3.968,6.586-7.583,7.888-6.809,2.187-14.05,1.038-21.053,1.014-6.789.05-13.14,2.663-19.586,4.455-6.12,1.91-12.676,3.055-18.004,6.847-5.026,3.492-9.466,7.788-13.572,12.307 3.13,1.361 6.227,2.813 9.112,4.65-.704,1.417-.813,3.387-2.405,4.158-4.839-.014-8.641-5.138-13.57-3.485 .048-.463.144-1.389.191-1.852-22.985-10.452-46.035-20.772-68.932-31.41v-6.509c24.092,11.149 48.312,22.034 72.486,33.007 5.417-9.379 12.31-17.944 20.753-24.774z" fill="none" stroke="#000" stroke-miterlimit="10" stroke-width=".1"/>
  <path d="m93.239,79.266c11.071-9.149 24.462-16.236 38.975-17.412 6.019-.25 12.536-.325 17.828,2.999 2.956,1.745 3.981,5.197 5.36,8.117-1.676,3.28-3.968,6.586-7.583,7.888-6.809,2.187-14.05,1.038-21.053,1.014-6.789.05-13.14,2.663-19.586,4.455-6.12,1.91-12.676,3.055-18.004,6.847-5.026,3.492-9.466,7.788-13.572,12.307 3.13,1.361 6.227,2.813 9.112,4.65-.704,1.417-.813,3.387-2.405,4.158-4.839-.014-8.641-5.138-13.57-3.485 .048-.463.144-1.389.191-1.852-22.985-10.452-46.035-20.772-68.932-31.41v-6.509c24.092,11.149 48.312,22.034 72.486,33.007 5.417-9.379 12.31-17.944 20.753-24.774z"/>
  <path d="m274.348,65.557c1.721-.801 4.813-2.151 5.587.53 1.618,4.086 2.188,8.512 3.184,12.781 1.544-.462 3.128-.762 4.718-1.053-1.27,1.27-2.572,2.501-3.838,3.77 5.014,23.24 11.004,46.272 16.002,69.514v27.235c-.828-5.757-2.527-11.344-3.744-17.022-5.928-25.216-11.807-50.443-17.753-75.654-11.646,9.741-26.313,15.699-41.351,17.463-11.731,1.141-24.414-.008-34.344-6.903-4.446-2.972-6.979-8.519-5.57-13.8 3.131-2.247 6.657-4.642 10.73-4.078 9.087,1.056 16.75,7.131 25.881,8.064 7.041.625 14.07,1.445 21.125,1.907 8.067.481 15.5-3.256 22.611-6.559-1.072-5.399-2.961-10.661-3.238-16.195z" fill="none" stroke="#000" stroke-miterlimit="10" stroke-width=".1"/>
  <path d="m274.348,65.557c1.721-.801 4.813-2.151 5.587.53 1.618,4.086 2.188,8.512 3.184,12.781 1.544-.462 3.128-.762 4.718-1.053-1.27,1.27-2.572,2.501-3.838,3.77 5.014,23.24 11.004,46.272 16.002,69.514v27.235c-.828-5.757-2.527-11.344-3.744-17.022-5.928-25.216-11.807-50.443-17.753-75.654-11.646,9.741-26.313,15.699-41.351,17.463-11.731,1.141-24.414-.008-34.344-6.903-4.446-2.972-6.979-8.519-5.57-13.8 3.131-2.247 6.657-4.642 10.73-4.078 9.087,1.056 16.75,7.131 25.881,8.064 7.041.625 14.07,1.445 21.125,1.907 8.067.481 15.5-3.256 22.611-6.559-1.072-5.399-2.961-10.661-3.238-16.195z"/>
  <path d="m126.67,144.528c1.732-4.756 6.686-7.346 11.436-8.073 5.928.735 11.435,3.111 16.844,5.498 3.435-.432 7.007-1.51 10.401-.163 2.762,1.546 5.717,3.425 6.801,6.583 .484,1.812.228,3.72.465,5.57 7.95,7.17 17.388,12.773 24.223,21.124 5.951,8.173 3.109,18.933-.074,27.622-5.18,11.771-10.561,23.455-15.787,35.207-3.733,7.682-9.059,14.426-13.379,21.769 1.334-9.957 2.744-19.905 4.652-29.77 1.689-11.067 5.592-21.759 6.095-33.008 .134-2.692-.353-5.921-2.879-7.429-6.347-3.98-13.305-6.882-19.606-10.943-5.064,5.686-10.21,11.298-15.517,16.757-23.267,21.283-46.935,42.126-70.776,62.768 11.312-17.768 22.479-35.631 34.307-53.062 9.538-13.611 19.1-27.205 28.637-40.815-5.46-4.721-8.646-12.658-5.843-19.635z" fill="none" stroke="#000" stroke-miterlimit="10" stroke-width=".1"/>
  <path d="m126.67,144.528c1.732-4.756 6.686-7.346 11.436-8.073 5.928.735 11.435,3.111 16.844,5.498 3.435-.432 7.007-1.51 10.401-.163 2.762,1.546 5.717,3.425 6.801,6.583 .484,1.812.228,3.72.465,5.57 7.95,7.17 17.388,12.773 24.223,21.124 5.951,8.173 3.109,18.933-.074,27.622-5.18,11.771-10.561,23.455-15.787,35.207-3.733,7.682-9.059,14.426-13.379,21.769 1.334-9.957 2.744-19.905 4.652-29.77 1.689-11.067 5.592-21.759 6.095-33.008 .134-2.692-.353-5.921-2.879-7.429-6.347-3.98-13.305-6.882-19.606-10.943-5.064,5.686-10.21,11.298-15.517,16.757-23.267,21.283-46.935,42.126-70.776,62.768 11.312-17.768 22.479-35.631 34.307-53.062 9.538-13.611 19.1-27.205 28.637-40.815-5.46-4.721-8.646-12.658-5.843-19.635z"/>
  <path d="m212.98,260.582c3.049-1.116 4.066-4.659 6.753-6.258 1.706-.096 2.842,1.166 3.915,2.278-.594,2.154-1.543,4.215-3.089,5.856 10.164-.204 20.333.016 30.499-.107 3.934-.203 7.999-.289 11.729-1.694 3.027-1.043 4.2-4.345 6.592-6.21 1.652-.366 2.891.818 4.144,1.668-.456,5.266-4.981,9.011-9.62,10.786-4.803,1.578-9.932,1.622-14.932,1.482-81.527.018-163.057-.019-244.587-.002-.001-2.003-.003-4.004-.005-6.001l195.671-.003c4.331-.242 8.819-.263 12.93-1.795z" fill="none" stroke="#000" stroke-miterlimit="10" stroke-width=".1"/>
  <path d="m212.98,260.582c3.049-1.116 4.066-4.659 6.753-6.258 1.706-.096 2.842,1.166 3.915,2.278-.594,2.154-1.543,4.215-3.089,5.856 10.164-.204 20.333.016 30.499-.107 3.934-.203 7.999-.289 11.729-1.694 3.027-1.043 4.2-4.345 6.592-6.21 1.652-.366 2.891.818 4.144,1.668-.456,5.266-4.981,9.011-9.62,10.786-4.803,1.578-9.932,1.622-14.932,1.482-81.527.018-163.057-.019-244.587-.002-.001-2.003-.003-4.004-.005-6.001l195.671-.003c4.331-.242 8.819-.263 12.93-1.795z"/>
 </g>
</svg>
