<?xml version="1.0" encoding="UTF-8"?>
<svg width="147.04mm" height="110.91mm" version="1.1" viewBox="0 0 521.00001 392.99998" xmlns="http://www.w3.org/2000/svg">
 <defs>
  <filter id="d" x="-.042586" y="-.10151" width="1.0852" height="1.203" color-interpolation-filters="sRGB">
   <feGaussianBlur stdDeviation="8.2432404"/>
  </filter>
  <filter id="a" x="-.047915" y="-.14477" width="1.0958" height="1.2895" color-interpolation-filters="sRGB">
   <feGaussianBlur stdDeviation="2.8690436"/>
  </filter>
  <filter id="e" x="-.13721" y="-.26156" width="1.2744" height="1.5231" color-interpolation-filters="sRGB">
   <feGaussianBlur stdDeviation="1.2478238"/>
  </filter>
 </defs>
 <rect width="521" height="393" fill="#f9f9f9"/>
 <path d="m73.413 181.03c4.1811-2.6879-6.026-21.137-34.408-8.0961-7.3566 3.3802-13.888 23.062-10.12 34.408 10.631 32.015 50.895 45.423 80.961 60.721 63.529 32.323 135.2 45.741 204.43 62.745 57.314 14.079 121.52 25.024 174.07 32.384 5.3452 0.74873 5.3399-15.406 0-16.192-50.587-7.4428-120.78-18.272-180.14-32.384-50.673-12.048-101.76-24.34-149.78-44.528-25.613-10.77-49.988-24.712-72.865-40.48-13.798-9.5109-39.697-15.672-38.456-32.384 0.76261-10.27 26.312-16.192 26.312-16.192z" fill="#0ff" fill-rule="evenodd" filter="url(#d)"/>
 <path d="m124.01 288.3c24.691-92.067 42.439-186.91 53.636-284.37l4.048 2.024c-10.684 91.864-27.445 186.45-51.612 286.4-2.8148-0.0313-6.0091 0.56979-6.072-4.048z" fill="#f00" fill-rule="evenodd" stroke="#000" stroke-width=".25"/>
 <path d="m226.23 6.964 24.288 310.69c-1.5155 1.5255-3.6033 1.3342-6.072 0l-23.276-312.71z" fill="#f00" fill-rule="evenodd" stroke="#000" stroke-width=".25"/>
 <path d="m175.63 56.552 16.192 13.156" fill="none" stroke="#000" stroke-width="1px"/>
 <path d="m176.64 54.528s7.9178 9.6042 12.144 14.168c0.64828 0.70006 1.2861 1.4191 2.024 2.024 3.7624 3.0844 7.3191 8.7195 12.144 8.0961 13.08-1.69 26.261-29.594 26.261-29.594l12.195 78.17s-26.045 7.6685-39.468 8.0961c-14.639 0.46626-43.516-6.072-43.516-6.072l2.024-23.276 11.132-52.624z" fill="#f00" fill-rule="evenodd" stroke="#000" stroke-width="1px"/>
 <path d="m31.414 306.01 15.18-2.024v1.012l173.56-8.6021 1.518 4.554-175.58 6.072-1.012 1.012z" fill="#ff0" fill-rule="evenodd" stroke="#000" stroke-width=".25"/>
 <path d="m129.07 334.35s41.326 7.489 62.239 8.0961c4.7327 0.1374 9.732-2.6668 14.168-1.012 2.2349 0.83369 3.9037 2.9737 5.06 5.06 1.0909 1.9682 2.195 4.432 1.518 6.5781-0.6827 2.1641-2.8037 4.3129-5.06 4.554-50.152 5.3594-144.72-25.806-144.72-25.806l-35.926-10.626 3.036-12.144 48.07 15.686z" fill="#00f" fill-rule="evenodd" stroke="#000" stroke-width="1px"/>
 <path d="m30.236 311.07c30.31 15.13 66.085 25.206 103.67 33.612l35.652 13.952-124.51-25.368-19.197-9.5129z" fill="#fff" fill-rule="evenodd" filter="url(#a)"/>
 <path d="m156.4 314.61 72.865 20.746s32.039 9.5598 48.576 11.132c4.7045 0.44728 9.6816-1.9904 14.168-0.506 2.0507 0.67848 3.6239 2.4346 5.06 4.048 1.058 1.1886 2.53 2.4568 2.53 4.048s-1.2559 3.0948-2.53 4.048c-6.6085 4.9444-6.072 2.53-6.072 2.53-2.8323 1.3809-6.0752-1.6755-9.1081-2.53-44.913-12.654-134.6-38.456-134.6-38.456z" fill="#00f" fill-rule="evenodd" stroke="#000" stroke-width=".25"/>
 <path transform="matrix(1.0059 .048219 -.040757 .85027 -104.7 -271.85)" d="m281.68 672.86c30.31 15.13 66.085 25.206 103.67 33.612l35.652 13.952-124.51-25.368-19.197-9.5129z" fill="#fff" fill-rule="evenodd" filter="url(#a)"/>
 <path d="m289.48 313.6-40.48-2.024-4.048 2.53 46.046 2.53v-3.036z" fill="#ff0" fill-rule="evenodd" stroke="#000" stroke-width=".25"/>
 <path d="m74.425 322.71 7.0841-3.036 5.06 2.53 9.1081-5.06h10.12l9.6141-7.0841 3.542-0.506 14.168-8.6021 10.626 11.132 1.518 9.1081-13.156 3.542-1.518 3.542-3.542-2.024 3.542 7.5901z" fill-rule="evenodd" stroke="#000" stroke-width="1px"/>
 <path d="m135.65 301.96 34.914-8.0961 6.0721-4.048 27.324-31.878 19.228-32.89 9.1081-6.5781 21.252-7.084 6.072 1.012v-6.578l1.012 9.6141 30.36 16.192s8.1182 7.9346 9.6141 13.156c1.9097 6.6657-1.9659 13.827-1.518 20.746 0.43376 6.701 2.8809 13.121 4.048 19.734 0.80019 4.5337 3.0308 9.1698 2.024 13.662-0.26598 1.1868-2.024 3.036-2.024 3.036l1.518 14.674s0.14533 3.5154-1.012 4.554c-1.1367 1.0201-4.554 0.50601-4.554 0.50601s-2.0805 3.5671-3.542 3.036c-0.96429-0.35037-0.50601-3.036-0.50601-3.036s-2.7072 0.83486-3.542 0c-0.95413-0.95413 0-4.048 0-4.048v-12.65l-3.542-22.77-4.554-28.336-17.71 9.6141-9.6141 7.5901 9.1081-2.53s4.0014-1.2631 6.072-1.518c2.5111-0.30913 5.228-0.90641 7.5901 0 2.1186 0.81297 4.0635 2.5154 5.06 4.554 1.0396 2.1269 0.50601 4.7167 0.50601 7.0841s0.50485 4.9434-0.50601 7.0841c-1.9868 4.2074-6.4562 6.7461-10.12 9.6141-5.6739 4.4414-18.216 11.638-18.216 11.638l-13.662 10.626h-6.5781l-4.554 0.506-17.204-5.06 8.6021-8.0961-9.1081-10.12-17.204 9.6141-13.662 6.578-17.204 4.048-19.857 5.566-1.3952-11.132z" fill="#000080" fill-rule="evenodd" stroke="#000" stroke-width="1px"/>
 <path d="m214.58 312.78s-5.5739-0.71528-7.5811-0.60786c-2.0072 0.10743-6.9384 0.97533-8.8701 3.5155-0.61927 0.81435 0.3534 2.3072-0.33953 3.059-3.4478 3.7404-14.946 2.8271-14.946 2.8271l52.13 14.948-1.884-6.9943-1.1509-12.102z" fill-rule="evenodd" stroke="#000" stroke-width=".99662px"/>
 <path d="m258.99 208.41c0.093-3.414 0.51468-7.0183 2.1468-10.018 1.6927-3.1114 4.6815-5.3868 7.5138-7.5138 2.1768-1.6347 4.5193-3.2585 7.156-3.9358 2.3103-0.59342 4.8068-0.41386 7.156 0 2.7496 0.48441 5.573 1.2776 7.8716 2.8624 2.8543 1.9679 5.1824 4.8042 6.7982 7.8716 1.0921 2.0732 1.3603 4.4945 1.789 6.7982 0.39518 2.1236 1.0062 4.3 0.71559 6.4404-0.25919 1.9093-2.1468 5.367-2.1468 5.367l-7.8716 14.312-30.055-15.385s-1.1359-4.5049-1.0734-6.7982z" fill="#000080" fill-rule="evenodd" stroke="#000" stroke-width="1px"/>
 <path d="m271.87 223.8 0.7156-6.7982 24.688 2.1468-7.156 10.734-12.165-2.1468z" fill="#ccc" fill-rule="evenodd"/>
 <path d="m297.99 217.71-17.89-3.2202s-5.1842-0.78635-7.5138 0c-2.1707 0.73271-3.9111 3.1081-4.2936 5.367-0.35894 2.1199 0.8588 4.361 2.1468 6.0826 1.5863 2.1204 3.864 4.0389 6.4404 4.6514 2.9377 0.69843 8.945-1.4312 8.945-1.4312l4.6514 2.1468v-2.5046l-11.092-1.0734s-4.658-2.1601-5.7248-4.2936c-0.69339-1.3868-0.90657-3.3936 0-4.6514 0.66158-0.91789 2.0936-0.96907 3.2202-1.0734 6.9532-0.64391 20.752 2.8624 20.752 2.8624z" fill="#ff0" fill-rule="evenodd" stroke="#000" stroke-width="1px"/>
 <path d="m264.35 203.04s2.5356-5.7984 5.0092-7.5138c4.7307-3.2808 16.817-3.9358 16.817-3.9358s-7.5097 4.754-11.45 6.7982c-3.3644 1.7456-10.376 4.6514-10.376 4.6514z" fill="#fff" fill-rule="evenodd" filter="url(#e)"/>
</svg>
