<?xml version="1.0" encoding="UTF-8"?>
<svg version="1.1" viewBox="0 0 882.11 332.73" xmlns="http://www.w3.org/2000/svg">
 <g transform="translate(-57.824 -422.95)">
  <path d="m151.38 574.96c256.38 9.827 505.89 5.9268 754.39 0 10.238-0.24418 18.485-1.4626 18.485 7.1153v54.124c0 8.5779-8.2486 6.9442-18.485 6.6504-248.7-7.1386-498.11-12.497-754.67 0-51.474 2.5072-83.199-20.713-83.199-32.778 0-14.237 32.325-37.072 83.477-35.112z" fill="#ffd700" stroke="#ffd700" stroke-width="1.9769"/>
  <path d="m428.04 585.26h61.363c0.20729 0 0.50055 0.20987 0.37416 0.37417-11.513 14.967-8.3333 29.933 0 44.9 0.10084 0.18111-0.16687 0.37417-0.37416 0.37417h-61.363c-0.20728 0-0.28129-0.18885-0.37416-0.37417-7.5-14.967-10.362-29.933 0-44.9 0.11799-0.17043 0.16688-0.37417 0.37416-0.37417z" fill="#a9a9a9" stroke="#000" stroke-width=".3"/>
  <path d="m563.11 584.13h61.363c0.20728 0 0.28465 0.18719 0.37416 0.37416 7.1652 14.967 4.6968 29.933 0 44.9-0.0621 0.19778-0.16688 0.37417-0.37416 0.37417h-61.363c-0.20729 0-0.47579-0.1935-0.37416-0.37417 8.9799-15.964 8.9799-30.931 0-44.9-0.11209-0.17437 0.16687-0.37416 0.37416-0.37416z" fill="#a9a9a9" stroke="#000" stroke-width=".3"/>
  <path d="m638.74 644.08c1.8111 2.7233 9.988 4.8037 11.365 4.1764 1.6937-2.1208 2.6239-4.6738 2.366-7.2586-0.12555-1.2583-10.634-4.2772-11.724-2.6068-14.079-2.8635-31.64-12.163-41.455-17.724l-2.1384 6.3263c12.766 6.5353 27.503 13.37 41.586 17.087z" fill="#696969" stroke="#696969" stroke-width=".37355"/>
  <path d="m421.94 593.49h193.92c0.20728 0 0.37416 0.16688 0.37416 0.37417v28.436c0 0.20728-0.16688 0.37416-0.37416 0.37416h-193.92c-0.20729 0-0.18669-0.28575-0.37417-0.37416-18.175-8.5701-21.672-17.874 0-28.436 0.18634-0.0908 0.16688-0.37417 0.37417-0.37417z" fill="#d3d3d3" stroke="#000" stroke-width=".30726"/>
  <path d="m433.57 586.61h29.467c0.2332 0 0.42095 0.18775 0.42095 0.42096v42.095c0 0.23321-0.18775 0.42096-0.42095 0.42096h-29.467c-0.23321 0-0.30229-0.22019-0.42095-0.42096-7.2253-12.225-10.598-25.414 0-42.095 0.12506-0.19685 0.18774-0.42096 0.42095-0.42096z" fill="#696969" stroke="#000" stroke-width=".33752"/>
  <path d="m638.05 571.01c1.8111-2.7233 9.988-4.8037 11.365-4.1764 1.6937 2.1208 2.6239 4.6738 2.366 7.2586-0.12555 1.2583-10.634 4.2772-11.724 2.6068-14.079 2.8635-31.64 12.163-41.455 17.724l-2.1384-6.3263c12.766-6.5353 27.503-13.37 41.586-17.087z" fill="#696969" stroke="#696969" stroke-width=".37355"/>
  <path d="m597.16 588.25h24.695c0.20729 0 0.30249 0.17967 0.37416 0.37416 4.5041 12.223 3.4482 24.445 0 36.668-0.0563 0.19949-0.16687 0.37416-0.37416 0.37416h-24.695c-0.20729 0-0.37417-0.16688-0.37417-0.37416v-36.668c0-0.20728 0.16688-0.37416 0.37417-0.37416z" fill="#696969" stroke="#000" stroke-width=".3"/>
  <rect transform="matrix(.5 -.86603 .86603 .5 0 0)" x="-292.89" y="732.83" width="28.997" height="3.0923" ry=".37416" fill="#696969" stroke="#696969" stroke-width=".24749"/>
  <rect transform="matrix(.5 -.86603 .86603 .5 0 0)" x="-289.6" y="738.53" width="28.997" height="3.0923" ry=".37416" fill="#696969" stroke="#696969" stroke-width=".24749"/>
  <rect transform="matrix(.5 -.86603 .86603 .5 0 0)" x="-286.3" y="744.23" width="28.997" height="3.0923" ry=".37416" fill="#696969" stroke="#696969" stroke-width=".24749"/>
  <rect transform="matrix(.5 -.86603 .86603 .5 0 0)" x="-283.01" y="749.94" width="28.997" height="3.0923" ry=".37416" fill="#696969" stroke="#696969" stroke-width=".24749"/>
  <rect transform="matrix(.5 -.86603 .86603 .5 0 0)" x="-279.72" y="755.64" width="28.997" height="3.0923" ry=".37416" fill="#696969" stroke="#696969" stroke-width=".24749"/>
  <rect transform="matrix(.5 -.86603 .86603 .5 0 0)" x="-276.43" y="761.35" width="28.997" height="3.0923" ry=".37416" fill="#696969" stroke="#696969" stroke-width=".24749"/>
  <rect transform="matrix(.5 -.86603 .86603 .5 0 0)" x="-273.13" y="767.05" width="28.997" height="3.0923" ry=".37416" fill="#696969" stroke="#696969" stroke-width=".24749"/>
  <rect transform="matrix(.5 -.86603 .86603 .5 0 0)" x="-269.84" y="772.75" width="28.997" height="3.0923" ry=".37416" fill="#696969" stroke="#696969" stroke-width=".24749"/>
  <rect transform="matrix(.5 -.86603 .86603 .5 0 0)" x="-266.55" y="778.46" width="28.997" height="3.0923" ry=".37416" fill="#696969" stroke="#696969" stroke-width=".24749"/>
  <rect transform="matrix(.5 -.86603 .86603 .5 0 0)" x="-263.25" y="784.16" width="28.997" height="3.0923" ry=".37416" fill="#696969" stroke="#696969" stroke-width=".24749"/>
  <rect transform="matrix(.5 -.86603 .86603 .5 0 0)" x="-292.77" y="733.78" width="28.997" height="3.0923" ry=".37416" fill="#fff" stroke="#696969" stroke-width=".24749"/>
  <rect transform="matrix(.5 -.86603 .86603 .5 0 0)" x="-289.47" y="739.49" width="28.997" height="3.0923" ry=".37416" fill="#fff" stroke="#696969" stroke-width=".24749"/>
  <rect transform="matrix(.5 -.86603 .86603 .5 0 0)" x="-286.18" y="745.19" width="28.997" height="3.0923" ry=".37416" fill="#fff" stroke="#696969" stroke-width=".24749"/>
  <rect transform="matrix(.5 -.86603 .86603 .5 0 0)" x="-282.89" y="750.9" width="28.997" height="3.0923" ry=".37416" fill="#fff" stroke="#696969" stroke-width=".24749"/>
  <rect transform="matrix(.5 -.86603 .86603 .5 0 0)" x="-279.59" y="756.6" width="28.997" height="3.0923" ry=".37416" fill="#fff" stroke="#696969" stroke-width=".24749"/>
  <rect transform="matrix(.5 -.86603 .86603 .5 0 0)" x="-276.3" y="762.3" width="28.997" height="3.0923" ry=".37416" fill="#fff" stroke="#696969" stroke-width=".24749"/>
  <rect transform="matrix(.5 -.86603 .86603 .5 0 0)" x="-273.01" y="768.01" width="28.997" height="3.0923" ry=".37416" fill="#fff" stroke="#696969" stroke-width=".24749"/>
  <rect transform="matrix(.5 -.86603 .86603 .5 0 0)" x="-269.71" y="773.71" width="28.997" height="3.0923" ry=".37416" fill="#fff" stroke="#696969" stroke-width=".24749"/>
  <rect transform="matrix(.5 -.86603 .86603 .5 0 0)" x="-266.42" y="779.42" width="28.997" height="3.0923" ry=".37416" fill="#fff" stroke="#696969" stroke-width=".24749"/>
  <rect transform="matrix(.5 -.86603 .86603 .5 0 0)" x="-263.13" y="785.12" width="28.997" height="3.0923" ry=".37416" fill="#fff" stroke="#696969" stroke-width=".24749"/>
  <path d="m147.29 677.08c256.38 9.827 505.89 5.9268 754.39 0 10.238-0.24418 18.485-1.4626 18.485 7.1153v54.124c0 8.5779-8.2486 6.9442-18.485 6.6504-248.7-7.1386-498.11-12.497-754.67 0-51.474 2.5072-83.199-20.713-83.199-32.778 0-14.237 32.325-37.072 83.477-35.112z" fill="#9acd32" stroke="#000" stroke-width="1.9769"/>
  <path d="m908.93 684.83c-1.9077 0.0125-4.3141 0.15152-7.0508 0.2168-248.54 5.9278-498.25 9.8337-754.9-4e-3 -24.331-0.93262-43.947 4.0828-57.051 10.637-6.5518 3.277-11.458 6.9613-14.441 10.164-2.9834 3.2028-3.7129 5.7917-3.7129 6.3398 0-0.4704 0.51925 1.9823 3.4707 4.9785 2.9515 2.9962 7.8315 6.5465 14.348 9.7226 13.032 6.3522 32.558 11.323 57.023 10.131 256.92-12.514 506.56-7.1456 755.3-6e-3 4.9534 0.14218 8.5545 0.26434 10.281 0.11914v-52.049c-0.53167-0.0809-1.0968-0.26427-3.2695-0.25z" fill="#9acd32" stroke="#000" stroke-width="1.9769"/>
  <path d="m423.95 687.38h61.363c0.20729 0 0.50055 0.20987 0.37416 0.37417-11.513 14.967-8.3333 29.933 0 44.9 0.10084 0.18111-0.16687 0.37417-0.37416 0.37417h-61.363c-0.20728 0-0.28129-0.18885-0.37416-0.37417-7.5-14.967-10.362-29.933 0-44.9 0.11799-0.17043 0.16688-0.37417 0.37416-0.37417z" fill="#a9a9a9" stroke="#000" stroke-width=".3"/>
  <path d="m559.02 686.26h61.363c0.20728 0 0.28465 0.18719 0.37416 0.37416 7.1652 14.967 4.6968 29.933 0 44.9-0.0621 0.19778-0.16688 0.37417-0.37416 0.37417h-61.363c-0.20729 0-0.47579-0.1935-0.37416-0.37417 8.9799-15.964 8.9799-30.931 0-44.9-0.11209-0.17437 0.16687-0.37416 0.37416-0.37416z" fill="#a9a9a9" stroke="#000" stroke-width=".3"/>
  <path d="m634.65 746.21c1.8111 2.7233 9.988 4.8037 11.365 4.1764 1.6937-2.1208 2.6239-4.6738 2.366-7.2586-0.12555-1.2583-10.634-4.2772-11.724-2.6068-14.079-2.8635-31.64-12.163-41.455-17.724l-2.1384 6.3263c12.766 6.5353 27.503 13.37 41.586 17.087z" fill="#696969" stroke="#696969" stroke-width=".37355"/>
  <path d="m417.85 695.62h193.92c0.20728 0 0.37416 0.16688 0.37416 0.37417v28.436c0 0.20728-0.16688 0.37416-0.37416 0.37416h-193.92c-0.20729 0-0.18669-0.28575-0.37417-0.37416-18.175-8.5701-21.672-17.874 0-28.436 0.18634-0.0908 0.16688-0.37417 0.37417-0.37417z" fill="#d3d3d3" stroke="#000" stroke-width=".30726"/>
  <path d="m429.47 688.74h29.467c0.2332 0 0.42095 0.18775 0.42095 0.42096v42.095c0 0.23321-0.18775 0.42096-0.42095 0.42096h-29.467c-0.23321 0-0.30229-0.22019-0.42095-0.42096-7.2253-12.225-10.598-25.414 0-42.095 0.12506-0.19685 0.18774-0.42096 0.42095-0.42096z" fill="#696969" stroke="#000" stroke-width=".33752"/>
  <path d="m633.96 673.14c1.8111-2.7233 9.988-4.8037 11.365-4.1764 1.6937 2.1208 2.6239 4.6738 2.366 7.2586-0.12555 1.2583-10.634 4.2772-11.724 2.6068-14.079 2.8635-31.64 12.163-41.455 17.724l-2.1384-6.3263c12.766-6.5353 27.503-13.37 41.586-17.087z" fill="#696969" stroke="#696969" stroke-width=".37355"/>
  <path d="m593.07 690.38h24.695c0.20729 0 0.30249 0.17967 0.37416 0.37416 4.5041 12.223 3.4482 24.445 0 36.668-0.0563 0.19949-0.16687 0.37416-0.37416 0.37416h-24.695c-0.20729 0-0.37417-0.16688-0.37417-0.37416v-36.668c0-0.20728 0.16688-0.37416 0.37417-0.37416z" fill="#696969" stroke="#000" stroke-width=".3"/>
  <rect transform="matrix(.5 -.86603 .86603 .5 0 0)" x="-383.38" y="780.35" width="28.997" height="3.0923" ry=".37416" fill="#696969" stroke="#696969" stroke-width=".24749"/>
  <rect transform="matrix(.5 -.86603 .86603 .5 0 0)" x="-380.09" y="786.05" width="28.997" height="3.0923" ry=".37416" fill="#696969" stroke="#696969" stroke-width=".24749"/>
  <rect transform="matrix(.5 -.86603 .86603 .5 0 0)" x="-376.8" y="791.76" width="28.997" height="3.0923" ry=".37416" fill="#696969" stroke="#696969" stroke-width=".24749"/>
  <rect transform="matrix(.5 -.86603 .86603 .5 0 0)" x="-373.5" y="797.46" width="28.997" height="3.0923" ry=".37416" fill="#696969" stroke="#696969" stroke-width=".24749"/>
  <rect transform="matrix(.5 -.86603 .86603 .5 0 0)" x="-370.21" y="803.16" width="28.997" height="3.0923" ry=".37416" fill="#696969" stroke="#696969" stroke-width=".24749"/>
  <rect transform="matrix(.5 -.86603 .86603 .5 0 0)" x="-366.92" y="808.87" width="28.997" height="3.0923" ry=".37416" fill="#696969" stroke="#696969" stroke-width=".24749"/>
  <rect transform="matrix(.5 -.86603 .86603 .5 0 0)" x="-363.62" y="814.57" width="28.997" height="3.0923" ry=".37416" fill="#696969" stroke="#696969" stroke-width=".24749"/>
  <rect transform="matrix(.5 -.86603 .86603 .5 0 0)" x="-360.33" y="820.28" width="28.997" height="3.0923" ry=".37416" fill="#696969" stroke="#696969" stroke-width=".24749"/>
  <rect transform="matrix(.5 -.86603 .86603 .5 0 0)" x="-357.04" y="825.98" width="28.997" height="3.0923" ry=".37416" fill="#696969" stroke="#696969" stroke-width=".24749"/>
  <rect transform="matrix(.5 -.86603 .86603 .5 0 0)" x="-353.74" y="831.68" width="28.997" height="3.0923" ry=".37416" fill="#696969" stroke="#696969" stroke-width=".24749"/>
  <rect transform="matrix(.5 -.86603 .86603 .5 0 0)" x="-383.26" y="781.3" width="28.997" height="3.0923" ry=".37416" fill="#fff" stroke="#696969" stroke-width=".24749"/>
  <rect transform="matrix(.5 -.86603 .86603 .5 0 0)" x="-379.96" y="787.01" width="28.997" height="3.0923" ry=".37416" fill="#fff" stroke="#696969" stroke-width=".24749"/>
  <rect transform="matrix(.5 -.86603 .86603 .5 0 0)" x="-376.67" y="792.71" width="28.997" height="3.0923" ry=".37416" fill="#fff" stroke="#696969" stroke-width=".24749"/>
  <rect transform="matrix(.5 -.86603 .86603 .5 0 0)" x="-373.38" y="798.42" width="28.997" height="3.0923" ry=".37416" fill="#fff" stroke="#696969" stroke-width=".24749"/>
  <rect transform="matrix(.5 -.86603 .86603 .5 0 0)" x="-370.08" y="804.12" width="28.997" height="3.0923" ry=".37416" fill="#fff" stroke="#696969" stroke-width=".24749"/>
  <rect transform="matrix(.5 -.86603 .86603 .5 0 0)" x="-366.79" y="809.82" width="28.997" height="3.0923" ry=".37416" fill="#fff" stroke="#696969" stroke-width=".24749"/>
  <rect transform="matrix(.5 -.86603 .86603 .5 0 0)" x="-363.5" y="815.53" width="28.997" height="3.0923" ry=".37416" fill="#fff" stroke="#696969" stroke-width=".24749"/>
  <rect transform="matrix(.5 -.86603 .86603 .5 0 0)" x="-360.2" y="821.23" width="28.997" height="3.0923" ry=".37416" fill="#fff" stroke="#696969" stroke-width=".24749"/>
  <rect transform="matrix(.5 -.86603 .86603 .5 0 0)" x="-356.91" y="826.94" width="28.997" height="3.0923" ry=".37416" fill="#fff" stroke="#696969" stroke-width=".24749"/>
  <rect transform="matrix(.5 -.86603 .86603 .5 0 0)" x="-353.62" y="832.64" width="28.997" height="3.0923" ry=".37416" fill="#fff" stroke="#696969" stroke-width=".24749"/>
  <path d="m159.46 462.54c244.92-17.501 399.83-10.014 754.13 1.8848 5.6098 0.18839 21.182-1.7355 21.205-2.5397l-0.10198 3.6721c-6e-3 0.19638-9.4207 1.8372-11.655 1.8366l-723.32-0.18525-72.576 0.18525c-13.673 0.0349-37.891-14.305-42.262-23.392-0.72178-1.5006-0.03107-2.9782 0.57339-3.8565 0.91592-0.0884 9.3851 26.195 74.004 22.395z" fill="#ffd700" stroke="#ffd700" stroke-width=".28435"/>
  <path d="m437.09 450.94h193.92c0.20728 0 0.37416 0.0214 0.37416 0.0479v3.6412c0 0.0265-0.16688 0.0479-0.37416 0.0479h-193.92c-0.20729 0-0.18669-0.0366-0.37417-0.0479-18.175-1.0974-21.672-2.2887 0-3.6412 0.18634-0.0116 0.16688-0.0479 0.37417-0.0479z" fill="#d3d3d3" stroke="#000" stroke-width=".10995"/>
  <path d="m426.87 430.43c-0.0456-1.6081 20.311-3.45 22.038-1.4126 4.232 4.9926-4.3439 15.83 23.496 11.025-2.7822 12.274-1.1076 8.5196-0.23163 10.843-15.241-0.22-30.921-0.43275-45.881 0.75279-0.0782-6.7495-5.297-12.105 0.57906-21.208z" fill="#808080" stroke="#808080" stroke-width=".32857"/>
  <rect x="590.06" y="442.92" width="52.832" height="7.2507" fill="#808080" stroke="#ffd700" stroke-width=".21239"/>
  <path d="m592.12 435.88c18.03-5.2505 32.993-1.0658 53.3-4.6824l-0.13379 8.1872c-20.331 0.88886-47.121 0.88663-53.167 3.7459z" fill="#808080" stroke="#696969" stroke-width=".21239"/>
  <path d="m631.87 459.34c1.8111 2.7233 9.988 4.8037 11.365 4.1764 1.6937-2.1208 2.6239-4.6738 2.366-7.2586-0.12555-1.2583-10.634-4.2772-11.724-2.6068-14.079-2.8635-40.062-16.073-41.455-17.724-4.4991 1.5172-4.3 3.7684-2.1384 6.3263 12.766 6.5353 27.503 13.37 41.586 17.087z" fill="#696969" stroke="#696969" stroke-width=".37355"/>
  <path transform="matrix(.90323 .42916 -.42916 .90323 0 0)" d="m724.46 140.89c12.755 1.5994 28.882 1.2011 42.448-0.36134 0.47645-1.1831 2.5201 1.9959-1.0652 3.2657-13.154 1.0394-28.127-0.10209-41.314-1.9995z" fill="#dcdcdc" stroke="#696969" stroke-width=".3"/>
  <path d="m635.23 453.96c3.0901 0.35186 6.496 1.479 9.1688 3.2914 0.22293 0.98663-0.5819 3.7167-2.1159 5.0938-0.30859 0.9258-10.371-2.1819-9.2472-3.213 0.30303-0.2781 2.9505-5.0776 2.1942-5.1722z" stroke="#000" stroke-width="1px"/>
  <path transform="translate(0 287.36)" d="m429.49 145.34c3.8255-2.3647 10.539-1.4477 17.719 0-2.4743 4.5575 2.9963 9.0698 5.6169 13.782-9.5084-1.0184-16.566-0.53897-23.336 0.11581-0.20545-4.6265-4.4623-9.1338 0-13.898z" fill="#c0c0c0" stroke="#808080" stroke-width=".3"/>
 </g>
</svg>
