<?xml version="1.0" encoding="UTF-8"?>
<svg viewBox="0 0 123.55 123.54" xmlns="http://www.w3.org/2000/svg">
 <g fill="#fff">
  <path d="m132.24 221.28c22.135 0 40.161-17.729 40.161-39.684v-253.16c0-21.933-18.026-39.684-40.161-39.684h-256.12c-22.219 0-40.246 17.75-40.246 39.684v253.16c0 21.955 18.026 39.684 40.246 39.684h256.12z"/>
  <path d="m-123.89-104.54c-18.432 0-33.416 14.784-33.416 32.976v253.16c0 18.127 14.983 32.932 33.416 32.932h256.12c18.411 0 33.372-14.805 33.372-32.932v-253.16c0-18.192-14.962-32.976-33.372-32.976h-256.12z"/>
 </g>
 <path d="m7.9201-41.973c12.428 0 22.475-9.9896 22.475-22.292 0-12.28-10.047-22.208-22.475-22.208s-22.538 9.9276-22.538 22.208c0 12.302 10.11 22.292 22.538 22.292z"/>
 <path d="m-30.113-38.293c0.87176-3.4268-1.3185-6.8347-4.7239-7.6961l-18.751-4.4577c-3.5116-0.7995-6.9796 1.241-7.7696 4.6489l-15.768 64.479c-0.87176 3.4268 1.2559 6.8347 4.7239 7.6961l18.814 4.4577c3.4053 0.8614 6.9169-1.241 7.726-4.6677l15.749-64.46z"/>
 <path d="m56.469 191c0 0.12651-0.062653 0.25302-0.062653 0.31494 0 2.8399 2.3401 5.1307 5.1924 5.1307 2.5962 0 4.7893-1.9758 5.108-4.4577l37.799-202.48v-0.3984c0-2.7538-2.2775-5.0688-5.1298-5.0688-2.5962 0-4.5986 1.9758-5.1298 4.4793l-37.777 202.48z"/>
 <path d="m-69.209 177.73c-0.21249 1.0525-0.27786 2.1024-0.27786 3.1549 0 8.6652 7.0667 15.626 15.833 15.626 7.1948 0 13.237-4.7323 15.174-11.166l27.199-111.27 25.924 110.62c1.6591 6.8347 7.9167 11.82 15.28 11.82 8.7912 0 15.833-6.9612 15.833-15.626 0-1.1979-0.12805-2.3124-0.34053-3.4268l-35.56-146.94 2.9803-12.953 2.3401 10.178c2.1277 6.6462 8.2355 7.2977 8.2355 7.2977l36.65 9.2116c0.72466 0.12652 1.4684 0.18843 2.193 0.18843 5.9798 0 10.834-4.7323 10.834-10.641 0-5.0688-3.5116-9.3381-8.3008-10.453l-31.732-7.8872-8.704-34.973c-4.13-19.516-23.006-19.053-23.006-19.053-18.345-0.46301-22.944 18.612-22.944 18.612l-47.612 197.68z"/>
</svg>
