<?xml version="1.0" encoding="UTF-8"?>
<svg width="210mm" height="297mm" version="1.1" viewBox="0 0 744.09448819 1052.3622047" xmlns="http://www.w3.org/2000/svg">
 <defs>
  <filter id="c" x="-.09315" y="-.07452" width="1.1863" height="1.149" color-interpolation-filters="sRGB">
   <feGaussianBlur stdDeviation="5.4337502"/>
  </filter>
  <filter id="d" x="-.054045" y="-.20117" width="1.1081" height="1.4023" color-interpolation-filters="sRGB">
   <feGaussianBlur stdDeviation="2.3050554"/>
  </filter>
 </defs>
 <ellipse cx="250" cy="489.86" rx="60.75" ry="22.5" fill="#008000"/>
 <g transform="translate(2,-2)" fill="#272727" fill-rule="evenodd" filter="url(#d)">
  <path d="m285.35 495.3s0-11 4-13c0 0-3.3929 9.683 1 13z"/>
  <path d="m279.24 495.3s1-10.035 4-12.035c0 0-3 9.0703 1 12.035z"/>
  <path d="m281 495.27s-2-9-4-11c0 0 2 10.07-2 11.035z"/>
  <path d="m283 495.27s0-5 2-7c0 0-1 7.0352 2 7.0352z"/>
  <g transform="translate(-37 14.25)">
   <path d="m285.35 495.3s0-11 4-13c0 0-3.3929 9.683 1 13z"/>
   <path d="m279.24 495.3s1-10.035 4-12.035c0 0-3 9.0703 1 12.035z"/>
   <path d="m281 495.27s-2-9-4-11c0 0 2 10.07-2 11.035z"/>
   <path d="m283 495.27s0-5 2-7c0 0-1 7.0352 2 7.0352z"/>
  </g>
  <g transform="translate(18.75 -.25)">
   <path d="m285.35 495.3s0-11 4-13c0 0-3.3929 9.683 1 13z"/>
   <path d="m279.24 495.3s1-10.035 4-12.035c0 0-3 9.0703 1 12.035z"/>
   <path d="m281 495.27s-2-9-4-11c0 0 2 10.07-2 11.035z"/>
   <path d="m283 495.27s0-5 2-7c0 0-1 7.0352 2 7.0352z"/>
  </g>
  <g transform="translate(-60.5 9.5)">
   <path d="m285.35 495.3s0-11 4-13c0 0-3.3929 9.683 1 13z"/>
   <path d="m279.24 495.3s1-10.035 4-12.035c0 0-3 9.0703 1 12.035z"/>
   <path d="m281 495.27s-2-9-4-11c0 0 2 10.07-2 11.035z"/>
   <path d="m283 495.27s0-5 2-7c0 0-1 7.0352 2 7.0352z"/>
  </g>
  <g transform="translate(-13.5 11.25)">
   <path d="m285.35 495.3s0-11 4-13c0 0-3.3929 9.683 1 13z"/>
   <path d="m279.24 495.3s1-10.035 4-12.035c0 0-3 9.0703 1 12.035z"/>
   <path d="m281 495.27s-2-9-4-11c0 0 2 10.07-2 11.035z"/>
   <path d="m283 495.27s0-5 2-7c0 0-1 7.0352 2 7.0352z"/>
  </g>
  <g transform="translate(-40 2.8882e-7)">
   <path d="m285.35 495.3s0-11 4-13c0 0-3.3929 9.683 1 13z"/>
   <path d="m279.24 495.3s1-10.035 4-12.035c0 0-3 9.0703 1 12.035z"/>
   <path d="m281 495.27s-2-9-4-11c0 0 2 10.07-2 11.035z"/>
   <path d="m283 495.27s0-5 2-7c0 0-1 7.0352 2 7.0352z"/>
  </g>
  <path d="m214.74 495.3c0-0.85131-4-12.274-8-13 0 0 4.6518 6.0357 3 13z"/>
  <path d="m212.97 495.3s-1-7 3-10c0 0-2.8029 5.9638 1 10z"/>
  <path d="m215.35 495.3s0-11 4-13c0 0-3.3929 9.683 1 13z"/>
 </g>
 <g transform="translate(9.25,5.75)" fill="#272727" fill-rule="evenodd" filter="url(#c)">
  <path d="m180 387.36 70-70 70 70-10 10-60-60-60 60-10-10"/>
  <path d="m210 377.36v115h10v-125"/>
  <path d="m279.64 367.36v125h10.357v-115.33"/>
  <path d="m193 407.36v25h10s6.3398 0 5 5 5 5 5 5 0-5 5-5 20-10 30-5 10 10 10 10 16 1 19-2 3 2 3 2h13s2-3.6906 5-2.8868v2.8868h7v-35s-64 3-67 1c0 0-34.42-5.6428-45-1"/>
  <path d="m200 472.36v10s10 0 10 5h80s0-5 10-5v-10s-10 0-10-5v-5h-10s0 5-5 5-5-5-5-5h-5s0 5-5 5-5-5-5-5h-10s0 5-5 5-5-5-5-5h-5s0 5-5 5-5-5-5-5h-10v5s0 5-10 5"/>
 </g>
 <path d="m180 387.36 70-70 70 70-10 10-60-60-60 60-10-10" fill="#520" fill-rule="evenodd" stroke="#000" stroke-width=".8"/>
 <path d="m210 377.36v115h10v-125" fill="#520" fill-rule="evenodd" stroke="#000" stroke-width=".8"/>
 <path d="m279.64 367.36v125h10.357v-115.33" fill="#520" fill-rule="evenodd" stroke="#000" stroke-width=".8"/>
 <path d="m193 407.36v25h10s6.3398 0 5 5 5 5 5 5 0-5 5-5 20-10 30-5 10 10 10 10 16 1 19-2 3 2 3 2h13s2-3.6906 5-2.8868v2.8868h7v-35s-64 3-67 1c0 0-34.42-5.6428-45-1" fill="#520" fill-rule="evenodd" stroke="#000" stroke-width=".8"/>
 <path d="m200 472.36v10s10 0 10 5h80s0-5 10-5v-10s-10 0-10-5v-5h-10s0 5-5 5-5-5-5-5h-5s0 5-5 5-5-5-5-5h-10s0 5-5 5-5-5-5-5h-5s0 5-5 5-5-5-5-5h-10v5s0 5-10 5" fill="#520" fill-rule="evenodd" stroke="#000" stroke-width=".8"/>
 <g fill="#008000" fill-rule="evenodd" stroke="#000" stroke-width=".2">
  <path d="m285.35 495.3s0-11 4-13c0 0-3.3929 9.683 1 13z"/>
  <path d="m279.24 495.3s1-10.035 4-12.035c0 0-3 9.0703 1 12.035z"/>
  <path d="m281 495.27s-2-9-4-11c0 0 2 10.07-2 11.035z"/>
  <path d="m283 495.27s0-5 2-7c0 0-1 7.0352 2 7.0352z"/>
  <g transform="translate(-37 14.25)">
   <path d="m285.35 495.3s0-11 4-13c0 0-3.3929 9.683 1 13z"/>
   <path d="m279.24 495.3s1-10.035 4-12.035c0 0-3 9.0703 1 12.035z"/>
   <path d="m281 495.27s-2-9-4-11c0 0 2 10.07-2 11.035z"/>
   <path d="m283 495.27s0-5 2-7c0 0-1 7.0352 2 7.0352z"/>
  </g>
  <g transform="translate(18.75 -.25)">
   <path d="m285.35 495.3s0-11 4-13c0 0-3.3929 9.683 1 13z"/>
   <path d="m279.24 495.3s1-10.035 4-12.035c0 0-3 9.0703 1 12.035z"/>
   <path d="m281 495.27s-2-9-4-11c0 0 2 10.07-2 11.035z"/>
   <path d="m283 495.27s0-5 2-7c0 0-1 7.0352 2 7.0352z"/>
  </g>
  <g transform="translate(-60.5 9.5)">
   <path d="m285.35 495.3s0-11 4-13c0 0-3.3929 9.683 1 13z"/>
   <path d="m279.24 495.3s1-10.035 4-12.035c0 0-3 9.0703 1 12.035z"/>
   <path d="m281 495.27s-2-9-4-11c0 0 2 10.07-2 11.035z"/>
   <path d="m283 495.27s0-5 2-7c0 0-1 7.0352 2 7.0352z"/>
  </g>
  <g transform="translate(-13.5 11.25)">
   <path d="m285.35 495.3s0-11 4-13c0 0-3.3929 9.683 1 13z"/>
   <path d="m279.24 495.3s1-10.035 4-12.035c0 0-3 9.0703 1 12.035z"/>
   <path d="m281 495.27s-2-9-4-11c0 0 2 10.07-2 11.035z"/>
   <path d="m283 495.27s0-5 2-7c0 0-1 7.0352 2 7.0352z"/>
  </g>
  <g transform="translate(-40 2.8882e-7)">
   <path d="m285.35 495.3s0-11 4-13c0 0-3.3929 9.683 1 13z"/>
   <path d="m279.24 495.3s1-10.035 4-12.035c0 0-3 9.0703 1 12.035z"/>
   <path d="m281 495.27s-2-9-4-11c0 0 2 10.07-2 11.035z"/>
   <path d="m283 495.27s0-5 2-7c0 0-1 7.0352 2 7.0352z"/>
  </g>
  <path d="m214.74 495.3c0-0.85131-4-12.274-8-13 0 0 4.6518 6.0357 3 13z"/>
  <path d="m212.97 495.3s-1-7 3-10c0 0-2.8029 5.9638 1 10z"/>
  <path d="m215.35 495.3s0-11 4-13c0 0-3.3929 9.683 1 13z"/>
 </g>
</svg>
